SplineFontDB: 3.2
FontName: ATM090-Regular
FullName: ATM090-Regular
FamilyName: ATM 090
Weight: Book
Copyright: AzhaguThamizh
Version: 1.001
ItalicAngle: -11
UnderlinePosition: -271
UnderlineWidth: 102
Ascent: 1600
Descent: 400
InvalidEm: 0
sfntRevision: 0x00010042
LayerCount: 2
Layer: 0 1 "Back" 1
Layer: 1 1 "Fore" 0
XUID: [1021 192 2086997156 18494]
StyleMap: 0x0040
FSType: 8
OS2Version: 3
OS2_WeightWidthSlopeOnly: 0
OS2_UseTypoMetrics: 0
CreationTime: 1536310672
ModificationTime: 1545751666
PfmFamily: 17
TTFWeight: 400
TTFWidth: 5
LineGap: 0
VLineGap: 0
Panose: 2 11 6 4 2 2 2 2 2 4
OS2TypoAscent: 2000
OS2TypoAOffset: 0
OS2TypoDescent: -1320
OS2TypoDOffset: 0
OS2TypoLinegap: 0
OS2WinAscent: 2000
OS2WinAOffset: 0
OS2WinDescent: 744
OS2WinDOffset: 0
HheadAscent: 2000
HheadAOffset: 0
HheadDescent: -1320
HheadDOffset: 0
OS2SubXSize: 1400
OS2SubYSize: 1300
OS2SubXOff: 0
OS2SubYOff: 0
OS2SupXSize: 1400
OS2SupYSize: 1300
OS2SupXOff: 0
OS2SupYOff: 0
OS2StrikeYSize: 100
OS2StrikeYPos: 518
OS2CapHeight: 1586
OS2XHeight: -200
OS2Vendor: '    '
OS2CodePages: 00000001.00000000
OS2UnicodeRanges: 00100003.00000000.00000000.00000000
Lookup: 4 0 0 "'akhn' Akhand in Tamil2 lookup 0" { "'akhn' Akhand in Tamil2 lookup 0 subtable"  } ['akhn' ('tml2' <'dflt' > ) ]
Lookup: 4 0 0 "'akhn' Akhand in Tamil lookup 1" { "'akhn' Akhand in Tamil lookup 1 subtable"  } ['akhn' ('taml' <'dflt' > ) ]
Lookup: 4 0 0 "'half' Half Forms in Tamil lookup 2" { "'half' Half Forms in Tamil lookup 2 subtable"  } ['half' ('taml' <'dflt' > ) ]
Lookup: 4 0 0 "'haln' Halant Forms in Tamil2 lookup 3" { "'haln' Halant Forms in Tamil2 lookup 3 subtable"  } ['haln' ('tml2' <'dflt' > ) ]
Lookup: 4 0 0 "'haln' Halant Forms in Tamil lookup 4" { "'haln' Halant Forms in Tamil lookup 4 subtable"  } ['haln' ('taml' <'dflt' > ) ]
Lookup: 4 0 0 "'abvs' Above Base Substitutions lookup 5" { "'abvs' Above Base Substitutions lookup 5 subtable"  } ['abvs' ('taml' <'dflt' > 'tml2' <'dflt' > ) ]

StartChar: .notdef
Encoding: 65536 -1 0
Width: 1600
Flags: W
LayerCount: 2
Fore
SplineSet
100 0 m 1,0,-1
 100 1600 l 1,1,-1
 1500 1600 l 1,2,-1
 1500 0 l 1,3,-1
 100 0 l 1,0,-1
1400 100 m 1,4,-1
 1400 1500 l 1,5,-1
 200 1500 l 1,6,-1
 200 100 l 1,7,-1
 1400 100 l 1,4,-1
EndSplineSet
EndChar

StartChar: exclam
Encoding: 33 33 4
Width: 682
GlyphClass: 2
Flags: W
LayerCount: 2
Fore
SplineSet
234 1143 m 2,0,1
 234 1164 234 1164 246 1178.5 c 128,-1,2
 258 1193 258 1193 275 1193 c 2,3,-1
 502 1193 l 2,4,5
 527 1193 527 1193 545.5 1177.5 c 128,-1,6
 564 1162 564 1162 564 1141 c 0,7,8
 564 1131 564 1131 556.5 1096.5 c 128,-1,9
 549 1062 549 1062 543 1031 c 2,10,-1
 420 396 l 2,11,12
 416 377 416 377 404.5 363.5 c 128,-1,13
 393 350 393 350 379 350 c 0,14,15
 377 350 377 350 379 359.5 c 128,-1,16
 381 369 381 369 379 375 c 2,17,-1
 234 1143 l 2,0,1
275 41 m 2,18,-1
 275 205 l 2,19,20
 275 223 275 223 300.5 240.5 c 128,-1,21
 326 258 326 258 365 268 c 0,22,23
 404 277 404 277 430.5 282 c 128,-1,24
 457 287 457 287 471 287 c 0,25,26
 484 287 484 287 493 281 c 128,-1,27
 502 275 502 275 502 268 c 2,28,-1
 502 82 l 2,29,30
 502 66 502 66 477.5 49.5 c 128,-1,31
 453 33 453 33 414 21 c 0,32,33
 377 12 377 12 349.5 6 c 128,-1,34
 322 0 322 0 307 0 c 0,35,36
 293 0 293 0 284 11.5 c 128,-1,37
 275 23 275 23 275 41 c 2,18,-1
EndSplineSet
EndChar

StartChar: quotedbl
Encoding: 34 34 5
Width: 840
GlyphClass: 2
Flags: W
LayerCount: 2
Fore
SplineSet
646 784 m 1,0,-1
 674 1070 l 1,1,-1
 690 1200 l 2,2,3
 698 1264 698 1264 735 1309 c 128,-1,4
 772 1354 772 1354 832 1354 c 0,5,6
 896 1354 896 1354 904 1288 c 0,7,8
 904 1262 904 1262 890 1222 c 0,9,10
 858 1126 858 1126 830 1070 c 2,11,-1
 692 784 l 1,12,-1
 646 784 l 1,0,-1
288 784 m 1,13,-1
 318 1074 l 2,14,15
 330 1192 330 1192 334 1210 c 0,16,17
 350 1292 350 1292 396 1328 c 1,18,19
 438 1354 438 1354 472 1354 c 0,20,21
 546 1354 546 1354 546 1286 c 0,22,23
 546 1248 546 1248 464 1072 c 2,24,-1
 330 784 l 1,25,-1
 288 784 l 1,13,-1
EndSplineSet
EndChar

StartChar: numbersign
Encoding: 35 35 6
Width: 1068
GlyphClass: 2
Flags: W
LayerCount: 2
Fore
SplineSet
998 278 m 1,0,-1
 746 278 l 1,1,-1
 680 -36 l 1,2,-1
 584 -36 l 1,3,-1
 650 278 l 1,4,-1
 320 278 l 1,5,-1
 254 -36 l 1,6,-1
 158 -36 l 1,7,-1
 224 278 l 1,8,-1
 68 278 l 1,9,-1
 68 374 l 1,10,-1
 244 374 l 1,11,-1
 304 664 l 1,12,-1
 68 664 l 1,13,-1
 68 760 l 1,14,-1
 324 760 l 1,15,-1
 392 1076 l 1,16,-1
 488 1076 l 1,17,-1
 420 760 l 1,18,-1
 748 760 l 1,19,-1
 814 1076 l 1,20,-1
 910 1076 l 1,21,-1
 844 760 l 1,22,-1
 998 760 l 1,23,-1
 998 664 l 1,24,-1
 826 664 l 1,25,-1
 764 374 l 1,26,-1
 998 374 l 1,27,-1
 998 278 l 1,0,-1
730 664 m 1,28,-1
 400 664 l 1,29,-1
 340 374 l 1,30,-1
 668 374 l 1,31,-1
 730 664 l 1,28,-1
EndSplineSet
EndChar

StartChar: dollar
Encoding: 36 36 7
Width: 932
GlyphClass: 2
Flags: W
LayerCount: 2
Fore
SplineSet
774 296 m 2,0,1
 760 170 760 170 636 82 c 0,2,3
 534 12 534 12 392 -16 c 1,4,-1
 376 -90 l 1,5,-1
 314 -90 l 1,6,-1
 328 -20 l 1,7,-1
 302 -20 l 1,8,-1
 242 -18 l 1,9,-1
 210 -18 l 1,10,11
 194 -12 194 -12 188 -10 c 0,12,13
 112 6 112 6 30 46 c 1,14,-1
 46 88 l 1,15,-1
 66 160 l 1,16,-1
 86 242 l 1,17,-1
 130 242 l 1,18,-1
 124 188 l 1,19,20
 124 104 124 104 190 60 c 0,21,22
 248 20 248 20 336 20 c 1,23,-1
 432 464 l 1,24,25
 172 562 172 562 172 724 c 0,26,27
 172 760 172 760 176 776 c 0,28,29
 206 900 206 900 322 982 c 0,30,31
 424 1054 424 1054 562 1074 c 1,32,-1
 574 1134 l 1,33,-1
 636 1134 l 1,34,-1
 624 1074 l 1,35,36
 774 1074 774 1074 882 1008 c 1,37,-1
 830 830 l 1,38,-1
 786 830 l 1,39,-1
 788 868 l 2,40,41
 796 1030 796 1030 614 1030 c 1,42,-1
 524 602 l 1,43,44
 652 546 652 546 696 512 c 0,45,46
 780 448 780 448 780 350 c 1,47,-1
 774 296 l 2,0,1
468 630 m 1,48,-1
 552 1028 l 1,49,50
 362 996 362 996 314 824 c 1,51,-1
 310 792 l 1,52,53
 310 736 310 736 360 690 c 0,54,55
 388 664 388 664 468 630 c 1,48,-1
638 238 m 1,56,-1
 642 278 l 1,57,58
 642 364 642 364 488 438 c 1,59,-1
 398 20 l 1,60,61
 484 34 484 34 550 94 c 128,-1,62
 616 154 616 154 638 238 c 1,56,-1
EndSplineSet
EndChar

StartChar: percent
Encoding: 37 37 8
Width: 1447
GlyphClass: 2
Flags: W
LayerCount: 2
Fore
SplineSet
117 432 m 2,0,-1
 117 658 l 2,1,2
 117 699 117 699 213 740 c 128,-1,3
 309 781 309 781 404 781 c 0,4,5
 465 781 465 781 507 751 c 128,-1,6
 549 721 549 721 549 678 c 2,7,-1
 549 453 l 2,8,9
 549 406 549 406 453 357.5 c 128,-1,10
 357 309 357 309 262 309 c 0,11,12
 201 309 201 309 159 345 c 128,-1,13
 117 381 117 381 117 432 c 2,0,-1
219 494 m 2,14,15
 219 461 219 461 243.5 436.5 c 128,-1,16
 268 412 268 412 303 412 c 0,17,18
 350 412 350 412 397.5 439.5 c 128,-1,19
 445 467 445 467 445 494 c 2,20,-1
 445 617 l 2,21,22
 445 643 445 643 420.5 660.5 c 128,-1,23
 396 678 396 678 363 678 c 0,24,25
 316 678 316 678 267.5 650.5 c 128,-1,26
 219 623 219 623 219 596 c 2,27,-1
 219 494 l 2,14,15
365 -205 m 1,28,-1
 932 986 l 1,29,-1
 1061 986 l 1,30,-1
 496 -205 l 1,31,-1
 365 -205 l 1,28,-1
898 123 m 2,32,-1
 898 350 l 2,33,34
 898 391 898 391 994 432 c 128,-1,35
 1090 473 1090 473 1186 473 c 0,36,37
 1246 473 1246 473 1288 442.5 c 128,-1,38
 1330 412 1330 412 1330 369 c 2,39,-1
 1330 145 l 2,40,41
 1330 98 1330 98 1234.5 49 c 128,-1,42
 1139 0 1139 0 1043 0 c 0,43,44
 982 0 982 0 940 36 c 128,-1,45
 898 72 898 72 898 123 c 2,32,-1
1000 186 m 2,46,47
 1000 152 1000 152 1024.5 128 c 128,-1,48
 1049 104 1049 104 1084 104 c 0,49,50
 1131 104 1131 104 1179 131 c 128,-1,51
 1227 158 1227 158 1227 186 c 2,52,-1
 1227 309 l 2,53,54
 1227 334 1227 334 1202.5 351.5 c 128,-1,55
 1178 369 1178 369 1145 369 c 0,56,57
 1098 369 1098 369 1049 341.5 c 128,-1,58
 1000 314 1000 314 1000 287 c 2,59,-1
 1000 186 l 2,46,47
EndSplineSet
EndChar

StartChar: ampersand
Encoding: 38 38 9
Width: 1034
GlyphClass: 2
Flags: W
LayerCount: 2
Fore
SplineSet
1006 -4 m 1,0,-1
 928 0 l 1,1,-1
 850 0 l 1,2,-1
 754 -4 l 1,3,-1
 676 98 l 1,4,5
 598 32 598 32 524 2 c 1,6,-1
 462 -14 l 2,7,8
 424 -24 424 -24 370 -24 c 0,9,10
 228 -24 228 -24 132 60 c 128,-1,11
 36 144 36 144 36 284 c 0,12,13
 36 470 36 470 260 586 c 2,14,-1
 310 612 l 1,15,-1
 248 730 l 1,16,-1
 232 778 l 1,17,-1
 226 828 l 1,18,19
 226 938 226 938 324 1010 c 0,20,21
 414 1076 414 1076 528 1076 c 0,22,23
 604 1076 604 1076 664 1029 c 128,-1,24
 724 982 724 982 724 908 c 0,25,26
 724 806 724 806 626 746 c 2,27,-1
 552 700 l 1,28,-1
 452 644 l 1,29,-1
 568 472 l 1,30,-1
 748 228 l 1,31,32
 812 312 812 312 812 416 c 256,33,34
 812 520 812 520 716 516 c 2,35,-1
 676 514 l 1,36,-1
 688 552 l 1,37,-1
 1006 552 l 1,38,-1
 1006 514 l 1,39,-1
 968 514 l 2,40,41
 916 514 916 514 892 486 c 0,42,43
 878 470 878 470 862 408 c 2,44,-1
 848 352 l 2,45,46
 840 322 840 322 828 300 c 0,47,48
 814 262 814 262 772 200 c 1,49,-1
 862 98 l 1,50,-1
 888 72 l 1,51,-1
 934 44 l 2,52,53
 950 32 950 32 980 32 c 2,54,-1
 1006 32 l 1,55,-1
 1006 -4 l 1,0,-1
590 890 m 0,56,57
 590 950 590 950 558 992 c 128,-1,58
 526 1034 526 1034 468 1034 c 0,59,60
 414 1034 414 1034 376 996 c 128,-1,61
 338 958 338 958 338 904 c 0,62,63
 338 874 338 874 342 858 c 2,64,-1
 360 806 l 2,65,66
 378 756 378 756 434 672 c 1,67,68
 500 712 500 712 530 744 c 0,69,70
 590 808 590 808 590 890 c 0,56,57
652 124 m 1,71,-1
 484 348 l 1,72,-1
 422 440 l 1,73,-1
 330 582 l 1,74,75
 178 470 178 470 178 326 c 0,76,77
 178 210 178 210 264 132 c 128,-1,78
 350 54 350 54 468 54 c 0,79,80
 522 54 522 54 580 78 c 0,81,82
 604 88 604 88 610 94 c 2,83,-1
 652 124 l 1,71,-1
EndSplineSet
EndChar

StartChar: quotesingle
Encoding: 39 39 10
Width: 428
GlyphClass: 2
Flags: W
LayerCount: 2
Fore
SplineSet
262 784 m 1,0,-1
 292 1074 l 2,1,2
 300 1144 300 1144 324 1264 c 1,3,4
 342 1322 342 1322 408 1346 c 0,5,6
 430 1354 430 1354 446 1354 c 0,7,8
 514 1354 514 1354 522 1286 c 0,9,10
 522 1256 522 1256 512 1236 c 1,11,12
 504 1208 504 1208 440 1072 c 2,13,-1
 306 784 l 1,14,-1
 262 784 l 1,0,-1
EndSplineSet
EndChar

StartChar: parenleft
Encoding: 40 40 11
Width: 830
GlyphClass: 2
Flags: W
LayerCount: 2
Fore
SplineSet
117 391 m 256,0,1
 117 805 117 805 292 1098 c 128,-1,2
 467 1391 467 1391 713 1391 c 1,3,-1
 713 1287 l 1,4,5
 498 1250 498 1250 358.5 996 c 128,-1,6
 219 742 219 742 219 391 c 0,7,8
 219 39 219 39 358.5 -215 c 128,-1,9
 498 -469 498 -469 713 -506 c 1,10,-1
 713 -609 l 1,11,12
 467 -609 467 -609 292 -316 c 128,-1,13
 117 -23 117 -23 117 391 c 256,0,1
EndSplineSet
EndChar

StartChar: parenright
Encoding: 41 41 12
Width: 830
GlyphClass: 2
Flags: W
LayerCount: 2
Fore
SplineSet
713 391 m 256,0,1
 713 -23 713 -23 538 -316 c 128,-1,2
 363 -609 363 -609 117 -609 c 1,3,-1
 117 -506 l 1,4,5
 332 -469 332 -469 471.5 -215 c 128,-1,6
 611 39 611 39 611 391 c 0,7,8
 611 742 611 742 471.5 996 c 128,-1,9
 332 1250 332 1250 117 1287 c 1,10,-1
 117 1391 l 1,11,12
 363 1391 363 1391 538 1098 c 128,-1,13
 713 805 713 805 713 391 c 256,0,1
EndSplineSet
EndChar

StartChar: asterisk
Encoding: 42 42 13
Width: 932
GlyphClass: 2
Flags: W
LayerCount: 2
Fore
SplineSet
117 576 m 1,0,-1
 398 576 l 1,1,-1
 467 746 l 1,2,-1
 533 576 l 1,3,-1
 814 576 l 1,4,-1
 605 418 l 1,5,-1
 725 145 l 1,6,-1
 467 334 l 1,7,-1
 207 145 l 1,8,-1
 326 418 l 1,9,-1
 117 576 l 1,0,-1
EndSplineSet
EndChar

StartChar: plus
Encoding: 43 43 14
Width: 1016
GlyphClass: 2
Flags: W
LayerCount: 2
Fore
SplineSet
117 328 m 1,0,-1
 117 432 l 1,1,-1
 467 432 l 1,2,-1
 467 781 l 1,3,-1
 570 781 l 1,4,-1
 570 432 l 1,5,-1
 898 432 l 1,6,-1
 898 328 l 1,7,-1
 570 328 l 1,8,-1
 570 0 l 1,9,-1
 467 0 l 1,10,-1
 467 328 l 1,11,-1
 117 328 l 1,0,-1
EndSplineSet
EndChar

StartChar: comma
Encoding: 44 44 15
Width: 525
GlyphClass: 2
Flags: W
LayerCount: 2
Fore
SplineSet
182 41 m 2,0,-1
 182 205 l 2,1,2
 182 223 182 223 207 240.5 c 128,-1,3
 232 258 232 258 271 268 c 0,4,5
 311 277 311 277 337 282 c 128,-1,6
 363 287 363 287 377 287 c 256,7,8
 391 287 391 287 399.5 281 c 128,-1,9
 408 275 408 275 408 268 c 2,10,-1
 408 41 l 2,11,12
 408 -63 408 -63 339 -152.5 c 128,-1,13
 270 -242 270 -242 154 -283 c 1,14,-1
 117 -250 l 1,15,16
 213 -215 213 -215 277.5 -139.5 c 128,-1,17
 342 -64 342 -64 359 33 c 1,18,19
 314 18 314 18 277 9 c 128,-1,20
 240 0 240 0 213 0 c 0,21,22
 199 0 199 0 190.5 11.5 c 128,-1,23
 182 23 182 23 182 41 c 2,0,-1
EndSplineSet
EndChar

StartChar: hyphen
Encoding: 45 45 16
Width: 811
GlyphClass: 2
Flags: W
LayerCount: 2
Fore
SplineSet
117 328 m 1,0,-1
 117 432 l 1,1,-1
 693 432 l 1,2,-1
 693 328 l 1,3,-1
 117 328 l 1,0,-1
EndSplineSet
EndChar

StartChar: period
Encoding: 46 46 17
Width: 461
GlyphClass: 2
Flags: W
LayerCount: 2
Fore
SplineSet
117 41 m 2,0,-1
 117 205 l 2,1,2
 117 223 117 223 142.5 240.5 c 128,-1,3
 168 258 168 258 207 268 c 0,4,5
 246 277 246 277 272.5 282 c 128,-1,6
 299 287 299 287 312 287 c 0,7,8
 326 287 326 287 335 281 c 128,-1,9
 344 275 344 275 344 268 c 2,10,-1
 344 123 l 2,11,12
 344 90 344 90 328 64.5 c 128,-1,13
 312 39 312 39 287 31 c 0,14,15
 230 16 230 16 198 8 c 128,-1,16
 166 0 166 0 148 0 c 0,17,18
 135 0 135 0 126 11.5 c 128,-1,19
 117 23 117 23 117 41 c 2,0,-1
EndSplineSet
EndChar

StartChar: slash
Encoding: 47 47 18
Width: 930
GlyphClass: 2
Flags: W
LayerCount: 2
Fore
SplineSet
117 -205 m 1,0,-1
 684 986 l 1,1,-1
 812 986 l 1,2,-1
 248 -205 l 1,3,-1
 117 -205 l 1,0,-1
EndSplineSet
EndChar

StartChar: zero
Encoding: 48 48 19
Width: 880
GlyphClass: 2
Flags: W
LayerCount: 2
Fore
SplineSet
88 469 m 0,0,1
 88 660 88 660 182.5 804 c 128,-1,2
 277 948 277 948 439 948 c 256,3,4
 601 948 601 948 696 804 c 128,-1,5
 791 660 791 660 791 469 c 0,6,7
 791 277 791 277 696 133.5 c 128,-1,8
 601 -10 601 -10 439 -10 c 256,9,10
 277 -10 277 -10 182.5 133.5 c 128,-1,11
 88 277 88 277 88 469 c 0,0,1
192 469 m 0,12,13
 192 314 192 314 254.5 201 c 128,-1,14
 317 88 317 88 439 88 c 0,15,16
 560 88 560 88 623 201 c 128,-1,17
 686 314 686 314 686 469 c 0,18,19
 686 623 686 623 623 736 c 128,-1,20
 560 849 560 849 439 849 c 0,21,22
 317 849 317 849 254.5 736 c 128,-1,23
 192 623 192 623 192 469 c 0,12,13
EndSplineSet
EndChar

StartChar: one
Encoding: 49 49 20
Width: 882
GlyphClass: 2
Flags: W
LayerCount: 2
Fore
SplineSet
272 668 m 1,0,-1
 272 750 l 1,1,2
 373 750 373 750 452.5 799.5 c 128,-1,3
 532 849 532 849 541 938 c 1,4,-1
 610 938 l 1,5,-1
 610 0 l 1,6,-1
 506 0 l 1,7,-1
 506 668 l 1,8,-1
 272 668 l 1,0,-1
EndSplineSet
EndChar

StartChar: two
Encoding: 50 50 21
Width: 880
GlyphClass: 2
Flags: W
LayerCount: 2
Fore
SplineSet
118 0 m 1,0,1
 118 134 118 134 208.5 242 c 128,-1,2
 299 350 299 350 446 433 c 0,3,4
 545 490 545 490 601.5 546.5 c 128,-1,5
 658 603 658 603 658 680 c 0,6,7
 658 752 658 752 597 798.5 c 128,-1,8
 536 845 536 845 453 845 c 0,9,10
 369 845 369 845 307.5 787 c 128,-1,11
 246 729 246 729 246 643 c 2,12,-1
 246 585 l 1,13,-1
 141 585 l 1,14,-1
 141 643 l 2,15,16
 141 770 141 770 232.5 859 c 128,-1,17
 324 948 324 948 453 948 c 0,18,19
 579 948 579 948 670.5 872.5 c 128,-1,20
 762 797 762 797 762 680 c 0,21,22
 762 580 762 580 693.5 497 c 128,-1,23
 625 414 625 414 516 351 c 0,24,25
 507 346 507 346 393 280.5 c 128,-1,26
 279 215 279 215 259 104 c 1,27,-1
 762 104 l 1,28,-1
 762 0 l 1,29,-1
 118 0 l 1,0,1
EndSplineSet
EndChar

StartChar: three
Encoding: 51 51 22
Width: 880
GlyphClass: 2
Flags: W
LayerCount: 2
Fore
SplineSet
105 293 m 1,0,-1
 209 293 l 1,1,2
 209 207 209 207 279.5 150.5 c 128,-1,3
 350 94 350 94 444 94 c 0,4,5
 534 94 534 94 601 146.5 c 128,-1,6
 668 199 668 199 668 281 c 0,7,8
 668 357 668 357 601 401.5 c 128,-1,9
 534 446 534 446 444 446 c 2,10,-1
 363 446 l 1,11,-1
 363 550 l 1,12,-1
 444 550 l 2,13,14
 516 550 516 550 569 593 c 128,-1,15
 622 636 622 636 622 703 c 0,16,17
 622 767 622 767 569 806 c 128,-1,18
 516 845 516 845 444 845 c 0,19,20
 359 845 359 845 297 795.5 c 128,-1,21
 235 746 235 746 235 668 c 1,22,-1
 129 668 l 1,23,24
 129 786 129 786 220 867 c 128,-1,25
 311 948 311 948 433 948 c 0,26,27
 551 948 551 948 639 879 c 128,-1,28
 727 810 727 810 727 703 c 0,29,30
 727 640 727 640 700.5 587 c 128,-1,31
 674 534 674 534 622 504 c 1,32,33
 693 486 693 486 733 423.5 c 128,-1,34
 773 361 773 361 773 281 c 0,35,36
 773 157 773 157 676 73.5 c 128,-1,37
 579 -10 579 -10 444 -10 c 0,38,39
 307 -10 307 -10 206 77 c 128,-1,40
 105 164 105 164 105 293 c 1,0,-1
EndSplineSet
EndChar

StartChar: four
Encoding: 52 52 23
Width: 882
GlyphClass: 2
Flags: W
LayerCount: 2
Fore
SplineSet
113 235 m 1,0,-1
 113 338 l 1,1,-1
 534 938 l 1,2,-1
 640 938 l 1,3,-1
 640 338 l 1,4,-1
 769 338 l 1,5,-1
 769 235 l 1,6,-1
 640 235 l 1,7,-1
 640 0 l 1,8,-1
 534 0 l 1,9,-1
 534 235 l 1,10,-1
 113 235 l 1,0,-1
242 338 m 1,11,-1
 534 338 l 1,12,-1
 534 750 l 1,13,-1
 242 338 l 1,11,-1
EndSplineSet
EndChar

StartChar: five
Encoding: 53 53 24
Width: 880
GlyphClass: 2
Flags: W
LayerCount: 2
Fore
SplineSet
105 281 m 1,0,-1
 209 281 l 1,1,2
 209 203 209 203 276.5 153.5 c 128,-1,3
 344 104 344 104 433 104 c 0,4,5
 529 104 529 104 598.5 164.5 c 128,-1,6
 668 225 668 225 668 315 c 0,7,8
 668 408 668 408 599.5 474 c 128,-1,9
 531 540 531 540 433 540 c 0,10,11
 371 540 371 540 316 516 c 128,-1,12
 261 492 261 492 222 446 c 1,13,-1
 117 446 l 1,14,-1
 209 930 l 1,15,-1
 703 930 l 1,16,-1
 703 826 l 1,17,-1
 305 826 l 1,18,-1
 257 585 l 1,19,20
 285 619 285 619 330 631 c 128,-1,21
 375 643 375 643 433 643 c 0,22,23
 573 643 573 643 673 548 c 128,-1,24
 773 453 773 453 773 315 c 0,25,26
 773 181 773 181 673 90.5 c 128,-1,27
 573 0 573 0 433 0 c 0,28,29
 301 0 301 0 203 80.5 c 128,-1,30
 105 161 105 161 105 281 c 1,0,-1
EndSplineSet
EndChar

StartChar: six
Encoding: 54 54 25
Width: 880
GlyphClass: 2
Flags: W
LayerCount: 2
Fore
SplineSet
111 351 m 2,0,-1
 111 469 l 2,1,2
 111 660 111 660 206 804 c 128,-1,3
 301 948 301 948 464 948 c 0,4,5
 582 948 582 948 666 870.5 c 128,-1,6
 750 793 750 793 750 680 c 1,7,-1
 645 680 l 1,8,9
 645 750 645 750 591.5 797.5 c 128,-1,10
 538 845 538 845 464 845 c 0,11,12
 346 845 346 845 281.5 735 c 128,-1,13
 217 625 217 625 217 479 c 1,14,15
 246 541 246 541 307.5 575.5 c 128,-1,16
 369 610 369 610 439 610 c 0,17,18
 573 610 573 610 671 521.5 c 128,-1,19
 769 433 769 433 769 305 c 0,20,21
 769 172 769 172 672 81 c 128,-1,22
 575 -10 575 -10 439 -10 c 0,23,24
 299 -10 299 -10 205 97.5 c 128,-1,25
 111 205 111 205 111 351 c 2,0,-1
229 293 m 0,26,27
 229 207 229 207 290.5 147.5 c 128,-1,28
 352 88 352 88 439 88 c 0,29,30
 531 88 531 88 595.5 151.5 c 128,-1,31
 660 215 660 215 660 305 c 0,32,33
 660 391 660 391 594.5 450 c 128,-1,34
 529 509 529 509 439 509 c 0,35,36
 351 509 351 509 290 446 c 128,-1,37
 229 383 229 383 229 293 c 0,26,27
EndSplineSet
EndChar

StartChar: seven
Encoding: 55 55 26
Width: 880
GlyphClass: 2
Flags: W
LayerCount: 2
Fore
SplineSet
88 826 m 1,0,-1
 88 930 l 1,1,-1
 791 930 l 1,2,-1
 791 826 l 1,3,4
 610 694 610 694 524.5 475.5 c 128,-1,5
 439 257 439 257 439 0 c 1,6,-1
 311 0 l 1,7,8
 311 248 311 248 395 465 c 128,-1,9
 479 682 479 682 651 826 c 1,10,-1
 88 826 l 1,0,-1
EndSplineSet
EndChar

StartChar: eight
Encoding: 56 56 27
Width: 880
GlyphClass: 2
Flags: W
LayerCount: 2
Fore
SplineSet
88 281 m 0,0,1
 88 361 88 361 133 425.5 c 128,-1,2
 178 490 178 490 252 516 c 1,3,4
 199 546 199 546 167 595.5 c 128,-1,5
 135 645 135 645 135 703 c 0,6,7
 135 812 135 812 226 880 c 128,-1,8
 317 948 317 948 439 948 c 0,9,10
 560 948 560 948 652 880 c 128,-1,11
 744 812 744 812 744 703 c 0,12,13
 744 645 744 645 712 595.5 c 128,-1,14
 680 546 680 546 627 516 c 1,15,16
 701 490 701 490 746 425.5 c 128,-1,17
 791 361 791 361 791 281 c 0,18,19
 791 153 791 153 685.5 71.5 c 128,-1,20
 580 -10 580 -10 439 -10 c 0,21,22
 297 -10 297 -10 192.5 71.5 c 128,-1,23
 88 153 88 153 88 281 c 0,0,1
192 281 m 0,24,25
 192 196 192 196 266 145 c 128,-1,26
 340 94 340 94 439 94 c 256,27,28
 538 94 538 94 612 145 c 128,-1,29
 686 196 686 196 686 281 c 0,30,31
 686 365 686 365 612 411 c 128,-1,32
 538 457 538 457 439 457 c 256,33,34
 340 457 340 457 266 411 c 128,-1,35
 192 365 192 365 192 281 c 0,24,25
240 703 m 256,36,37
 240 636 240 636 299.5 599 c 128,-1,38
 359 562 359 562 439 562 c 0,39,40
 518 562 518 562 578 599 c 128,-1,41
 638 636 638 636 638 703 c 256,42,43
 638 770 638 770 578 807.5 c 128,-1,44
 518 845 518 845 439 845 c 0,45,46
 359 845 359 845 299.5 807.5 c 128,-1,47
 240 770 240 770 240 703 c 256,36,37
EndSplineSet
EndChar

StartChar: nine
Encoding: 57 57 28
Width: 882
GlyphClass: 2
Flags: W
LayerCount: 2
Fore
SplineSet
118 633 m 0,0,1
 118 764 118 764 210.5 856 c 128,-1,2
 303 948 303 948 433 948 c 0,3,4
 575 948 575 948 669.5 840 c 128,-1,5
 764 732 764 732 764 585 c 2,6,-1
 764 469 l 2,7,8
 764 277 764 277 673 133.5 c 128,-1,9
 582 -10 582 -10 422 -10 c 0,10,11
 311 -10 311 -10 232 68 c 128,-1,12
 153 146 153 146 153 257 c 1,13,-1
 257 257 l 1,14,15
 257 189 257 189 304.5 141.5 c 128,-1,16
 352 94 352 94 422 94 c 0,17,18
 532 94 532 94 588.5 198.5 c 128,-1,19
 645 303 645 303 645 446 c 1,20,21
 603 402 603 402 547.5 376.5 c 128,-1,22
 492 351 492 351 433 351 c 0,23,24
 305 351 305 351 211.5 432 c 128,-1,25
 118 513 118 513 118 633 c 0,0,1
224 643 m 0,26,27
 224 560 224 560 286 503 c 128,-1,28
 348 446 348 446 433 446 c 0,29,30
 520 446 520 446 582.5 503 c 128,-1,31
 645 560 645 560 645 643 c 0,32,33
 645 729 645 729 582.5 787 c 128,-1,34
 520 845 520 845 433 845 c 0,35,36
 348 845 348 845 286 787 c 128,-1,37
 224 729 224 729 224 643 c 0,26,27
EndSplineSet
EndChar

StartChar: colon
Encoding: 58 58 29
Width: 461
GlyphClass: 2
Flags: W
LayerCount: 2
Fore
SplineSet
117 535 m 2,0,-1
 117 699 l 2,1,2
 117 717 117 717 142.5 733.5 c 128,-1,3
 168 750 168 750 207 760 c 0,4,5
 256 771 256 771 278.5 776 c 128,-1,6
 301 781 301 781 312 781 c 0,7,8
 326 781 326 781 335 775.5 c 128,-1,9
 344 770 344 770 344 760 c 2,10,-1
 344 617 l 2,11,12
 344 582 344 582 328 556.5 c 128,-1,13
 312 531 312 531 287 523 c 0,14,15
 236 510 236 510 201 502 c 128,-1,16
 166 494 166 494 148 494 c 0,17,18
 135 494 135 494 126 506 c 128,-1,19
 117 518 117 518 117 535 c 2,0,-1
117 41 m 2,20,-1
 117 205 l 2,21,22
 117 223 117 223 142.5 240.5 c 128,-1,23
 168 258 168 258 207 268 c 0,24,25
 246 277 246 277 272.5 282 c 128,-1,26
 299 287 299 287 312 287 c 0,27,28
 326 287 326 287 335 281 c 128,-1,29
 344 275 344 275 344 268 c 2,30,-1
 344 123 l 2,31,32
 344 90 344 90 328 64.5 c 128,-1,33
 312 39 312 39 287 31 c 0,34,35
 230 16 230 16 198 8 c 128,-1,36
 166 0 166 0 148 0 c 0,37,38
 135 0 135 0 126 11.5 c 128,-1,39
 117 23 117 23 117 41 c 2,20,-1
EndSplineSet
EndChar

StartChar: semicolon
Encoding: 59 59 30
Width: 643
GlyphClass: 2
Flags: W
LayerCount: 2
Fore
SplineSet
299 41 m 2,0,-1
 299 205 l 2,1,2
 299 223 299 223 324.5 240.5 c 128,-1,3
 350 258 350 258 389 268 c 0,4,5
 428 277 428 277 454 282 c 128,-1,6
 480 287 480 287 494 287 c 256,7,8
 508 287 508 287 516.5 281 c 128,-1,9
 525 275 525 275 525 268 c 2,10,-1
 525 41 l 2,11,12
 525 -63 525 -63 456 -152.5 c 128,-1,13
 387 -242 387 -242 271 -283 c 1,14,-1
 234 -250 l 1,15,16
 330 -215 330 -215 394.5 -139.5 c 128,-1,17
 459 -64 459 -64 477 33 c 1,18,19
 432 18 432 18 394.5 9 c 128,-1,20
 357 0 357 0 330 0 c 0,21,22
 316 0 316 0 307.5 11.5 c 128,-1,23
 299 23 299 23 299 41 c 2,0,-1
299 535 m 2,24,-1
 299 699 l 2,25,26
 299 717 299 717 324.5 733.5 c 128,-1,27
 350 750 350 750 389 760 c 0,28,29
 437 771 437 771 459.5 776 c 128,-1,30
 482 781 482 781 494 781 c 0,31,32
 508 781 508 781 516.5 775.5 c 128,-1,33
 525 770 525 770 525 760 c 2,34,-1
 525 617 l 2,35,36
 525 582 525 582 509.5 556.5 c 128,-1,37
 494 531 494 531 469 523 c 0,38,39
 418 510 418 510 383 502 c 128,-1,40
 348 494 348 494 330 494 c 0,41,42
 316 494 316 494 307.5 506 c 128,-1,43
 299 518 299 518 299 535 c 2,24,-1
EndSplineSet
EndChar

StartChar: less
Encoding: 60 60 31
Width: 1068
GlyphClass: 2
Flags: W
LayerCount: 2
Fore
SplineSet
732 908 m 1,0,-1
 806 836 l 1,1,-1
 486 516 l 1,2,-1
 804 200 l 1,3,-1
 732 128 l 1,4,-1
 342 516 l 1,5,-1
 732 908 l 1,0,-1
EndSplineSet
EndChar

StartChar: equal
Encoding: 61 61 32
Width: 1016
GlyphClass: 2
Flags: W
LayerCount: 2
Fore
SplineSet
117 145 m 1,0,-1
 117 246 l 1,1,-1
 898 246 l 1,2,-1
 898 145 l 1,3,-1
 117 145 l 1,0,-1
117 535 m 1,4,-1
 117 637 l 1,5,-1
 898 637 l 1,6,-1
 898 535 l 1,7,-1
 117 535 l 1,4,-1
EndSplineSet
EndChar

StartChar: greater
Encoding: 62 62 33
Width: 1068
GlyphClass: 2
Flags: W
LayerCount: 2
Fore
SplineSet
866 516 m 1,0,-1
 476 128 l 1,1,-1
 404 200 l 1,2,-1
 722 516 l 1,3,-1
 402 836 l 1,4,-1
 476 908 l 1,5,-1
 866 516 l 1,0,-1
EndSplineSet
EndChar

StartChar: question
Encoding: 63 63 34
Width: 1092
GlyphClass: 2
Flags: W
LayerCount: 2
Fore
SplineSet
234 822 m 2,0,-1
 234 1008 l 2,1,2
 234 1068 234 1068 365 1130.5 c 128,-1,3
 496 1193 496 1193 625 1193 c 0,4,5
 770 1193 770 1193 872.5 1115 c 128,-1,6
 975 1037 975 1037 975 926 c 0,7,8
 975 805 975 805 922 705 c 128,-1,9
 869 605 869 605 779 553 c 0,10,11
 658 482 658 482 605.5 442 c 128,-1,12
 553 402 553 402 553 369 c 0,13,14
 553 367 553 367 553 363 c 128,-1,15
 553 359 553 359 553 359 c 1,16,-1
 439 316 l 1,17,-1
 439 391 l 2,18,19
 439 439 439 439 489 490 c 128,-1,20
 539 541 539 541 623 578 c 0,21,22
 732 627 732 627 796.5 716 c 128,-1,23
 861 805 861 805 861 904 c 0,24,25
 861 980 861 980 792 1035 c 128,-1,26
 723 1090 723 1090 625 1090 c 0,27,28
 506 1090 506 1090 422 1042 c 128,-1,29
 338 994 338 994 338 926 c 2,30,-1
 338 863 l 2,31,32
 338 812 338 812 370 776 c 128,-1,33
 402 740 402 740 449 740 c 0,34,35
 490 740 490 740 525.5 751 c 128,-1,36
 561 762 561 762 584 781 c 1,37,-1
 584 670 l 1,38,39
 564 654 564 654 527 645.5 c 128,-1,40
 490 637 490 637 439 637 c 0,41,42
 355 637 355 637 294.5 691.5 c 128,-1,43
 234 746 234 746 234 822 c 2,0,-1
420 41 m 2,44,-1
 420 205 l 2,45,46
 420 232 420 232 481.5 259.5 c 128,-1,47
 543 287 543 287 604 287 c 0,48,49
 621 287 621 287 633 281 c 128,-1,50
 645 275 645 275 645 268 c 2,51,-1
 645 82 l 2,52,53
 645 55 645 55 583 27.5 c 128,-1,54
 521 0 521 0 461 0 c 0,55,56
 443 0 443 0 431.5 11.5 c 128,-1,57
 420 23 420 23 420 41 c 2,44,-1
EndSplineSet
EndChar

StartChar: at
Encoding: 64 64 35
Width: 1760
GlyphClass: 2
Flags: W
LayerCount: 2
Fore
SplineSet
936 128 m 1,0,1
 800 -2 800 -2 668 -2 c 0,2,3
 504 -2 504 -2 462 164 c 0,4,5
 450 212 450 212 450 262 c 2,6,-1
 450 314 l 1,7,-1
 458 348 l 2,8,9
 488 476 488 476 575 601 c 128,-1,10
 662 726 662 726 772 786 c 128,-1,11
 882 846 882 846 970 846 c 0,12,13
 1112 846 1112 846 1176 702 c 1,14,-1
 1228 824 l 1,15,-1
 1368 824 l 1,16,-1
 1094 180 l 1,17,18
 1094 160 1094 160 1102 142 c 1,19,20
 1112 132 1112 132 1138 128 c 1,21,22
 1184 128 1184 128 1258 174 c 0,23,24
 1356 236 1356 236 1434 343 c 128,-1,25
 1512 450 1512 450 1532 560 c 2,26,-1
 1540 604 l 1,27,-1
 1542 656 l 2,28,29
 1544 726 1544 726 1518 802 c 0,30,31
 1476 924 1476 924 1338 992 c 0,32,33
 1220 1052 1220 1052 1078 1052 c 0,34,35
 786 1052 786 1052 567 861 c 128,-1,36
 348 670 348 670 284 380 c 0,37,38
 266 298 266 298 266 224 c 0,39,40
 266 -50 266 -50 492 -154 c 0,41,42
 636 -220 636 -220 828 -220 c 0,43,44
 1204 -220 1204 -220 1428 14 c 1,45,-1
 1568 14 l 1,46,47
 1444 -182 1444 -182 1138 -286 c 0,48,49
 992 -336 992 -336 804 -336 c 0,50,51
 448 -336 448 -336 278 -162 c 0,52,53
 146 -26 146 -26 146 196 c 0,54,55
 146 464 146 464 320 730 c 0,56,57
 454 936 454 936 661 1051 c 128,-1,58
 868 1166 868 1166 1110 1166 c 0,59,60
 1524 1166 1524 1166 1634 852 c 0,61,62
 1662 770 1662 770 1660 686 c 2,63,-1
 1658 624 l 1,64,-1
 1646 556 l 2,65,66
 1608 342 1608 342 1402 156 c 0,67,68
 1224 -4 1224 -4 1058 -4 c 2,69,-1
 1036 -4 l 1,70,-1
 1006 0 l 2,71,72
 960 6 960 6 934 60 c 1,73,-1
 932 86 l 1,74,-1
 936 128 l 1,0,1
602 340 m 2,75,-1
 596 302 l 1,76,-1
 594 264 l 2,77,78
 590 202 590 202 625 158 c 128,-1,79
 660 114 660 114 720 114 c 0,80,81
 844 114 844 114 926 218 c 1,82,83
 978 258 978 258 1028 350 c 0,84,85
 1076 436 1076 436 1088 508 c 2,86,-1
 1094 542 l 1,87,-1
 1096 578 l 2,88,89
 1100 642 1100 642 1060 687 c 128,-1,90
 1020 732 1020 732 956 732 c 0,91,92
 800 732 800 732 660 490 c 0,93,94
 612 408 612 408 602 340 c 2,75,-1
EndSplineSet
EndChar

StartChar: bracketleft
Encoding: 91 91 36
Width: 556
GlyphClass: 2
Flags: W
LayerCount: 2
Fore
SplineSet
50 -398 m 1,0,-1
 442 1432 l 1,1,-1
 830 1432 l 1,2,-1
 798 1286 l 1,3,-1
 586 1286 l 1,4,-1
 258 -252 l 1,5,-1
 470 -252 l 1,6,-1
 438 -398 l 1,7,-1
 50 -398 l 1,0,-1
EndSplineSet
EndChar

StartChar: backslash
Encoding: 92 92 37
Width: 556
GlyphClass: 2
Flags: W
LayerCount: 2
Fore
SplineSet
416 -24 m 1,0,-1
 0 1456 l 1,1,-1
 142 1456 l 1,2,-1
 556 -24 l 1,3,-1
 416 -24 l 1,0,-1
EndSplineSet
EndChar

StartChar: bracketright
Encoding: 93 93 38
Width: 556
GlyphClass: 2
Flags: W
LayerCount: 2
Fore
SplineSet
340 -398 m 1,0,-1
 -48 -398 l 1,1,-1
 -16 -252 l 1,2,-1
 196 -252 l 1,3,-1
 524 1286 l 1,4,-1
 312 1286 l 1,5,-1
 344 1432 l 1,6,-1
 732 1432 l 1,7,-1
 340 -398 l 1,0,-1
EndSplineSet
EndChar

StartChar: asciicircum
Encoding: 94 94 39
Width: 938
GlyphClass: 2
Flags: W
LayerCount: 2
Fore
SplineSet
234 674 m 1,0,-1
 52 674 l 1,1,-1
 398 1456 l 1,2,-1
 540 1456 l 1,3,-1
 886 674 l 1,4,-1
 708 674 l 1,5,-1
 468 1256 l 1,6,-1
 234 674 l 1,0,-1
EndSplineSet
EndChar

StartChar: underscore
Encoding: 95 95 40
Width: 1112
GlyphClass: 2
Flags: W
LayerCount: 2
Fore
SplineSet
-30 -398 m 1,0,-1
 -30 -270 l 1,1,-1
 1134 -270 l 1,2,-1
 1134 -398 l 1,3,-1
 -30 -398 l 1,0,-1
EndSplineSet
EndChar

StartChar: grave
Encoding: 96 96 41
Width: 666
GlyphClass: 2
Flags: W
LayerCount: 2
Fore
SplineSet
454 1166 m 1,0,-1
 312 1166 l 1,1,-1
 86 1440 l 1,2,-1
 322 1440 l 1,3,-1
 454 1166 l 1,0,-1
EndSplineSet
EndChar

StartChar: braceleft
Encoding: 123 123 42
Width: 668
GlyphClass: 2
Flags: W
LayerCount: 2
Fore
SplineSet
184 598 m 1,0,1
 336 598 336 598 400 744 c 1,2,-1
 434 854 l 1,3,-1
 466 974 l 2,4,5
 480 1042 480 1042 520 1202 c 0,6,7
 550 1312 550 1312 650 1396 c 0,8,9
 686 1426 686 1426 756 1446 c 1,10,-1
 804 1454 l 1,11,-1
 878 1456 l 1,12,-1
 934 1456 l 1,13,-1
 900 1302 l 1,14,-1
 868 1302 l 2,15,16
 770 1302 770 1302 724 1264 c 0,17,18
 690 1236 690 1236 658 1102 c 2,19,-1
 644 1042 l 1,20,-1
 614 898 l 1,21,-1
 596 824 l 2,22,23
 590 800 590 800 578 780 c 0,24,25
 536 676 536 676 484 623 c 128,-1,26
 432 570 432 570 328 518 c 1,27,28
 468 460 468 460 468 296 c 0,29,30
 468 244 468 244 438 78 c 2,31,-1
 392 -178 l 1,32,33
 392 -220 392 -220 414 -242 c 1,34,-1
 450 -258 l 1,35,36
 486 -268 486 -268 532 -268 c 2,37,-1
 564 -268 l 1,38,-1
 532 -420 l 1,39,-1
 476 -420 l 2,40,41
 378 -420 378 -420 342 -406 c 0,42,43
 292 -386 292 -386 256 -334 c 1,44,-1
 234 -278 l 1,45,-1
 226 -206 l 1,46,47
 226 -160 226 -160 244 -72 c 2,48,-1
 268 46 l 1,49,-1
 296 194 l 1,50,-1
 304 290 l 2,51,52
 310 352 310 352 264 398 c 1,53,54
 214 438 214 438 150 438 c 1,55,-1
 184 598 l 1,0,1
EndSplineSet
EndChar

StartChar: bar
Encoding: 124 124 43
Width: 520
GlyphClass: 2
Flags: W
LayerCount: 2
Fore
SplineSet
184 -420 m 1,0,-1
 184 1456 l 1,1,-1
 336 1456 l 1,2,-1
 336 -420 l 1,3,-1
 184 -420 l 1,0,-1
EndSplineSet
EndChar

StartChar: braceright
Encoding: 125 125 44
Width: 668
GlyphClass: 2
Flags: W
LayerCount: 2
Fore
SplineSet
740 598 m 1,0,-1
 706 438 l 1,1,2
 632 438 632 438 570 398 c 128,-1,3
 508 358 508 358 486 290 c 2,4,-1
 456 200 l 1,5,-1
 372 -154 l 2,6,7
 354 -230 354 -230 310 -282 c 2,8,-1
 274 -324 l 1,9,-1
 234 -364 l 1,10,-1
 194 -386 l 1,11,-1
 134 -410 l 1,12,-1
 86 -418 l 1,13,-1
 10 -420 l 1,14,-1
 -44 -420 l 1,15,-1
 -12 -268 l 1,16,-1
 18 -268 l 2,17,18
 116 -268 116 -268 159 -231 c 128,-1,19
 202 -194 202 -194 230 -66 c 2,20,-1
 272 124 l 1,21,-1
 304 244 l 2,22,23
 354 432 354 432 558 518 c 1,24,25
 460 566 460 566 432 656 c 0,26,27
 422 688 422 688 422 748 c 0,28,29
 422 838 422 838 448 958 c 2,30,-1
 474 1078 l 1,31,-1
 486 1142 l 1,32,-1
 496 1212 l 1,33,-1
 496 1222 l 2,34,35
 496 1302 496 1302 354 1302 c 2,36,-1
 324 1302 l 1,37,-1
 358 1456 l 1,38,-1
 412 1456 l 2,39,40
 584 1456 584 1456 634 1370 c 0,41,42
 660 1326 660 1326 660 1240 c 1,43,-1
 650 1138 l 1,44,-1
 592 834 l 1,45,-1
 582 742 l 1,46,47
 582 686 582 686 624 638 c 1,48,49
 646 620 646 620 674 608 c 1,50,-1
 704 600 l 1,51,-1
 740 598 l 1,0,-1
EndSplineSet
EndChar

StartChar: asciitilde
Encoding: 126 126 45
Width: 1168
GlyphClass: 2
Flags: W
LayerCount: 2
Fore
SplineSet
84 544 m 1,0,-1
 84 744 l 1,1,2
 190 862 190 862 356 862 c 0,3,4
 402 862 402 862 480 844 c 1,5,6
 526 826 526 826 664 776 c 2,7,-1
 764 740 l 1,8,-1
 806 730 l 1,9,-1
 832 730 l 2,10,11
 950 730 950 730 1084 864 c 1,12,-1
 1084 658 l 1,13,14
 1024 604 1024 604 960 572 c 1,15,16
 876 544 876 544 814 546 c 2,17,-1
 758 548 l 1,18,-1
 726 548 l 1,19,20
 718 552 718 552 704 556 c 0,21,22
 662 568 662 568 524 628 c 0,23,24
 414 676 414 676 340 676 c 0,25,26
 276 676 276 676 222 650 c 1,27,-1
 162 612 l 1,28,-1
 136 592 l 1,29,-1
 84 544 l 1,0,-1
EndSplineSet
EndChar

StartChar: cent
Encoding: 162 162 46
Width: 721
GlyphClass: 2
Flags: W
LayerCount: 2
Fore
SplineSet
598 156 m 1,0,1
 537 71 537 71 467 31 c 128,-1,2
 397 -9 397 -9 304 -17 c 1,3,-1
 228 -265 l 1,4,-1
 187 -265 l 1,5,-1
 262 -17 l 1,6,7
 177 -8 177 -8 128.5 47 c 128,-1,8
 80 102 80 102 80 188 c 0,9,10
 80 345 80 345 191.5 478.5 c 128,-1,11
 303 612 303 612 457 638 c 1,12,-1
 541 917 l 1,13,-1
 580 917 l 1,14,-1
 499 638 l 1,15,16
 580 638 580 638 616.5 607 c 128,-1,17
 653 576 653 576 653 523 c 0,18,19
 653 482 653 482 631.5 455.5 c 128,-1,20
 610 429 610 429 580 429 c 0,21,22
 557 429 557 429 544 442 c 128,-1,23
 531 455 531 455 531 476 c 0,24,25
 531 491 531 491 536 502 c 128,-1,26
 541 513 541 513 560.5 534.5 c 128,-1,27
 580 556 580 556 580 570 c 0,28,29
 580 578 580 578 575 585 c 0,30,31
 565 596 565 596 549.5 601 c 128,-1,32
 534 606 534 606 489 606 c 1,33,-1
 322 49 l 1,34,-1
 352 47 l 1,35,36
 470 47 470 47 580 173 c 1,37,-1
 598 156 l 1,0,1
284 57 m 1,38,-1
 445 598 l 1,39,40
 383 570 383 570 342 533 c 0,41,42
 274 467 274 467 237 380.5 c 128,-1,43
 200 294 200 294 200 205 c 0,44,45
 200 146 200 146 224 108 c 0,46,47
 243 81 243 81 284 57 c 1,38,-1
EndSplineSet
EndChar

StartChar: multiply
Encoding: 215 215 47
Width: 975
GlyphClass: 2
Flags: W
LayerCount: 2
Fore
SplineSet
267 230 m 1,0,-1
 515 479 l 1,1,-1
 267 728 l 1,2,-1
 308 768 l 1,3,-1
 556 520 l 1,4,-1
 805 768 l 1,5,-1
 844 728 l 1,6,-1
 595 480 l 1,7,-1
 845 230 l 1,8,-1
 805 190 l 1,9,-1
 555 439 l 1,10,-1
 307 190 l 1,11,-1
 267 230 l 1,0,-1
EndSplineSet
EndChar

StartChar: divide
Encoding: 247 247 48
Width: 1055
GlyphClass: 2
Flags: W
LayerCount: 2
Fore
SplineSet
432 92 m 0,0,1
 432 131 432 131 459 158.5 c 128,-1,2
 486 186 486 186 525 186 c 0,3,4
 562 186 562 186 589.5 161.5 c 128,-1,5
 617 137 617 137 617 104 c 0,6,7
 617 64 617 64 592.5 37 c 128,-1,8
 568 10 568 10 535 10 c 0,9,10
 492 10 492 10 462 34.5 c 128,-1,11
 432 59 432 59 432 92 c 0,0,1
117 348 m 1,12,-1
 117 434 l 1,13,-1
 937 434 l 1,14,-1
 937 348 l 1,15,-1
 117 348 l 1,12,-1
432 678 m 0,16,17
 432 717 432 717 459 744 c 128,-1,18
 486 771 486 771 525 771 c 0,19,20
 562 771 562 771 589.5 747 c 128,-1,21
 617 723 617 723 617 689 c 0,22,23
 617 650 617 650 592.5 623 c 128,-1,24
 568 596 568 596 535 596 c 0,25,26
 492 596 492 596 462 620.5 c 128,-1,27
 432 645 432 645 432 678 c 0,16,17
EndSplineSet
EndChar

StartChar: tm_visarga
Encoding: 2947 2947 49
Width: 1379
GlyphClass: 2
Flags: W
LayerCount: 2
Fore
SplineSet
59 123 m 2,0,-1
 59 350 l 2,1,2
 59 391 59 391 154.5 432 c 128,-1,3
 250 473 250 473 346 473 c 0,4,5
 406 473 406 473 448 442.5 c 128,-1,6
 490 412 490 412 490 369 c 2,7,-1
 490 145 l 2,8,9
 490 98 490 98 394.5 49 c 128,-1,10
 299 0 299 0 203 0 c 0,11,12
 143 0 143 0 101 36 c 128,-1,13
 59 72 59 72 59 123 c 2,0,-1
162 186 m 2,14,15
 162 152 162 152 186.5 128 c 128,-1,16
 211 104 211 104 244 104 c 0,17,18
 291 104 291 104 339 131 c 128,-1,19
 387 158 387 158 387 186 c 2,20,-1
 387 309 l 2,21,22
 387 334 387 334 362.5 351.5 c 128,-1,23
 338 369 338 369 305 369 c 0,24,25
 258 369 258 369 210 341.5 c 128,-1,26
 162 314 162 314 162 287 c 2,27,-1
 162 186 l 2,14,15
891 123 m 2,28,-1
 891 350 l 2,29,30
 891 391 891 391 987.5 432 c 128,-1,31
 1084 473 1084 473 1180 473 c 0,32,33
 1238 473 1238 473 1280 442.5 c 128,-1,34
 1322 412 1322 412 1322 369 c 2,35,-1
 1322 145 l 2,36,37
 1322 98 1322 98 1226.5 49 c 128,-1,38
 1131 0 1131 0 1035 0 c 0,39,40
 975 0 975 0 933 36 c 128,-1,41
 891 72 891 72 891 123 c 2,28,-1
994 186 m 2,42,43
 994 152 994 152 1018.5 128 c 128,-1,44
 1043 104 1043 104 1076 104 c 0,45,46
 1123 104 1123 104 1172 131 c 128,-1,47
 1221 158 1221 158 1221 186 c 2,48,-1
 1221 309 l 2,49,50
 1221 334 1221 334 1196.5 351.5 c 128,-1,51
 1172 369 1172 369 1139 369 c 0,52,53
 1092 369 1092 369 1043 341.5 c 128,-1,54
 994 314 994 314 994 287 c 2,55,-1
 994 186 l 2,42,43
475 951 m 2,56,-1
 475 1178 l 2,57,58
 475 1219 475 1219 571.5 1260 c 128,-1,59
 668 1301 668 1301 764 1301 c 0,60,61
 822 1301 822 1301 864 1270.5 c 128,-1,62
 906 1240 906 1240 906 1197 c 2,63,-1
 906 971 l 2,64,65
 906 924 906 924 810.5 876 c 128,-1,66
 715 828 715 828 619 828 c 0,67,68
 559 828 559 828 517 864 c 128,-1,69
 475 900 475 900 475 951 c 2,56,-1
578 1012 m 2,70,71
 578 979 578 979 602.5 954.5 c 128,-1,72
 627 930 627 930 660 930 c 0,73,74
 707 930 707 930 756 957 c 128,-1,75
 805 984 805 984 805 1012 c 2,76,-1
 805 1137 l 2,77,78
 805 1162 805 1162 780.5 1179.5 c 128,-1,79
 756 1197 756 1197 721 1197 c 0,80,81
 674 1197 674 1197 626 1170 c 128,-1,82
 578 1143 578 1143 578 1115 c 2,83,-1
 578 1012 l 2,70,71
EndSplineSet
EndChar

StartChar: tm_a
Encoding: 2949 2949 50
Width: 1562
GlyphClass: 2
Flags: W
LayerCount: 2
Fore
SplineSet
47 104 m 0,0,1
 47 223 47 223 95 307 c 128,-1,2
 143 391 143 391 211 391 c 2,3,-1
 971 391 l 1,4,-1
 971 543 l 1,5,6
 943 520 943 520 917 507 c 128,-1,7
 891 494 891 494 869 494 c 2,8,-1
 623 494 l 2,9,10
 555 494 555 494 506 542 c 128,-1,11
 457 590 457 590 457 658 c 0,12,13
 457 742 457 742 535 802.5 c 128,-1,14
 613 863 613 863 725 863 c 0,15,16
 869 863 869 863 971.5 767.5 c 128,-1,17
 1074 672 1074 672 1074 535 c 2,18,-1
 1074 391 l 1,19,-1
 1342 391 l 1,20,-1
 1342 781 l 1,21,-1
 1445 781 l 1,22,-1
 1445 0 l 1,23,-1
 1342 0 l 1,24,-1
 1342 287 l 1,25,-1
 1070 287 l 1,26,27
 1037 100 1037 100 858.5 -22.5 c 128,-1,28
 680 -145 680 -145 437 -145 c 2,29,-1
 293 -145 l 2,30,31
 191 -145 191 -145 119 -72.5 c 128,-1,32
 47 0 47 0 47 104 c 0,0,1
148 104 m 0,33,34
 148 43 148 43 190 1 c 128,-1,35
 232 -41 232 -41 293 -41 c 2,36,-1
 437 -41 l 2,37,38
 641 -41 641 -41 789 52 c 128,-1,39
 937 145 937 145 963 287 c 1,40,-1
 273 287 l 2,41,42
 221 287 221 287 184.5 233.5 c 128,-1,43
 148 180 148 180 148 104 c 0,33,34
561 658 m 0,44,45
 561 633 561 633 585 614.5 c 128,-1,46
 609 596 609 596 643 596 c 2,47,-1
 848 596 l 2,48,49
 881 596 881 596 910 613.5 c 128,-1,50
 939 631 939 631 957 660 c 1,51,52
 918 707 918 707 873 733.5 c 128,-1,53
 828 760 828 760 787 760 c 2,54,-1
 664 760 l 2,55,56
 621 760 621 760 591 730.5 c 128,-1,57
 561 701 561 701 561 658 c 0,44,45
EndSplineSet
EndChar

StartChar: tm_aa
Encoding: 2950 2950 51
Width: 1789
GlyphClass: 2
Flags: W
LayerCount: 2
Fore
SplineSet
43 104 m 0,0,1
 43 223 43 223 108.5 307 c 128,-1,2
 174 391 174 391 266 391 c 2,3,-1
 967 391 l 1,4,-1
 967 543 l 1,5,6
 939 520 939 520 913 507 c 128,-1,7
 887 494 887 494 865 494 c 2,8,-1
 619 494 l 2,9,10
 551 494 551 494 502 542 c 128,-1,11
 453 590 453 590 453 658 c 0,12,13
 453 742 453 742 531 802.5 c 128,-1,14
 609 863 609 863 721 863 c 0,15,16
 865 863 865 863 967.5 767.5 c 128,-1,17
 1070 672 1070 672 1070 535 c 2,18,-1
 1070 391 l 1,19,-1
 1338 391 l 1,20,-1
 1338 781 l 1,21,-1
 1441 781 l 1,22,-1
 1441 146 l 1,23,24
 1465 166 1465 166 1485.5 176 c 128,-1,25
 1506 186 1506 186 1523 186 c 2,26,-1
 1666 186 l 2,27,28
 1727 186 1727 186 1759 47 c 128,-1,29
 1791 -92 1791 -92 1791 -309 c 0,30,31
 1791 -436 1791 -436 1723.5 -526.5 c 128,-1,32
 1656 -617 1656 -617 1562 -617 c 2,33,-1
 209 -617 l 2,34,35
 139 -617 139 -617 89 -569 c 128,-1,36
 39 -521 39 -521 39 -455 c 0,37,38
 39 -369 39 -369 118 -307.5 c 128,-1,39
 197 -246 197 -246 311 -246 c 2,40,-1
 1107 -246 l 1,41,-1
 1107 -350 l 1,42,-1
 307 -350 l 2,43,44
 246 -350 246 -350 204 -380 c 128,-1,45
 162 -410 162 -410 162 -453 c 0,46,47
 162 -479 162 -479 179.5 -496.5 c 128,-1,48
 197 -514 197 -514 223 -514 c 2,49,-1
 1564 -514 l 2,50,51
 1615 -514 1615 -514 1651 -453.5 c 128,-1,52
 1687 -393 1687 -393 1687 -309 c 0,53,54
 1687 -141 1687 -141 1660 -29.5 c 128,-1,55
 1633 82 1633 82 1584 82 c 2,56,-1
 1523 82 l 2,57,58
 1490 82 1490 82 1465.5 57.5 c 128,-1,59
 1441 33 1441 33 1441 0 c 2,60,-1
 1441 -205 l 1,61,-1
 1338 -205 l 1,62,-1
 1338 287 l 1,63,-1
 1066 287 l 1,64,65
 1033 100 1033 100 854.5 -22.5 c 128,-1,66
 676 -145 676 -145 434 -145 c 2,67,-1
 289 -145 l 2,68,69
 187 -145 187 -145 115 -72.5 c 128,-1,70
 43 0 43 0 43 104 c 0,0,1
145 104 m 0,71,72
 145 43 145 43 187 1 c 128,-1,73
 229 -41 229 -41 289 -41 c 2,74,-1
 434 -41 l 2,75,76
 637 -41 637 -41 785.5 52 c 128,-1,77
 934 145 934 145 959 287 c 1,78,-1
 270 287 l 2,79,80
 217 287 217 287 181 233.5 c 128,-1,81
 145 180 145 180 145 104 c 0,71,72
557 658 m 0,82,83
 557 633 557 633 581 614.5 c 128,-1,84
 605 596 605 596 639 596 c 2,85,-1
 844 596 l 2,86,87
 877 596 877 596 906.5 613.5 c 128,-1,88
 936 631 936 631 953 660 c 1,89,90
 914 707 914 707 869 733.5 c 128,-1,91
 824 760 824 760 783 760 c 2,92,-1
 660 760 l 2,93,94
 617 760 617 760 587 730.5 c 128,-1,95
 557 701 557 701 557 658 c 0,82,83
EndSplineSet
EndChar

StartChar: tm_i
Encoding: 2951 2951 52
Width: 1738
GlyphClass: 2
Flags: W
LayerCount: 2
Fore
SplineSet
14 -453 m 2,0,-1
 14 -21 l 2,1,2
 14 55 14 55 80 109.5 c 128,-1,3
 146 164 146 164 240 164 c 2,4,-1
 301 164 l 1,5,6
 291 182 291 182 286 207 c 128,-1,7
 281 232 281 232 281 268 c 2,8,-1
 281 904 l 2,9,10
 281 1000 281 1000 508.5 1096.5 c 128,-1,11
 736 1193 736 1193 961 1193 c 0,12,13
 1158 1193 1158 1193 1357.5 1124 c 128,-1,14
 1557 1055 1557 1055 1557 986 c 2,15,-1
 1557 473 l 1,16,-1
 1453 473 l 1,17,-1
 1453 945 l 2,18,19
 1453 992 1453 992 1288 1041 c 128,-1,20
 1123 1090 1123 1090 961 1090 c 0,21,22
 771 1090 771 1090 578 1027.5 c 128,-1,23
 385 965 385 965 385 904 c 2,24,-1
 385 268 l 2,25,26
 385 242 385 242 392.5 215.5 c 128,-1,27
 400 189 400 189 414 164 c 1,28,-1
 1186 164 l 1,29,-1
 1186 576 l 2,30,31
 1186 619 1186 619 1144 650.5 c 128,-1,32
 1102 682 1102 682 1043 682 c 1,33,-1
 1043 432 l 2,34,35
 1043 371 1043 371 976.5 329 c 128,-1,36
 910 287 910 287 816 287 c 0,37,38
 715 287 715 287 642.5 329 c 128,-1,39
 570 371 570 371 570 432 c 2,40,-1
 570 658 l 2,41,42
 570 699 570 699 701 740 c 128,-1,43
 832 781 832 781 961 781 c 0,44,45
 1068 781 1068 781 1178.5 740 c 128,-1,46
 1289 699 1289 699 1289 658 c 2,47,-1
 1289 164 l 1,48,-1
 1576 164 l 2,49,50
 1637 164 1637 164 1679 109.5 c 128,-1,51
 1721 55 1721 55 1721 -21 c 2,52,-1
 1721 -123 l 2,53,54
 1721 -328 1721 -328 1588 -472.5 c 128,-1,55
 1455 -617 1455 -617 1268 -617 c 0,56,57
 1143 -617 1143 -617 1021.5 -585 c 128,-1,58
 900 -553 900 -553 795 -492 c 1,59,60
 689 -553 689 -553 553.5 -585 c 128,-1,61
 418 -617 418 -617 262 -617 c 0,62,63
 158 -617 158 -617 86 -569 c 128,-1,64
 14 -521 14 -521 14 -453 c 2,0,-1
117 -432 m 2,65,66
 117 -465 117 -465 147.5 -489.5 c 128,-1,67
 178 -514 178 -514 221 -514 c 0,68,69
 369 -514 369 -514 484.5 -488.5 c 128,-1,70
 600 -463 600 -463 670 -416 c 1,71,72
 561 -352 561 -352 469 -228.5 c 128,-1,73
 377 -105 377 -105 316 62 c 1,74,-1
 240 62 l 2,75,76
 189 62 189 62 153 26 c 128,-1,77
 117 -10 117 -10 117 -63 c 2,78,-1
 117 -432 l 2,65,66
434 62 m 1,79,80
 508 -90 508 -90 602.5 -201.5 c 128,-1,81
 697 -313 697 -313 805 -375 c 1,82,83
 979 -313 979 -313 1084 -192.5 c 128,-1,84
 1189 -72 1189 -72 1189 62 c 1,85,-1
 434 62 l 1,79,80
672 473 m 2,86,87
 672 439 672 439 714 415 c 128,-1,88
 756 391 756 391 816 391 c 0,89,90
 867 391 867 391 903 421 c 128,-1,91
 939 451 939 451 939 494 c 2,92,-1
 939 680 l 1,93,94
 828 680 828 680 750 643.5 c 128,-1,95
 672 607 672 607 672 555 c 2,96,-1
 672 473 l 2,86,87
922 -428 m 1,97,98
 994 -471 994 -471 1077 -492.5 c 128,-1,99
 1160 -514 1160 -514 1248 -514 c 0,100,101
 1393 -514 1393 -514 1495.5 -382 c 128,-1,102
 1598 -250 1598 -250 1598 -63 c 0,103,104
 1598 -10 1598 -10 1567.5 26 c 128,-1,105
 1537 62 1537 62 1494 62 c 2,106,-1
 1291 62 l 1,107,108
 1291 -98 1291 -98 1189.5 -232.5 c 128,-1,109
 1088 -367 1088 -367 922 -428 c 1,97,98
EndSplineSet
EndChar

StartChar: tm_ii
Encoding: 2952 2952 53
Width: 1045
GlyphClass: 2
Flags: W
LayerCount: 2
Fore
SplineSet
78 0 m 1,0,-1
 117 531 l 1,1,2
 131 656 131 656 290 739 c 128,-1,3
 449 822 449 822 672 822 c 0,4,5
 812 822 812 822 896 815.5 c 128,-1,6
 980 809 980 809 1021 795 c 1,7,-1
 1021 687 l 1,8,9
 988 707 988 707 915 713 c 128,-1,10
 842 719 842 719 693 719 c 1,11,-1
 693 0 l 1,12,-1
 590 0 l 1,13,-1
 590 721 l 1,14,15
 437 721 437 721 331 669 c 128,-1,16
 225 617 225 617 219 541 c 2,17,-1
 180 0 l 1,18,-1
 78 0 l 1,0,-1
322 328 m 2,19,-1
 322 453 l 2,20,21
 322 461 322 461 328 467 c 128,-1,22
 334 473 334 473 344 473 c 2,23,-1
 467 473 l 2,24,25
 475 473 475 473 480.5 467 c 128,-1,26
 486 461 486 461 486 453 c 2,27,-1
 486 328 l 2,28,29
 486 320 486 320 480.5 314.5 c 128,-1,30
 475 309 475 309 467 309 c 2,31,-1
 344 309 l 2,32,33
 334 309 334 309 328 314.5 c 128,-1,34
 322 320 322 320 322 328 c 2,19,-1
795 328 m 2,35,-1
 795 453 l 2,36,37
 795 461 795 461 801 467 c 128,-1,38
 807 473 807 473 816 473 c 2,39,-1
 939 473 l 2,40,41
 947 473 947 473 953 467 c 128,-1,42
 959 461 959 461 959 453 c 2,43,-1
 959 328 l 2,44,45
 959 320 959 320 953 314.5 c 128,-1,46
 947 309 947 309 939 309 c 2,47,-1
 816 309 l 2,48,49
 807 309 807 309 801 314.5 c 128,-1,50
 795 320 795 320 795 328 c 2,35,-1
EndSplineSet
EndChar

StartChar: tm_u
Encoding: 2953 2953 54
Width: 1299
GlyphClass: 2
Flags: W
LayerCount: 2
Fore
SplineSet
92 82 m 2,0,-1
 92 287 l 2,1,2
 92 320 92 320 116.5 344.5 c 128,-1,3
 141 369 141 369 174 369 c 2,4,-1
 482 369 l 2,5,6
 516 369 516 369 540 393.5 c 128,-1,7
 564 418 564 418 564 453 c 2,8,-1
 564 562 l 1,9,10
 537 529 537 529 509.5 511.5 c 128,-1,11
 482 494 482 494 461 494 c 2,12,-1
 174 494 l 2,13,14
 141 494 141 494 116.5 511.5 c 128,-1,15
 92 529 92 529 92 555 c 2,16,-1
 92 719 l 2,17,18
 92 779 92 779 187.5 821 c 128,-1,19
 283 863 283 863 420 863 c 0,20,21
 523 863 523 863 595.5 785 c 128,-1,22
 668 707 668 707 668 596 c 2,23,-1
 668 391 l 2,24,25
 668 340 668 340 632 304 c 128,-1,26
 596 268 596 268 543 268 c 2,27,-1
 277 268 l 2,28,29
 242 268 242 268 217.5 243.5 c 128,-1,30
 193 219 193 219 193 186 c 0,31,32
 193 152 193 152 217.5 128 c 128,-1,33
 242 104 242 104 277 104 c 2,34,-1
 1283 104 l 1,35,-1
 1283 0 l 1,36,-1
 193 0 l 2,37,38
 150 0 150 0 121 24.5 c 128,-1,39
 92 49 92 49 92 82 c 2,0,-1
193 658 m 0,40,41
 193 633 193 633 217.5 614.5 c 128,-1,42
 242 596 242 596 277 596 c 2,43,-1
 441 596 l 2,44,45
 469 596 469 596 496 611.5 c 128,-1,46
 523 627 523 627 547 654 c 1,47,48
 539 699 539 699 491 729.5 c 128,-1,49
 443 760 443 760 379 760 c 0,50,51
 303 760 303 760 248 730.5 c 128,-1,52
 193 701 193 701 193 658 c 0,40,41
EndSplineSet
EndChar

StartChar: tm_uu
Encoding: 2954 2954 55
Width: 2203
GlyphClass: 2
Flags: W
LayerCount: 2
Fore
SplineSet
92 82 m 2,0,-1
 92 287 l 2,1,2
 92 320 92 320 116.5 344.5 c 128,-1,3
 141 369 141 369 174 369 c 2,4,-1
 482 369 l 2,5,6
 516 369 516 369 540 393.5 c 128,-1,7
 564 418 564 418 564 453 c 2,8,-1
 564 562 l 1,9,10
 537 529 537 529 509.5 511.5 c 128,-1,11
 482 494 482 494 461 494 c 2,12,-1
 174 494 l 2,13,14
 141 494 141 494 116.5 511.5 c 128,-1,15
 92 529 92 529 92 555 c 2,16,-1
 92 719 l 2,17,18
 92 779 92 779 187.5 821 c 128,-1,19
 283 863 283 863 420 863 c 0,20,21
 523 863 523 863 595.5 785 c 128,-1,22
 668 707 668 707 668 596 c 2,23,-1
 668 391 l 2,24,25
 668 340 668 340 632 304 c 128,-1,26
 596 268 596 268 543 268 c 2,27,-1
 277 268 l 2,28,29
 242 268 242 268 217.5 243.5 c 128,-1,30
 193 219 193 219 193 186 c 0,31,32
 193 152 193 152 217.5 128 c 128,-1,33
 242 104 242 104 277 104 c 2,34,-1
 2105 104 l 1,35,-1
 2105 0 l 1,36,-1
 193 0 l 2,37,38
 150 0 150 0 121 24.5 c 128,-1,39
 92 49 92 49 92 82 c 2,0,-1
193 658 m 0,40,41
 193 633 193 633 217.5 614.5 c 128,-1,42
 242 596 242 596 277 596 c 2,43,-1
 441 596 l 2,44,45
 469 596 469 596 496 611.5 c 128,-1,46
 523 627 523 627 547 654 c 1,47,48
 539 699 539 699 491 729.5 c 128,-1,49
 443 760 443 760 379 760 c 0,50,51
 303 760 303 760 248 730.5 c 128,-1,52
 193 701 193 701 193 658 c 0,40,41
832 328 m 2,53,-1
 832 432 l 2,54,55
 832 586 832 586 940.5 694.5 c 128,-1,56
 1049 803 1049 803 1201 803 c 0,57,58
 1332 803 1332 803 1425 783.5 c 128,-1,59
 1518 764 1518 764 1561 729 c 1,60,61
 1641 775 1641 775 1732.5 798.5 c 128,-1,62
 1824 822 1824 822 1922 822 c 0,63,64
 2023 822 2023 822 2090.5 813.5 c 128,-1,65
 2158 805 2158 805 2187 787 c 1,66,-1
 2187 689 l 1,67,68
 2162 703 2162 703 2105.5 711 c 128,-1,69
 2049 719 2049 719 1963 719 c 1,70,-1
 1963 227 l 1,71,-1
 1859 227 l 1,72,-1
 1859 715 l 1,73,74
 1742 693 1742 693 1665 632.5 c 128,-1,75
 1588 572 1588 572 1582 498 c 2,76,-1
 1553 227 l 1,77,-1
 1451 227 l 1,78,-1
 1469 598 l 2,79,80
 1473 639 1473 639 1424 669 c 128,-1,81
 1375 699 1375 699 1305 699 c 2,82,-1
 1184 699 l 1,83,84
 1221 668 1221 668 1242.5 636 c 128,-1,85
 1264 604 1264 604 1264 576 c 2,86,-1
 1264 369 l 2,87,88
 1264 311 1264 311 1209 269 c 128,-1,89
 1154 227 1154 227 1078 227 c 2,90,-1
 934 227 l 2,91,92
 891 227 891 227 861.5 256 c 128,-1,93
 832 285 832 285 832 328 c 2,53,-1
934 453 m 0,94,95
 934 400 934 400 961 364 c 128,-1,96
 988 328 988 328 1027 328 c 0,97,98
 1082 328 1082 328 1121 382.5 c 128,-1,99
 1160 437 1160 437 1160 514 c 0,100,101
 1160 557 1160 557 1127 587 c 128,-1,102
 1094 617 1094 617 1047 617 c 2,103,-1
 986 617 l 1,104,105
 961 586 961 586 947.5 544 c 128,-1,106
 934 502 934 502 934 453 c 0,94,95
EndSplineSet
EndChar

StartChar: tm_e
Encoding: 2958 2958 56
Width: 1078
GlyphClass: 2
Flags: W
LayerCount: 2
Fore
SplineSet
92 82 m 2,0,-1
 92 432 l 2,1,2
 92 576 92 576 187.5 678.5 c 128,-1,3
 283 781 283 781 420 781 c 2,4,-1
 893 781 l 2,5,6
 939 781 939 781 981 774.5 c 128,-1,7
 1023 768 1023 768 1059 756 c 1,8,-1
 1059 639 l 1,9,10
 1023 658 1023 658 965.5 669 c 128,-1,11
 908 680 908 680 832 680 c 1,12,-1
 832 0 l 1,13,-1
 729 0 l 1,14,-1
 729 678 l 1,15,-1
 420 678 l 2,16,17
 340 678 340 678 274.5 600.5 c 128,-1,18
 209 523 209 523 187 404 c 1,19,20
 227 437 227 437 276.5 455 c 128,-1,21
 326 473 326 473 379 473 c 0,22,23
 439 473 439 473 481 442.5 c 128,-1,24
 523 412 523 412 523 369 c 2,25,-1
 523 145 l 2,26,27
 523 84 523 84 451 42 c 128,-1,28
 379 0 379 0 277 0 c 0,29,30
 201 0 201 0 146.5 24.5 c 128,-1,31
 92 49 92 49 92 82 c 2,0,-1
193 281 m 1,32,-1
 193 205 l 2,33,34
 193 162 193 162 223.5 133 c 128,-1,35
 254 104 254 104 297 104 c 0,36,37
 338 104 338 104 379 131 c 128,-1,38
 420 158 420 158 420 186 c 2,39,-1
 420 287 l 2,40,41
 420 320 420 320 392.5 344.5 c 128,-1,42
 365 369 365 369 328 369 c 0,43,44
 281 369 281 369 244 344.5 c 128,-1,45
 207 320 207 320 193 281 c 1,32,-1
EndSplineSet
EndChar

StartChar: tm_ee
Encoding: 2959 2959 57
Width: 1078
GlyphClass: 2
Flags: W
LayerCount: 2
Fore
SplineSet
92 82 m 2,0,-1
 92 432 l 2,1,2
 92 576 92 576 187.5 678.5 c 128,-1,3
 283 781 283 781 420 781 c 2,4,-1
 893 781 l 2,5,6
 939 781 939 781 981 774.5 c 128,-1,7
 1023 768 1023 768 1059 756 c 1,8,-1
 1059 639 l 1,9,10
 1023 658 1023 658 965.5 669 c 128,-1,11
 908 680 908 680 832 680 c 1,12,-1
 832 21 l 2,13,14
 832 -12 832 -12 798 -69.5 c 128,-1,15
 764 -127 764 -127 697 -205 c 1,16,-1
 586 -205 l 1,17,18
 658 -117 658 -117 693.5 -63.5 c 128,-1,19
 729 -10 729 -10 729 21 c 2,20,-1
 729 678 l 1,21,-1
 420 678 l 2,22,23
 340 678 340 678 274.5 600.5 c 128,-1,24
 209 523 209 523 187 404 c 1,25,26
 227 437 227 437 276.5 455 c 128,-1,27
 326 473 326 473 379 473 c 0,28,29
 439 473 439 473 481 442.5 c 128,-1,30
 523 412 523 412 523 369 c 2,31,-1
 523 145 l 2,32,33
 523 84 523 84 451 42 c 128,-1,34
 379 0 379 0 277 0 c 0,35,36
 201 0 201 0 146.5 24.5 c 128,-1,37
 92 49 92 49 92 82 c 2,0,-1
193 281 m 1,38,-1
 193 205 l 2,39,40
 193 162 193 162 223.5 133 c 128,-1,41
 254 104 254 104 297 104 c 0,42,43
 338 104 338 104 379 131 c 128,-1,44
 420 158 420 158 420 186 c 2,45,-1
 420 287 l 2,46,47
 420 320 420 320 392.5 344.5 c 128,-1,48
 365 369 365 369 328 369 c 0,49,50
 281 369 281 369 244 344.5 c 128,-1,51
 207 320 207 320 193 281 c 1,38,-1
EndSplineSet
EndChar

StartChar: tm_ai
Encoding: 2960 2960 58
Width: 1426
GlyphClass: 2
Flags: W
LayerCount: 2
Fore
SplineSet
72 227 m 2,0,-1
 72 432 l 2,1,2
 72 586 72 586 198 694.5 c 128,-1,3
 324 803 324 803 504 803 c 0,4,5
 609 803 609 803 688.5 783.5 c 128,-1,6
 768 764 768 764 812 727 c 1,7,8
 867 773 867 773 936.5 797.5 c 128,-1,9
 1006 822 1006 822 1080 822 c 0,10,11
 1189 822 1189 822 1267.5 719.5 c 128,-1,12
 1346 617 1346 617 1346 473 c 0,13,14
 1346 227 1346 227 1250 52 c 128,-1,15
 1154 -123 1154 -123 1018 -123 c 2,16,-1
 299 -123 l 2,17,18
 258 -123 258 -123 228.5 -151.5 c 128,-1,19
 199 -180 199 -180 195 -223 c 2,20,-1
 174 -412 l 2,21,22
 172 -453 172 -453 202 -483.5 c 128,-1,23
 232 -514 232 -514 277 -514 c 2,24,-1
 523 -514 l 2,25,26
 566 -514 566 -514 596.5 -484.5 c 128,-1,27
 627 -455 627 -455 627 -412 c 2,28,-1
 627 -287 l 1,29,-1
 730 -287 l 1,30,-1
 730 -432 l 2,31,32
 730 -465 730 -465 754.5 -489.5 c 128,-1,33
 779 -514 779 -514 812 -514 c 2,34,-1
 914 -514 l 2,35,36
 1016 -514 1016 -514 1087 -435.5 c 128,-1,37
 1158 -357 1158 -357 1158 -246 c 1,38,-1
 1281 -246 l 1,39,40
 1281 -400 1281 -400 1185.5 -508.5 c 128,-1,41
 1090 -617 1090 -617 955 -617 c 2,42,-1
 771 -617 l 2,43,44
 750 -617 750 -617 721.5 -590.5 c 128,-1,45
 693 -564 693 -564 668 -520 c 1,46,47
 643 -564 643 -564 609.5 -590.5 c 128,-1,48
 576 -617 576 -617 545 -617 c 2,49,-1
 195 -617 l 2,50,51
 131 -617 131 -617 87 -568.5 c 128,-1,52
 43 -520 43 -520 51 -453 c 2,53,-1
 82 -148 l 2,54,55
 88 -94 88 -94 126 -57.5 c 128,-1,56
 164 -21 164 -21 215 -21 c 2,57,-1
 977 -21 l 2,58,59
 1088 -21 1088 -21 1166 130 c 128,-1,60
 1244 281 1244 281 1244 494 c 0,61,62
 1244 588 1244 588 1189.5 653.5 c 128,-1,63
 1135 719 1135 719 1059 719 c 0,64,65
 969 719 969 719 903.5 664 c 128,-1,66
 838 609 838 609 832 529 c 2,67,-1
 793 123 l 1,68,-1
 691 123 l 1,69,-1
 730 578 l 2,70,71
 736 627 736 627 673.5 663 c 128,-1,72
 611 699 611 699 523 699 c 0,73,74
 400 699 400 699 308.5 657 c 128,-1,75
 217 615 217 615 186 545 c 1,76,-1
 191 539 l 1,77,78
 219 566 219 566 253 581 c 128,-1,79
 287 596 287 596 320 596 c 0,80,81
 396 596 396 596 450 555 c 128,-1,82
 504 514 504 514 504 457 c 2,83,-1
 504 268 l 2,84,85
 504 207 504 207 468 165 c 128,-1,86
 432 123 432 123 381 123 c 2,87,-1
 133 123 l 2,88,89
 107 123 107 123 89.5 153.5 c 128,-1,90
 72 184 72 184 72 227 c 2,0,-1
174 328 m 0,91,92
 174 285 174 285 204 256 c 128,-1,93
 234 227 234 227 277 227 c 0,94,95
 318 227 318 227 359 268 c 128,-1,96
 400 309 400 309 400 350 c 2,97,-1
 400 432 l 2,98,99
 400 465 400 465 376 489.5 c 128,-1,100
 352 514 352 514 318 514 c 0,101,102
 271 514 271 514 222.5 451.5 c 128,-1,103
 174 389 174 389 174 328 c 0,91,92
EndSplineSet
EndChar

StartChar: tm_o
Encoding: 2962 2962 59
Width: 1207
GlyphClass: 2
Flags: W
LayerCount: 2
Fore
SplineSet
80 123 m 2,0,-1
 80 350 l 2,1,2
 80 537 80 537 224.5 670 c 128,-1,3
 369 803 369 803 574 803 c 0,4,5
 812 803 812 803 980 651.5 c 128,-1,6
 1148 500 1148 500 1148 287 c 0,7,8
 1148 168 1148 168 1070 84 c 128,-1,9
 992 0 992 0 881 0 c 0,10,11
 859 0 859 0 828 8 c 128,-1,12
 797 16 797 16 758 29 c 1,13,-1
 758 -82 l 2,14,15
 758 -125 758 -125 788 -155.5 c 128,-1,16
 818 -186 818 -186 861 -186 c 2,17,-1
 1066 -186 l 1,18,-1
 1066 -287 l 1,19,-1
 1006 -287 l 2,20,21
 986 -287 986 -287 949 -339 c 128,-1,22
 912 -391 912 -391 887 -420 c 0,23,24
 809 -514 809 -514 742.5 -565.5 c 128,-1,25
 676 -617 676 -617 635 -617 c 2,26,-1
 348 -617 l 2,27,28
 236 -617 236 -617 158 -556.5 c 128,-1,29
 80 -496 80 -496 80 -412 c 2,30,-1
 80 -268 l 2,31,32
 80 -207 80 -207 128 -165 c 128,-1,33
 176 -123 176 -123 244 -123 c 0,34,35
 264 -123 264 -123 284.5 -127 c 128,-1,36
 305 -131 305 -131 326 -139 c 1,37,-1
 326 -260 l 1,38,39
 320 -256 320 -256 298.5 -257 c 128,-1,40
 277 -258 277 -258 266 -258 c 0,41,42
 232 -258 232 -258 208 -285.5 c 128,-1,43
 184 -313 184 -313 184 -350 c 2,44,-1
 184 -391 l 2,45,46
 184 -441 184 -441 237.5 -477.5 c 128,-1,47
 291 -514 291 -514 367 -514 c 2,48,-1
 594 -514 l 2,49,50
 633 -514 633 -514 687.5 -462 c 128,-1,51
 742 -410 742 -410 846 -287 c 1,52,53
 764 -273 764 -273 710 -220.5 c 128,-1,54
 656 -168 656 -168 656 -104 c 2,55,-1
 656 369 l 2,56,57
 656 412 656 412 692.5 442.5 c 128,-1,58
 729 473 729 473 779 473 c 0,59,60
 814 473 814 473 833 472 c 128,-1,61
 852 471 852 471 861 467 c 1,62,-1
 861 367 l 2,63,64
 859 367 859 367 853.5 368 c 128,-1,65
 848 369 848 369 840 369 c 0,66,67
 807 369 807 369 782.5 344.5 c 128,-1,68
 758 320 758 320 758 287 c 2,69,-1
 758 186 l 2,70,71
 758 152 758 152 782.5 128 c 128,-1,72
 807 104 807 104 840 104 c 2,73,-1
 902 104 l 2,74,75
 963 104 963 104 1005 157.5 c 128,-1,76
 1047 211 1047 211 1047 287 c 0,77,78
 1047 457 1047 457 902.5 578 c 128,-1,79
 758 699 758 699 553 699 c 0,80,81
 406 699 406 699 294 610 c 128,-1,82
 182 521 182 521 158 387 c 1,83,84
 207 428 207 428 261.5 450.5 c 128,-1,85
 316 473 316 473 367 473 c 0,86,87
 428 473 428 473 470 442.5 c 128,-1,88
 512 412 512 412 512 369 c 2,89,-1
 512 145 l 2,90,91
 512 84 512 84 428 42 c 128,-1,92
 344 0 344 0 225 0 c 0,93,94
 164 0 164 0 122 36 c 128,-1,95
 80 72 80 72 80 123 c 2,0,-1
184 283 m 1,96,-1
 184 186 l 2,97,98
 184 152 184 152 211 128 c 128,-1,99
 238 104 238 104 275 104 c 0,100,101
 318 104 318 104 363 131 c 128,-1,102
 408 158 408 158 408 186 c 2,103,-1
 408 268 l 2,104,105
 408 311 408 311 383.5 340 c 128,-1,106
 359 369 359 369 326 369 c 0,107,108
 283 369 283 369 245 345.5 c 128,-1,109
 207 322 207 322 184 283 c 1,96,-1
EndSplineSet
EndChar

StartChar: tm_oo
Encoding: 2963 2963 60
Width: 1207
GlyphClass: 2
Flags: W
LayerCount: 2
Fore
SplineSet
80 123 m 2,0,-1
 80 350 l 2,1,2
 80 537 80 537 224.5 670 c 128,-1,3
 369 803 369 803 572 803 c 0,4,5
 811 803 811 803 979.5 651.5 c 128,-1,6
 1148 500 1148 500 1148 287 c 0,7,8
 1148 168 1148 168 1070 84 c 128,-1,9
 992 0 992 0 881 0 c 0,10,11
 859 0 859 0 828 8 c 128,-1,12
 797 16 797 16 758 29 c 1,13,-1
 758 -82 l 2,14,15
 758 -125 758 -125 788 -155.5 c 128,-1,16
 818 -186 818 -186 861 -186 c 2,17,-1
 1066 -186 l 1,18,-1
 1066 -287 l 1,19,-1
 1004 -287 l 2,20,21
 984 -287 984 -287 947 -339 c 128,-1,22
 910 -391 910 -391 885 -420 c 0,23,24
 807 -514 807 -514 741.5 -565.5 c 128,-1,25
 676 -617 676 -617 635 -617 c 2,26,-1
 348 -617 l 2,27,28
 236 -617 236 -617 158 -556.5 c 128,-1,29
 80 -496 80 -496 80 -412 c 2,30,-1
 80 -268 l 2,31,32
 80 -211 80 -211 128 -172 c 128,-1,33
 176 -133 176 -133 244 -133 c 0,34,35
 355 -133 355 -133 433.5 -184.5 c 128,-1,36
 512 -236 512 -236 512 -309 c 2,37,-1
 512 -514 l 1,38,-1
 594 -514 l 2,39,40
 627 -514 627 -514 675 -479.5 c 128,-1,41
 723 -445 723 -445 775 -383 c 0,42,43
 803 -350 803 -350 828.5 -329.5 c 128,-1,44
 854 -309 854 -309 875 -301 c 1,45,46
 785 -301 785 -301 720.5 -243.5 c 128,-1,47
 656 -186 656 -186 656 -104 c 2,48,-1
 656 350 l 2,49,50
 656 400 656 400 692.5 436.5 c 128,-1,51
 729 473 729 473 779 473 c 0,52,53
 814 473 814 473 833 472 c 128,-1,54
 852 471 852 471 861 467 c 1,55,-1
 861 369 l 2,56,57
 859 371 859 371 848.5 370 c 128,-1,58
 838 369 838 369 830 369 c 0,59,60
 801 369 801 369 779.5 344.5 c 128,-1,61
 758 320 758 320 758 287 c 2,62,-1
 758 186 l 2,63,64
 758 152 758 152 788 128 c 128,-1,65
 818 104 818 104 861 104 c 0,66,67
 937 104 937 104 992 151.5 c 128,-1,68
 1047 199 1047 199 1047 268 c 0,69,70
 1047 447 1047 447 908.5 573 c 128,-1,71
 770 699 770 699 572 699 c 0,72,73
 420 699 420 699 305.5 614 c 128,-1,74
 191 529 191 529 168 398 c 1,75,76
 211 434 211 434 262.5 453.5 c 128,-1,77
 314 473 314 473 367 473 c 0,78,79
 428 473 428 473 470 442.5 c 128,-1,80
 512 412 512 412 512 369 c 2,81,-1
 512 145 l 2,82,83
 512 84 512 84 427 42 c 128,-1,84
 342 0 342 0 223 0 c 0,85,86
 164 0 164 0 122 36 c 128,-1,87
 80 72 80 72 80 123 c 2,0,-1
182 283 m 1,88,-1
 182 186 l 2,89,90
 182 152 182 152 209 128 c 128,-1,91
 236 104 236 104 275 104 c 0,92,93
 318 104 318 104 363 131 c 128,-1,94
 408 158 408 158 408 186 c 2,95,-1
 408 268 l 2,96,97
 408 311 408 311 383.5 340 c 128,-1,98
 359 369 359 369 326 369 c 0,99,100
 281 369 281 369 243 345.5 c 128,-1,101
 205 322 205 322 182 283 c 1,88,-1
182 -369 m 2,102,103
 182 -430 182 -430 230.5 -472 c 128,-1,104
 279 -514 279 -514 348 -514 c 2,105,-1
 408 -514 l 1,106,-1
 408 -369 l 2,107,108
 408 -326 408 -326 366 -297 c 128,-1,109
 324 -268 324 -268 266 -268 c 0,110,111
 230 -268 230 -268 206 -285.5 c 128,-1,112
 182 -303 182 -303 182 -328 c 2,113,-1
 182 -369 l 2,102,103
EndSplineSet
EndChar

StartChar: tm_ka
Encoding: 2965 2965 62
Width: 971
GlyphClass: 2
Flags: W
LayerCount: 2
Fore
SplineSet
49 215 m 0,0,1
 49 289 49 289 87 352.5 c 128,-1,2
 125 416 125 416 191 455 c 1,3,4
 178 482 178 482 170 510.5 c 128,-1,5
 162 539 162 539 162 566 c 0,6,7
 162 672 162 672 270.5 747 c 128,-1,8
 379 822 379 822 531 822 c 0,9,10
 623 822 623 822 684.5 818 c 128,-1,11
 746 814 746 814 777 807 c 1,12,-1
 777 705 l 1,13,14
 754 713 754 713 708 716 c 128,-1,15
 662 719 662 719 572 719 c 1,16,-1
 572 518 l 1,17,18
 717 518 717 518 819.5 433 c 128,-1,19
 922 348 922 348 922 227 c 0,20,21
 922 133 922 133 880 66.5 c 128,-1,22
 838 0 838 0 777 0 c 2,23,-1
 695 0 l 1,24,-1
 695 104 l 1,25,-1
 736 104 l 2,26,27
 771 104 771 104 795.5 140 c 128,-1,28
 820 176 820 176 820 227 c 0,29,30
 820 305 820 305 748 360.5 c 128,-1,31
 676 416 676 416 572 416 c 1,32,-1
 572 203 l 2,33,34
 572 109 572 109 477.5 44 c 128,-1,35
 383 -21 383 -21 250 -21 c 0,36,37
 166 -21 166 -21 107.5 48 c 128,-1,38
 49 117 49 117 49 215 c 0,0,1
162 246 m 2,39,-1
 162 186 l 2,40,41
 162 143 162 143 186.5 112.5 c 128,-1,42
 211 82 211 82 244 82 c 0,43,44
 338 82 338 82 404.5 118 c 128,-1,45
 471 154 471 154 471 205 c 2,46,-1
 471 412 l 1,47,-1
 387 412 l 2,48,49
 293 412 293 412 227.5 363 c 128,-1,50
 162 314 162 314 162 246 c 2,39,-1
264 555 m 0,51,52
 264 535 264 535 269.5 518.5 c 128,-1,53
 275 502 275 502 285 490 c 1,54,55
 316 502 316 502 363 508 c 128,-1,56
 410 514 410 514 471 514 c 1,57,-1
 471 727 l 1,58,59
 383 717 383 717 323.5 668 c 128,-1,60
 264 619 264 619 264 555 c 0,51,52
EndSplineSet
EndChar

StartChar: tm_nga
Encoding: 2969 2969 63
Width: 1486
GlyphClass: 2
Flags: W
LayerCount: 2
Fore
SplineSet
78 0 m 1,0,-1
 117 531 l 1,1,2
 131 656 131 656 260 739 c 128,-1,3
 389 822 389 822 568 822 c 0,4,5
 654 822 654 822 716.5 815.5 c 128,-1,6
 779 809 779 809 816 795 c 1,7,-1
 816 689 l 1,8,9
 791 703 791 703 733.5 711 c 128,-1,10
 676 719 676 719 590 719 c 1,11,-1
 590 477 l 1,12,13
 623 506 623 506 671 520.5 c 128,-1,14
 719 535 719 535 775 535 c 0,15,16
 859 535 859 535 919.5 463 c 128,-1,17
 980 391 980 391 980 287 c 0,18,19
 980 232 980 232 965.5 184.5 c 128,-1,20
 951 137 951 137 922 104 c 1,21,-1
 1148 104 l 2,22,23
 1209 104 1209 104 1251 157.5 c 128,-1,24
 1293 211 1293 211 1293 287 c 0,25,26
 1293 484 1293 484 1273.5 609 c 128,-1,27
 1254 734 1254 734 1215 781 c 1,28,-1
 1322 781 l 1,29,30
 1361 734 1361 734 1378.5 612 c 128,-1,31
 1396 490 1396 490 1396 287 c 0,32,33
 1396 168 1396 168 1324 84 c 128,-1,34
 1252 0 1252 0 1148 0 c 2,35,-1
 486 0 l 1,36,-1
 486 104 l 1,37,-1
 775 104 l 2,38,39
 818 104 818 104 847.5 133 c 128,-1,40
 877 162 877 162 877 205 c 2,41,-1
 877 309 l 2,42,43
 877 359 877 359 835 395.5 c 128,-1,44
 793 432 793 432 734 432 c 0,45,46
 674 432 674 432 632 407.5 c 128,-1,47
 590 383 590 383 590 350 c 2,48,-1
 590 309 l 1,49,-1
 486 309 l 1,50,-1
 486 725 l 1,51,52
 379 725 379 725 302 671 c 128,-1,53
 225 617 225 617 219 539 c 2,54,-1
 180 0 l 1,55,-1
 78 0 l 1,0,-1
EndSplineSet
EndChar

StartChar: tm_ca
Encoding: 2970 2970 64
Width: 809
GlyphClass: 2
Flags: W
LayerCount: 2
Fore
SplineSet
51 186 m 0,0,1
 51 271 51 271 86 340.5 c 128,-1,2
 121 410 121 410 184 445 c 1,3,4
 174 463 174 463 169 491.5 c 128,-1,5
 164 520 164 520 164 557 c 0,6,7
 164 666 164 666 272.5 744 c 128,-1,8
 381 822 381 822 533 822 c 0,9,10
 625 822 625 822 686.5 818 c 128,-1,11
 748 814 748 814 779 807 c 1,12,-1
 779 705 l 1,13,14
 756 713 756 713 710 716 c 128,-1,15
 664 719 664 719 574 719 c 1,16,-1
 574 514 l 1,17,18
 658 514 658 514 707 510 c 128,-1,19
 756 506 756 506 779 498 c 1,20,-1
 779 373 l 1,21,22
 762 393 762 393 709 403.5 c 128,-1,23
 656 414 656 414 574 414 c 1,24,-1
 574 145 l 2,25,26
 574 76 574 76 460 27.5 c 128,-1,27
 346 -21 346 -21 184 -21 c 0,28,29
 129 -21 129 -21 90 39.5 c 128,-1,30
 51 100 51 100 51 186 c 0,0,1
164 246 m 2,31,-1
 164 186 l 2,32,33
 164 143 164 143 188.5 112.5 c 128,-1,34
 213 82 213 82 246 82 c 0,35,36
 340 82 340 82 406.5 118 c 128,-1,37
 473 154 473 154 473 205 c 2,38,-1
 473 412 l 1,39,-1
 389 412 l 2,40,41
 295 412 295 412 229.5 363 c 128,-1,42
 164 314 164 314 164 246 c 2,31,-1
266 555 m 0,43,44
 266 535 266 535 271.5 518.5 c 128,-1,45
 277 502 277 502 287 490 c 1,46,47
 318 502 318 502 365 508 c 128,-1,48
 412 514 412 514 473 514 c 1,49,-1
 473 727 l 1,50,51
 385 717 385 717 325.5 668 c 128,-1,52
 266 619 266 619 266 555 c 0,43,44
EndSplineSet
EndChar

StartChar: tm_ja
Encoding: 2972 2972 65
Width: 1443
GlyphClass: 2
Flags: W
LayerCount: 2
Fore
SplineSet
90 227 m 2,0,-1
 90 637 l 2,1,2
 90 705 90 705 216 754 c 128,-1,3
 342 803 342 803 521 803 c 0,4,5
 627 803 627 803 706 783.5 c 128,-1,6
 785 764 785 764 830 727 c 1,7,8
 885 773 885 773 954 797.5 c 128,-1,9
 1023 822 1023 822 1098 822 c 0,10,11
 1207 822 1207 822 1285 719.5 c 128,-1,12
 1363 617 1363 617 1363 473 c 0,13,14
 1363 227 1363 227 1267.5 52 c 128,-1,15
 1172 -123 1172 -123 1035 -123 c 2,16,-1
 316 -123 l 2,17,18
 275 -123 275 -123 246 -151.5 c 128,-1,19
 217 -180 217 -180 213 -223 c 2,20,-1
 203 -412 l 2,21,22
 201 -453 201 -453 227.5 -483.5 c 128,-1,23
 254 -514 254 -514 295 -514 c 0,24,25
 342 -514 342 -514 388 -496.5 c 128,-1,26
 434 -479 434 -479 473 -447 c 2,27,-1
 668 -283 l 2,28,29
 689 -266 689 -266 714.5 -256 c 128,-1,30
 740 -246 740 -246 768 -246 c 2,31,-1
 1199 -246 l 2,32,33
 1242 -246 1242 -246 1272.5 -282 c 128,-1,34
 1303 -318 1303 -318 1303 -369 c 0,35,36
 1303 -473 1303 -473 1261 -545 c 128,-1,37
 1219 -617 1219 -617 1158 -617 c 2,38,-1
 953 -617 l 2,39,40
 910 -617 910 -617 880 -587 c 128,-1,41
 850 -557 850 -557 850 -514 c 2,42,-1
 850 -348 l 1,43,44
 809 -348 809 -348 766 -365.5 c 128,-1,45
 723 -383 723 -383 684 -416 c 2,46,-1
 520 -559 l 2,47,48
 486 -588 486 -588 433.5 -602.5 c 128,-1,49
 381 -617 381 -617 316 -617 c 0,50,51
 211 -617 211 -617 136.5 -576 c 128,-1,52
 62 -535 62 -535 68 -480 c 2,53,-1
 90 -180 l 2,54,55
 98 -111 98 -111 139 -66 c 128,-1,56
 180 -21 180 -21 232 -21 c 2,57,-1
 994 -21 l 2,58,59
 1105 -21 1105 -21 1183.5 130 c 128,-1,60
 1262 281 1262 281 1262 494 c 0,61,62
 1262 588 1262 588 1207 653.5 c 128,-1,63
 1152 719 1152 719 1076 719 c 0,64,65
 986 719 986 719 920.5 664 c 128,-1,66
 855 609 855 609 850 529 c 2,67,-1
 811 123 l 1,68,-1
 709 123 l 1,69,-1
 748 578 l 2,70,71
 754 635 754 635 683.5 677 c 128,-1,72
 613 719 613 719 512 719 c 0,73,74
 412 719 412 719 335 693.5 c 128,-1,75
 258 668 258 668 213 623 c 1,76,-1
 213 535 l 1,77,78
 242 564 242 564 285 580 c 128,-1,79
 328 596 328 596 377 596 c 0,80,81
 437 596 437 596 479 566.5 c 128,-1,82
 521 537 521 537 521 494 c 2,83,-1
 521 268 l 2,84,85
 521 207 521 207 485 165 c 128,-1,86
 449 123 449 123 398 123 c 2,87,-1
 150 123 l 2,88,89
 125 123 125 123 107.5 153.5 c 128,-1,90
 90 184 90 184 90 227 c 2,0,-1
953 -350 m 1,91,-1
 953 -422 l 2,92,93
 953 -469 953 -469 983.5 -502 c 128,-1,94
 1014 -535 1014 -535 1057 -535 c 0,95,96
 1107 -535 1107 -535 1143.5 -505 c 128,-1,97
 1180 -475 1180 -475 1180 -432 c 0,98,99
 1180 -398 1180 -398 1161.5 -374 c 128,-1,100
 1143 -350 1143 -350 1117 -350 c 2,101,-1
 953 -350 l 1,91,-1
191 328 m 0,102,103
 191 285 191 285 221.5 256 c 128,-1,104
 252 227 252 227 295 227 c 0,105,106
 336 227 336 227 377 268 c 128,-1,107
 418 309 418 309 418 350 c 2,108,-1
 418 432 l 2,109,110
 418 465 418 465 393.5 489.5 c 128,-1,111
 369 514 369 514 336 514 c 0,112,113
 289 514 289 514 240 451.5 c 128,-1,114
 191 389 191 389 191 328 c 0,102,103
EndSplineSet
EndChar

StartChar: tm_nya
Encoding: 2974 2974 66
Width: 1676
GlyphClass: 2
Flags: W
LayerCount: 2
Fore
SplineSet
449 199 m 2,0,-1
 449 432 l 2,1,2
 449 576 449 576 546 678.5 c 128,-1,3
 643 781 643 781 779 781 c 2,4,-1
 1252 781 l 2,5,6
 1299 781 1299 781 1340 774.5 c 128,-1,7
 1381 768 1381 768 1416 756 c 1,8,-1
 1416 639 l 1,9,10
 1381 658 1381 658 1323.5 669 c 128,-1,11
 1266 680 1266 680 1189 680 c 1,12,-1
 1189 432 l 1,13,14
 1225 451 1225 451 1271.5 462 c 128,-1,15
 1318 473 1318 473 1375 473 c 0,16,17
 1477 473 1477 473 1549 398.5 c 128,-1,18
 1621 324 1621 324 1621 219 c 0,19,20
 1621 -127 1621 -127 1453 -372 c 128,-1,21
 1285 -617 1285 -617 1047 -617 c 2,22,-1
 738 -617 l 2,23,24
 465 -617 465 -617 272.5 -345.5 c 128,-1,25
 80 -74 80 -74 80 309 c 0,26,27
 80 502 80 502 175.5 638.5 c 128,-1,28
 271 775 271 775 408 775 c 1,29,-1
 408 672 l 1,30,31
 314 672 314 672 248 565.5 c 128,-1,32
 182 459 182 459 182 309 c 0,33,34
 182 -31 182 -31 351 -272.5 c 128,-1,35
 520 -514 520 -514 758 -514 c 2,36,-1
 1047 -514 l 2,37,38
 1242 -514 1242 -514 1381 -297 c 128,-1,39
 1520 -80 1520 -80 1520 227 c 0,40,41
 1520 285 1520 285 1471 327 c 128,-1,42
 1422 369 1422 369 1354 369 c 0,43,44
 1303 369 1303 369 1261 356.5 c 128,-1,45
 1219 344 1219 344 1189 318 c 1,46,-1
 1189 0 l 1,47,-1
 1088 0 l 1,48,-1
 1088 678 l 1,49,-1
 779 678 l 2,50,51
 699 678 699 678 633.5 600.5 c 128,-1,52
 568 523 568 523 547 404 c 1,53,54
 586 437 586 437 636 455 c 128,-1,55
 686 473 686 473 738 473 c 0,56,57
 797 473 797 473 839 442.5 c 128,-1,58
 881 412 881 412 881 369 c 2,59,-1
 881 145 l 2,60,61
 881 84 881 84 808.5 42 c 128,-1,62
 736 0 736 0 635 0 c 0,63,64
 559 0 559 0 504 58.5 c 128,-1,65
 449 117 449 117 449 199 c 2,0,-1
553 281 m 1,66,-1
 553 205 l 2,67,68
 553 162 553 162 583 133 c 128,-1,69
 613 104 613 104 656 104 c 0,70,71
 697 104 697 104 738 131 c 128,-1,72
 779 158 779 158 779 186 c 2,73,-1
 779 287 l 2,74,75
 779 320 779 320 752 344.5 c 128,-1,76
 725 369 725 369 686 369 c 0,77,78
 641 369 641 369 603.5 344.5 c 128,-1,79
 566 320 566 320 553 281 c 1,66,-1
EndSplineSet
EndChar

StartChar: tm_tta
Encoding: 2975 2975 67
Width: 1078
GlyphClass: 2
Flags: W
LayerCount: 2
Fore
SplineSet
96 123 m 2,0,-1
 135 781 l 1,1,-1
 238 781 l 1,2,-1
 199 205 l 2,3,4
 197 164 197 164 227.5 134 c 128,-1,5
 258 104 258 104 303 104 c 2,6,-1
 1062 104 l 1,7,-1
 1062 0 l 1,8,-1
 240 0 l 2,9,10
 180 0 180 0 138 36 c 128,-1,11
 96 72 96 72 96 123 c 2,0,-1
EndSplineSet
EndChar

StartChar: tm_nna
Encoding: 2979 2979 68
Width: 2281
GlyphClass: 2
Flags: W
LayerCount: 2
Fore
SplineSet
86 201 m 2,0,-1
 86 453 l 2,1,2
 86 598 86 598 194.5 700.5 c 128,-1,3
 303 803 303 803 457 803 c 0,4,5
 523 803 523 803 585.5 795 c 128,-1,6
 648 787 648 787 707 773 c 1,7,-1
 773 699 l 1,8,9
 795 736 795 736 831 758.5 c 128,-1,10
 867 781 867 781 906 781 c 2,11,-1
 1160 781 l 1,12,-1
 1215 693 l 1,13,14
 1238 734 1238 734 1277 757.5 c 128,-1,15
 1316 781 1316 781 1359 781 c 2,16,-1
 2100 781 l 2,17,18
 2146 781 2146 781 2188 774.5 c 128,-1,19
 2230 768 2230 768 2266 756 c 1,20,-1
 2266 664 l 1,21,22
 2246 670 2246 670 2210 674 c 128,-1,23
 2174 678 2174 678 2121 678 c 2,24,-1
 2039 678 l 1,25,-1
 2039 0 l 1,26,-1
 1936 0 l 1,27,-1
 1936 678 l 1,28,-1
 1693 678 l 1,29,30
 1730 646 1730 646 1750.5 549.5 c 128,-1,31
 1771 453 1771 453 1771 309 c 0,32,33
 1771 182 1771 182 1693 91 c 128,-1,34
 1615 0 1615 0 1504 0 c 2,35,-1
 1400 0 l 2,36,37
 1355 0 1355 0 1308.5 19.5 c 128,-1,38
 1262 39 1262 39 1217 76 c 1,39,40
 1172 39 1172 39 1108.5 19.5 c 128,-1,41
 1045 0 1045 0 969 0 c 2,42,-1
 908 0 l 2,43,44
 814 0 814 0 748 84 c 128,-1,45
 682 168 682 168 682 287 c 0,46,47
 682 400 682 400 695.5 483 c 128,-1,48
 709 566 709 566 736 613 c 1,49,50
 701 654 701 654 628 676.5 c 128,-1,51
 555 699 555 699 455 699 c 0,52,53
 346 699 346 699 265 609.5 c 128,-1,54
 184 520 184 520 174 389 c 1,55,56
 223 430 223 430 258 451.5 c 128,-1,57
 293 473 293 473 312 473 c 2,58,-1
 414 473 l 2,59,60
 457 473 457 473 487.5 436.5 c 128,-1,61
 518 400 518 400 518 350 c 2,62,-1
 518 164 l 2,63,64
 518 96 518 96 451.5 48 c 128,-1,65
 385 0 385 0 291 0 c 0,66,67
 207 0 207 0 146.5 58.5 c 128,-1,68
 86 117 86 117 86 201 c 2,0,-1
785 350 m 0,69,70
 785 248 785 248 833 176 c 128,-1,71
 881 104 881 104 949 104 c 2,72,-1
 1010 104 l 2,73,74
 1078 104 1078 104 1127 176 c 128,-1,75
 1176 248 1176 248 1176 350 c 0,76,77
 1176 486 1176 486 1134 582 c 128,-1,78
 1092 678 1092 678 1031 678 c 2,79,-1
 920 678 l 1,80,81
 857 643 857 643 821 554 c 128,-1,82
 785 465 785 465 785 350 c 0,69,70
187 281 m 1,83,-1
 187 205 l 2,84,85
 187 162 187 162 217.5 133 c 128,-1,86
 248 104 248 104 291 104 c 0,87,88
 332 104 332 104 373 131 c 128,-1,89
 414 158 414 158 414 186 c 2,90,-1
 414 287 l 2,91,92
 414 320 414 320 384.5 344.5 c 128,-1,93
 355 369 355 369 312 369 c 0,94,95
 271 369 271 369 236 344.5 c 128,-1,96
 201 320 201 320 187 281 c 1,83,-1
1277 350 m 0,97,98
 1277 248 1277 248 1313.5 176 c 128,-1,99
 1350 104 1350 104 1400 104 c 2,100,-1
 1504 104 l 2,101,102
 1572 104 1572 104 1620 176 c 128,-1,103
 1668 248 1668 248 1668 350 c 0,104,105
 1668 486 1668 486 1626 582 c 128,-1,106
 1584 678 1584 678 1525 678 c 2,107,-1
 1369 678 l 1,108,109
 1324 625 1324 625 1300.5 540 c 128,-1,110
 1277 455 1277 455 1277 350 c 0,97,98
EndSplineSet
EndChar

StartChar: tm_ta
Encoding: 2980 2980 69
Width: 1002
GlyphClass: 2
Flags: W
LayerCount: 2
Fore
SplineSet
51 205 m 0,0,1
 51 283 51 283 89 349.5 c 128,-1,2
 127 416 127 416 193 455 c 1,3,4
 180 484 180 484 172 510.5 c 128,-1,5
 164 537 164 537 164 557 c 0,6,7
 164 666 164 666 272.5 744 c 128,-1,8
 381 822 381 822 533 822 c 0,9,10
 625 822 625 822 686.5 818 c 128,-1,11
 748 814 748 814 779 807 c 1,12,-1
 779 705 l 1,13,14
 756 713 756 713 710 716 c 128,-1,15
 664 719 664 719 574 719 c 1,16,-1
 574 516 l 1,17,18
 729 516 729 516 837 436.5 c 128,-1,19
 945 357 945 357 945 246 c 0,20,21
 945 25 945 25 867 -131 c 128,-1,22
 789 -287 789 -287 678 -287 c 2,23,-1
 244 -287 l 2,24,25
 195 -287 195 -287 160 -317.5 c 128,-1,26
 125 -348 125 -348 125 -391 c 1,27,-1
 14 -391 l 1,28,29
 23 -303 23 -303 88.5 -244.5 c 128,-1,30
 154 -186 154 -186 242 -186 c 2,31,-1
 637 -186 l 2,32,33
 721 -186 721 -186 781.5 -60 c 128,-1,34
 842 66 842 66 842 246 c 0,35,36
 842 316 842 316 764 365 c 128,-1,37
 686 414 686 414 574 414 c 1,38,-1
 574 145 l 2,39,40
 574 76 574 76 460 27.5 c 128,-1,41
 346 -21 346 -21 184 -21 c 0,42,43
 129 -21 129 -21 90 45 c 128,-1,44
 51 111 51 111 51 205 c 0,0,1
164 246 m 2,45,-1
 164 186 l 2,46,47
 164 143 164 143 188.5 112.5 c 128,-1,48
 213 82 213 82 246 82 c 0,49,50
 340 82 340 82 406.5 118 c 128,-1,51
 473 154 473 154 473 205 c 2,52,-1
 473 412 l 1,53,-1
 389 412 l 2,54,55
 295 412 295 412 229.5 363 c 128,-1,56
 164 314 164 314 164 246 c 2,45,-1
266 555 m 0,57,58
 266 535 266 535 271.5 518.5 c 128,-1,59
 277 502 277 502 287 490 c 1,60,61
 318 502 318 502 365 508 c 128,-1,62
 412 514 412 514 473 514 c 1,63,-1
 473 727 l 1,64,65
 385 717 385 717 325.5 668 c 128,-1,66
 266 619 266 619 266 555 c 0,57,58
EndSplineSet
EndChar

StartChar: tm_na
Encoding: 2984 2984 70
Width: 1076
GlyphClass: 2
Flags: W
LayerCount: 2
Fore
SplineSet
78 0 m 1,0,-1
 117 531 l 1,1,2
 131 656 131 656 260 739 c 128,-1,3
 389 822 389 822 568 822 c 0,4,5
 654 822 654 822 716.5 815.5 c 128,-1,6
 779 809 779 809 816 795 c 1,7,-1
 816 689 l 1,8,9
 791 703 791 703 733.5 711 c 128,-1,10
 676 719 676 719 590 719 c 1,11,-1
 590 434 l 1,12,13
 643 453 643 453 689.5 463 c 128,-1,14
 736 473 736 473 775 473 c 0,15,16
 877 473 877 473 949 406.5 c 128,-1,17
 1021 340 1021 340 1021 246 c 0,18,19
 1021 25 1021 25 931.5 -131 c 128,-1,20
 842 -287 842 -287 715 -287 c 2,21,-1
 232 -287 l 2,22,23
 184 -287 184 -287 148.5 -317.5 c 128,-1,24
 113 -348 113 -348 113 -391 c 1,25,-1
 2 -391 l 1,26,27
 12 -303 12 -303 65.5 -244.5 c 128,-1,28
 119 -186 119 -186 191 -186 c 2,29,-1
 713 -186 l 2,30,31
 797 -186 797 -186 857.5 -60 c 128,-1,32
 918 66 918 66 918 246 c 0,33,34
 918 297 918 297 876 333 c 128,-1,35
 834 369 834 369 775 369 c 0,36,37
 727 369 727 369 679 356.5 c 128,-1,38
 631 344 631 344 590 320 c 1,39,-1
 590 0 l 1,40,-1
 486 0 l 1,41,-1
 486 725 l 1,42,43
 379 725 379 725 302 671 c 128,-1,44
 225 617 225 617 219 539 c 2,45,-1
 180 0 l 1,46,-1
 78 0 l 1,0,-1
EndSplineSet
EndChar

StartChar: tm_nnna
Encoding: 2985 2985 71
Width: 1814
GlyphClass: 2
Flags: W
LayerCount: 2
Fore
SplineSet
92 123 m 2,0,-1
 92 453 l 2,1,2
 92 598 92 598 194.5 700.5 c 128,-1,3
 297 803 297 803 441 803 c 2,4,-1
 648 803 l 2,5,6
 674 803 674 803 701.5 772.5 c 128,-1,7
 729 742 729 742 746 691 c 1,8,9
 770 732 770 732 804 756.5 c 128,-1,10
 838 781 838 781 873 781 c 2,11,-1
 1635 781 l 2,12,13
 1682 781 1682 781 1723 774.5 c 128,-1,14
 1764 768 1764 768 1799 756 c 1,15,-1
 1799 664 l 1,16,17
 1779 670 1779 670 1743 674 c 128,-1,18
 1707 678 1707 678 1654 678 c 2,19,-1
 1572 678 l 1,20,-1
 1572 0 l 1,21,-1
 1471 0 l 1,22,-1
 1471 678 l 1,23,-1
 1209 678 l 1,24,25
 1246 633 1246 633 1265.5 549 c 128,-1,26
 1285 465 1285 465 1285 350 c 0,27,28
 1285 205 1285 205 1182.5 102.5 c 128,-1,29
 1080 0 1080 0 936 0 c 0,30,31
 834 0 834 0 761.5 91 c 128,-1,32
 689 182 689 182 689 309 c 0,33,34
 689 426 689 426 701 505 c 128,-1,35
 713 584 713 584 734 623 c 1,36,37
 703 660 703 660 648.5 679.5 c 128,-1,38
 594 699 594 699 523 699 c 0,39,40
 387 699 387 699 287 609.5 c 128,-1,41
 187 520 187 520 178 387 c 1,42,43
 229 430 229 430 264 451.5 c 128,-1,44
 299 473 299 473 318 473 c 2,45,-1
 422 473 l 2,46,47
 465 473 465 473 494 436.5 c 128,-1,48
 523 400 523 400 523 350 c 2,49,-1
 523 164 l 2,50,51
 523 96 523 96 458 48 c 128,-1,52
 393 0 393 0 299 0 c 0,53,54
 213 0 213 0 152.5 36 c 128,-1,55
 92 72 92 72 92 123 c 2,0,-1
791 268 m 2,56,57
 791 199 791 199 845.5 151.5 c 128,-1,58
 900 104 900 104 977 104 c 0,59,60
 1061 104 1061 104 1121.5 176 c 128,-1,61
 1182 248 1182 248 1182 350 c 0,62,63
 1182 486 1182 486 1140 582 c 128,-1,64
 1098 678 1098 678 1039 678 c 2,65,-1
 930 678 l 1,66,67
 865 641 865 641 828 574.5 c 128,-1,68
 791 508 791 508 791 432 c 2,69,-1
 791 268 l 2,56,57
195 281 m 1,70,-1
 195 205 l 2,71,72
 195 162 195 162 225.5 133 c 128,-1,73
 256 104 256 104 299 104 c 0,74,75
 340 104 340 104 381 131 c 128,-1,76
 422 158 422 158 422 186 c 2,77,-1
 422 287 l 2,78,79
 422 320 422 320 391.5 344.5 c 128,-1,80
 361 369 361 369 318 369 c 0,81,82
 277 369 277 369 243 344.5 c 128,-1,83
 209 320 209 320 195 281 c 1,70,-1
EndSplineSet
EndChar

StartChar: tm_pa
Encoding: 2986 2986 72
Width: 1016
GlyphClass: 2
Flags: W
LayerCount: 2
Fore
SplineSet
96 123 m 2,0,-1
 135 781 l 1,1,-1
 238 781 l 1,2,-1
 199 205 l 2,3,4
 197 164 197 164 227.5 134 c 128,-1,5
 258 104 258 104 303 104 c 2,6,-1
 754 104 l 2,7,8
 779 104 779 104 797.5 128 c 128,-1,9
 816 152 816 152 816 186 c 2,10,-1
 777 781 l 1,11,-1
 879 781 l 1,12,-1
 918 145 l 2,13,14
 924 86 924 86 887 43 c 128,-1,15
 850 0 850 0 795 0 c 2,16,-1
 240 0 l 2,17,18
 180 0 180 0 138 36 c 128,-1,19
 96 72 96 72 96 123 c 2,0,-1
EndSplineSet
EndChar

StartChar: tm_ma
Encoding: 2990 2990 73
Width: 1021
GlyphClass: 2
Flags: W
LayerCount: 2
Fore
SplineSet
96 123 m 2,0,-1
 135 781 l 1,1,-1
 238 781 l 1,2,-1
 199 205 l 2,3,4
 197 164 197 164 227.5 134 c 128,-1,5
 258 104 258 104 303 104 c 2,6,-1
 445 104 l 1,7,-1
 445 658 l 2,8,9
 445 719 445 719 530 761 c 128,-1,10
 615 803 615 803 734 803 c 0,11,12
 779 803 779 803 825 743.5 c 128,-1,13
 871 684 871 684 898 590 c 0,14,15
 918 520 918 520 928.5 423 c 128,-1,16
 939 326 939 326 939 205 c 0,17,18
 939 121 939 121 867 60.5 c 128,-1,19
 795 0 795 0 693 0 c 2,20,-1
 240 0 l 2,21,22
 180 0 180 0 138 36 c 128,-1,23
 96 72 96 72 96 123 c 2,0,-1
549 104 m 1,24,-1
 672 104 l 2,25,26
 740 104 740 104 788 145.5 c 128,-1,27
 836 187 836 187 836 246 c 0,28,29
 836 311 836 311 825 385 c 128,-1,30
 814 459 814 459 795 541 c 0,31,32
 777 611 777 611 749 655 c 128,-1,33
 721 699 721 699 693 699 c 0,34,35
 633 699 633 699 591 669 c 128,-1,36
 549 639 549 639 549 596 c 2,37,-1
 549 104 l 1,24,-1
EndSplineSet
EndChar

StartChar: tm_ya
Encoding: 2991 2991 74
Width: 1348
GlyphClass: 2
Flags: W
LayerCount: 2
Fore
SplineSet
98 123 m 2,0,-1
 137 781 l 1,1,-1
 240 781 l 1,2,-1
 201 205 l 2,3,4
 199 164 199 164 222.5 134 c 128,-1,5
 246 104 246 104 283 104 c 0,6,7
 354 104 354 104 426 157.5 c 128,-1,8
 498 211 498 211 551 303 c 1,9,-1
 551 781 l 1,10,-1
 654 781 l 1,11,-1
 654 205 l 2,12,13
 654 162 654 162 683.5 133 c 128,-1,14
 713 104 713 104 756 104 c 2,15,-1
 1064 104 l 2,16,17
 1102 104 1102 104 1125 134 c 128,-1,18
 1148 164 1148 164 1146 205 c 2,19,-1
 1107 781 l 1,20,-1
 1211 781 l 1,21,-1
 1250 123 l 2,22,23
 1256 74 1256 74 1224.5 37 c 128,-1,24
 1193 0 1193 0 1146 0 c 2,25,-1
 674 0 l 2,26,27
 629 0 629 0 592 39 c 128,-1,28
 555 78 555 78 539 139 c 1,29,30
 484 72 484 72 400 36 c 128,-1,31
 316 0 316 0 221 0 c 0,32,33
 170 0 170 0 134 36 c 128,-1,34
 98 72 98 72 98 123 c 2,0,-1
EndSplineSet
EndChar

StartChar: tm_ra
Encoding: 2992 2992 75
Width: 828
GlyphClass: 2
Flags: W
LayerCount: 2
Fore
SplineSet
78 0 m 1,0,-1
 117 531 l 1,1,2
 131 656 131 656 260 739 c 128,-1,3
 389 822 389 822 568 822 c 0,4,5
 654 822 654 822 716.5 815.5 c 128,-1,6
 779 809 779 809 816 795 c 1,7,-1
 816 689 l 1,8,9
 791 703 791 703 733.5 711 c 128,-1,10
 676 719 676 719 590 719 c 1,11,-1
 590 21 l 2,12,13
 590 -12 590 -12 555.5 -70.5 c 128,-1,14
 521 -129 521 -129 457 -205 c 1,15,-1
 346 -205 l 1,16,17
 416 -121 416 -121 451 -65.5 c 128,-1,18
 486 -10 486 -10 486 21 c 2,19,-1
 486 725 l 1,20,21
 375 713 375 713 299 660 c 128,-1,22
 223 607 223 607 219 539 c 2,23,-1
 180 0 l 1,24,-1
 78 0 l 1,0,-1
EndSplineSet
EndChar

StartChar: tm_rra
Encoding: 2993 2993 76
Width: 1115
GlyphClass: 2
Flags: W
LayerCount: 2
Fore
SplineSet
82 0 m 1,0,-1
 121 551 l 2,1,2
 133 666 133 666 227.5 744 c 128,-1,3
 322 822 322 822 449 822 c 2,4,-1
 520 822 l 1,5,-1
 588 711 l 1,6,7
 629 744 629 744 682.5 762.5 c 128,-1,8
 736 781 736 781 799 781 c 0,9,10
 893 781 893 781 959 685.5 c 128,-1,11
 1025 590 1025 590 1025 453 c 0,12,13
 1025 146 1025 146 941 -70.5 c 128,-1,14
 857 -287 857 -287 738 -287 c 2,15,-1
 285 -287 l 2,16,17
 236 -287 236 -287 201 -317.5 c 128,-1,18
 166 -348 166 -348 166 -391 c 1,19,-1
 43 -391 l 1,20,21
 43 -307 43 -307 95.5 -246.5 c 128,-1,22
 148 -186 148 -186 223 -186 c 2,23,-1
 717 -186 l 2,24,25
 801 -186 801 -186 861.5 -17 c 128,-1,26
 922 152 922 152 922 391 c 0,27,28
 922 510 922 510 874 594 c 128,-1,29
 826 678 826 678 758 678 c 0,30,31
 689 678 689 678 641.5 636 c 128,-1,32
 594 594 594 594 594 535 c 2,33,-1
 594 0 l 1,34,-1
 490 0 l 1,35,-1
 490 576 l 2,36,37
 490 611 490 611 505.5 643.5 c 128,-1,38
 521 676 521 676 549 699 c 1,39,40
 521 709 521 709 497 714 c 128,-1,41
 473 719 473 719 449 719 c 0,42,43
 359 719 359 719 294 667 c 128,-1,44
 229 615 229 615 223 539 c 2,45,-1
 184 0 l 1,46,-1
 82 0 l 1,0,-1
EndSplineSet
EndChar

StartChar: tm_la
Encoding: 2994 2994 77
Width: 1291
GlyphClass: 2
Flags: W
LayerCount: 2
Fore
SplineSet
84 123 m 2,0,-1
 84 350 l 2,1,2
 84 537 84 537 198 670 c 128,-1,3
 312 803 312 803 475 803 c 0,4,5
 570 803 570 803 666 754 c 128,-1,6
 762 705 762 705 762 658 c 2,7,-1
 762 186 l 2,8,9
 762 152 762 152 798 128 c 128,-1,10
 834 104 834 104 885 104 c 0,11,12
 979 104 979 104 1045 157.5 c 128,-1,13
 1111 211 1111 211 1111 287 c 0,14,15
 1111 449 1111 449 1075 563.5 c 128,-1,16
 1039 678 1039 678 988 678 c 2,17,-1
 967 678 l 1,18,-1
 967 781 l 1,19,-1
 1051 781 l 2,20,21
 1119 781 1119 781 1167 636.5 c 128,-1,22
 1215 492 1215 492 1215 287 c 0,23,24
 1215 168 1215 168 1118 84 c 128,-1,25
 1021 0 1021 0 885 0 c 0,26,27
 791 0 791 0 725.5 54.5 c 128,-1,28
 660 109 660 109 660 186 c 2,29,-1
 660 596 l 2,30,31
 660 639 660 639 605.5 669 c 128,-1,32
 551 699 551 699 475 699 c 0,33,34
 355 699 355 699 267.5 614 c 128,-1,35
 180 529 180 529 172 406 c 1,36,37
 211 437 211 437 261.5 455 c 128,-1,38
 312 473 312 473 371 473 c 0,39,40
 432 473 432 473 474 442.5 c 128,-1,41
 516 412 516 412 516 369 c 2,42,-1
 516 145 l 2,43,44
 516 84 516 84 431 42 c 128,-1,45
 346 0 346 0 227 0 c 0,46,47
 168 0 168 0 126 36 c 128,-1,48
 84 72 84 72 84 123 c 2,0,-1
186 283 m 1,49,-1
 186 205 l 2,50,51
 186 162 186 162 210 133 c 128,-1,52
 234 104 234 104 270 104 c 0,53,54
 316 104 316 104 364 131 c 128,-1,55
 412 158 412 158 412 186 c 2,56,-1
 412 287 l 2,57,58
 412 320 412 320 387.5 344.5 c 128,-1,59
 363 369 363 369 330 369 c 0,60,61
 285 369 285 369 247 345.5 c 128,-1,62
 209 322 209 322 186 283 c 1,49,-1
EndSplineSet
EndChar

StartChar: tm_lla
Encoding: 2995 2995 78
Width: 1455
GlyphClass: 2
Flags: W
LayerCount: 2
Fore
SplineSet
86 391 m 2,0,1
 86 561 86 561 218 682 c 128,-1,2
 350 803 350 803 537 803 c 0,3,4
 641 803 641 803 712 789 c 128,-1,5
 783 775 783 775 814 748 c 1,6,7
 857 783 857 783 945 802.5 c 128,-1,8
 1033 822 1033 822 1154 822 c 0,9,10
 1258 822 1258 822 1331 813.5 c 128,-1,11
 1404 805 1404 805 1443 787 c 1,12,-1
 1443 689 l 1,13,14
 1420 703 1420 703 1339 710 c 128,-1,15
 1258 717 1258 717 1217 721 c 1,16,-1
 1217 0 l 1,17,-1
 1113 0 l 1,18,-1
 1113 725 l 1,19,20
 1000 725 1000 725 917 647.5 c 128,-1,21
 834 570 834 570 826 457 c 2,22,-1
 787 0 l 1,23,-1
 684 0 l 1,24,-1
 732 598 l 2,25,26
 736 639 736 639 677.5 669 c 128,-1,27
 619 699 619 699 537 699 c 0,28,29
 398 699 398 699 293.5 614 c 128,-1,30
 189 529 189 529 166 400 c 1,31,32
 207 436 207 436 260.5 454.5 c 128,-1,33
 314 473 314 473 373 473 c 0,34,35
 434 473 434 473 476 442.5 c 128,-1,36
 518 412 518 412 518 369 c 2,37,-1
 518 145 l 2,38,39
 518 84 518 84 445.5 42 c 128,-1,40
 373 0 373 0 271 0 c 0,41,42
 193 0 193 0 137.5 25.5 c 128,-1,43
 82 51 82 51 86 86 c 1,44,-1
 86 391 l 2,0,1
187 281 m 1,45,-1
 187 205 l 2,46,47
 187 162 187 162 217.5 133 c 128,-1,48
 248 104 248 104 291 104 c 0,49,50
 332 104 332 104 373 131 c 128,-1,51
 414 158 414 158 414 186 c 2,52,-1
 414 287 l 2,53,54
 414 320 414 320 384.5 344.5 c 128,-1,55
 355 369 355 369 312 369 c 0,56,57
 271 369 271 369 236 344.5 c 128,-1,58
 201 320 201 320 187 281 c 1,45,-1
EndSplineSet
EndChar

StartChar: tm_llla
Encoding: 2996 2996 79
Width: 1021
GlyphClass: 2
Flags: W
LayerCount: 2
Fore
SplineSet
96 123 m 2,0,-1
 135 781 l 1,1,-1
 238 781 l 1,2,-1
 199 205 l 2,3,4
 197 164 197 164 227.5 134 c 128,-1,5
 258 104 258 104 303 104 c 2,6,-1
 445 104 l 1,7,-1
 445 658 l 2,8,9
 445 719 445 719 530 761 c 128,-1,10
 615 803 615 803 734 803 c 0,11,12
 779 803 779 803 825 743.5 c 128,-1,13
 871 684 871 684 898 590 c 0,14,15
 918 520 918 520 928.5 423 c 128,-1,16
 939 326 939 326 939 205 c 0,17,18
 939 121 939 121 867 60.5 c 128,-1,19
 795 0 795 0 693 0 c 2,20,-1
 549 0 l 1,21,-1
 549 -82 l 2,22,23
 549 -125 549 -125 573.5 -155.5 c 128,-1,24
 598 -186 598 -186 631 -186 c 2,25,-1
 857 -186 l 1,26,-1
 857 -287 l 1,27,-1
 816 -287 l 2,28,29
 787 -287 787 -287 748 -323 c 128,-1,30
 709 -359 709 -359 674 -422 c 0,31,32
 621 -512 621 -512 554.5 -564.5 c 128,-1,33
 488 -617 488 -617 426 -617 c 0,34,35
 281 -617 281 -617 178.5 -556.5 c 128,-1,36
 76 -496 76 -496 76 -412 c 2,37,-1
 76 -268 l 2,38,39
 76 -211 76 -211 124 -172 c 128,-1,40
 172 -133 172 -133 240 -133 c 0,41,42
 246 -133 246 -133 256 -135 c 128,-1,43
 266 -137 266 -137 281 -141 c 1,44,-1
 281 -268 l 1,45,46
 240 -260 240 -260 209 -288 c 128,-1,47
 178 -316 178 -316 178 -359 c 0,48,49
 178 -424 178 -424 232.5 -469 c 128,-1,50
 287 -514 287 -514 363 -514 c 0,51,52
 424 -514 424 -514 472.5 -489.5 c 128,-1,53
 521 -465 521 -465 547 -422 c 0,54,55
 576 -371 576 -371 600.5 -340 c 128,-1,56
 625 -309 625 -309 645 -297 c 1,57,58
 562 -297 562 -297 503.5 -246 c 128,-1,59
 445 -195 445 -195 445 -123 c 2,60,-1
 445 0 l 1,61,-1
 240 0 l 2,62,63
 180 0 180 0 138 36 c 128,-1,64
 96 72 96 72 96 123 c 2,0,-1
549 104 m 1,65,-1
 672 104 l 2,66,67
 740 104 740 104 788 145.5 c 128,-1,68
 836 187 836 187 836 246 c 0,69,70
 836 311 836 311 825 385 c 128,-1,71
 814 459 814 459 795 541 c 0,72,73
 777 611 777 611 749 655 c 128,-1,74
 721 699 721 699 693 699 c 0,75,76
 633 699 633 699 591 669 c 128,-1,77
 549 639 549 639 549 596 c 2,78,-1
 549 104 l 1,65,-1
EndSplineSet
EndChar

StartChar: tm_va
Encoding: 2997 2997 80
Width: 1387
GlyphClass: 2
Flags: W
LayerCount: 2
Fore
SplineSet
80 123 m 2,0,-1
 80 350 l 2,1,2
 80 537 80 537 212 670 c 128,-1,3
 344 803 344 803 531 803 c 0,4,5
 639 803 639 803 729.5 764 c 128,-1,6
 820 725 820 725 820 678 c 2,7,-1
 820 205 l 2,8,9
 820 180 820 180 805.5 153.5 c 128,-1,10
 791 127 791 127 764 104 c 1,11,-1
 1047 104 l 2,12,13
 1115 104 1115 104 1163 157.5 c 128,-1,14
 1211 211 1211 211 1211 287 c 0,15,16
 1211 445 1211 445 1169 557.5 c 128,-1,17
 1127 670 1127 670 1066 670 c 1,18,-1
 1066 781 l 1,19,-1
 1107 781 l 2,20,21
 1191 781 1191 781 1251.5 636.5 c 128,-1,22
 1312 492 1312 492 1312 287 c 0,23,24
 1312 168 1312 168 1234 84 c 128,-1,25
 1156 0 1156 0 1047 0 c 2,26,-1
 635 0 l 1,27,-1
 635 104 l 1,28,-1
 656 104 l 2,29,30
 682 104 682 104 699.5 128 c 128,-1,31
 717 152 717 152 717 186 c 2,32,-1
 717 596 l 2,33,34
 717 639 717 639 662 669 c 128,-1,35
 607 699 607 699 531 699 c 0,36,37
 385 699 385 699 278.5 614 c 128,-1,38
 172 529 172 529 164 404 c 1,39,40
 203 437 203 437 256 455 c 128,-1,41
 309 473 309 473 367 473 c 0,42,43
 428 473 428 473 470 442.5 c 128,-1,44
 512 412 512 412 512 369 c 2,45,-1
 512 145 l 2,46,47
 512 84 512 84 427 42 c 128,-1,48
 342 0 342 0 223 0 c 0,49,50
 164 0 164 0 122 36 c 128,-1,51
 80 72 80 72 80 123 c 2,0,-1
182 283 m 1,52,-1
 182 205 l 2,53,54
 182 162 182 162 212 133 c 128,-1,55
 242 104 242 104 285 104 c 0,56,57
 326 104 326 104 367 131 c 128,-1,58
 408 158 408 158 408 186 c 2,59,-1
 408 287 l 2,60,61
 408 320 408 320 383.5 344.5 c 128,-1,62
 359 369 359 369 326 369 c 0,63,64
 281 369 281 369 243 345.5 c 128,-1,65
 205 322 205 322 182 283 c 1,52,-1
EndSplineSet
EndChar

StartChar: tm_ssa
Encoding: 2999 2999 81
Width: 1883
GlyphClass: 2
Flags: W
LayerCount: 2
Fore
SplineSet
80 123 m 2,0,-1
 80 350 l 2,1,2
 80 537 80 537 212 670 c 128,-1,3
 344 803 344 803 531 803 c 0,4,5
 639 803 639 803 729.5 764 c 128,-1,6
 820 725 820 725 820 678 c 2,7,-1
 820 186 l 2,8,9
 820 170 820 170 804.5 148.5 c 128,-1,10
 789 127 789 127 760 104 c 1,11,-1
 1416 104 l 1,12,-1
 1416 287 l 1,13,-1
 1170 287 l 2,14,15
 1119 287 1119 287 1083 341.5 c 128,-1,16
 1047 396 1047 396 1047 473 c 0,17,18
 1047 600 1047 600 1137 690.5 c 128,-1,19
 1227 781 1227 781 1354 781 c 0,20,21
 1422 781 1422 781 1471 756.5 c 128,-1,22
 1520 732 1520 732 1520 699 c 2,23,-1
 1520 391 l 1,24,-1
 1725 391 l 2,25,26
 1771 391 1771 391 1804.5 354.5 c 128,-1,27
 1838 318 1838 318 1838 268 c 0,28,29
 1838 156 1838 156 1793 78 c 128,-1,30
 1748 0 1748 0 1684 0 c 2,31,-1
 1520 0 l 1,32,-1
 1520 -205 l 1,33,-1
 1416 -205 l 1,34,-1
 1416 0 l 1,35,-1
 635 0 l 1,36,-1
 635 104 l 1,37,-1
 656 104 l 2,38,39
 682 104 682 104 699.5 128 c 128,-1,40
 717 152 717 152 717 186 c 2,41,-1
 717 596 l 2,42,43
 717 639 717 639 662 669 c 128,-1,44
 607 699 607 699 531 699 c 0,45,46
 385 699 385 699 278.5 614 c 128,-1,47
 172 529 172 529 164 404 c 1,48,49
 203 437 203 437 256 455 c 128,-1,50
 309 473 309 473 367 473 c 0,51,52
 428 473 428 473 470 442.5 c 128,-1,53
 512 412 512 412 512 369 c 2,54,-1
 512 145 l 2,55,56
 512 84 512 84 427 42 c 128,-1,57
 342 0 342 0 223 0 c 0,58,59
 164 0 164 0 122 36 c 128,-1,60
 80 72 80 72 80 123 c 2,0,-1
182 283 m 1,61,-1
 182 205 l 2,62,63
 182 162 182 162 212 133 c 128,-1,64
 242 104 242 104 285 104 c 0,65,66
 326 104 326 104 367 131 c 128,-1,67
 408 158 408 158 408 186 c 2,68,-1
 408 287 l 2,69,70
 408 320 408 320 383.5 344.5 c 128,-1,71
 359 369 359 369 326 369 c 0,72,73
 281 369 281 369 243 345.5 c 128,-1,74
 205 322 205 322 182 283 c 1,61,-1
1148 473 m 0,75,76
 1148 439 1148 439 1184.5 415 c 128,-1,77
 1221 391 1221 391 1271 391 c 2,78,-1
 1416 391 l 1,79,-1
 1416 617 l 2,80,81
 1416 643 1416 643 1391.5 660.5 c 128,-1,82
 1367 678 1367 678 1334 678 c 0,83,84
 1258 678 1258 678 1203 617.5 c 128,-1,85
 1148 557 1148 557 1148 473 c 0,75,76
1520 104 m 1,86,-1
 1643 104 l 2,87,88
 1676 104 1676 104 1700.5 133 c 128,-1,89
 1725 162 1725 162 1725 205 c 0,90,91
 1725 238 1725 238 1700.5 262.5 c 128,-1,92
 1676 287 1676 287 1643 287 c 2,93,-1
 1520 287 l 1,94,-1
 1520 104 l 1,86,-1
EndSplineSet
EndChar

StartChar: tm_sa
Encoding: 3000 3000 82
Width: 1639
GlyphClass: 2
Flags: W
LayerCount: 2
Fore
SplineSet
557 803 m 0,0,1
 623 803 623 803 677.5 785.5 c 128,-1,2
 732 768 732 768 771 736 c 1,3,4
 811 768 811 768 855.5 785.5 c 128,-1,5
 900 803 900 803 947 803 c 0,6,7
 1016 803 1016 803 1063.5 761 c 128,-1,8
 1111 719 1111 719 1111 658 c 2,9,-1
 1111 186 l 2,10,11
 1111 152 1111 152 1141.5 128 c 128,-1,12
 1172 104 1172 104 1215 104 c 2,13,-1
 1297 104 l 2,14,15
 1365 104 1365 104 1413 157.5 c 128,-1,16
 1461 211 1461 211 1461 287 c 0,17,18
 1461 445 1461 445 1419 557.5 c 128,-1,19
 1377 670 1377 670 1316 670 c 1,20,-1
 1316 781 l 1,21,-1
 1357 781 l 2,22,23
 1443 781 1443 781 1503.5 636.5 c 128,-1,24
 1564 492 1564 492 1564 287 c 0,25,26
 1564 168 1564 168 1486 84 c 128,-1,27
 1408 0 1408 0 1297 0 c 2,28,-1
 1152 0 l 2,29,30
 1092 0 1092 0 1050 42 c 128,-1,31
 1008 84 1008 84 1008 145 c 2,32,-1
 1008 596 l 2,33,34
 1008 639 1008 639 972 669 c 128,-1,35
 936 699 936 699 885 699 c 256,36,37
 834 699 834 699 798 669 c 128,-1,38
 762 639 762 639 762 596 c 2,39,-1
 762 0 l 1,40,-1
 660 0 l 1,41,-1
 660 617 l 2,42,43
 660 650 660 650 624 674.5 c 128,-1,44
 588 699 588 699 535 699 c 2,45,-1
 453 699 l 2,46,47
 352 699 352 699 271.5 615 c 128,-1,48
 191 531 191 531 168 404 c 1,49,50
 207 437 207 437 259.5 455 c 128,-1,51
 312 473 312 473 371 473 c 0,52,53
 432 473 432 473 474 442.5 c 128,-1,54
 516 412 516 412 516 369 c 2,55,-1
 516 145 l 2,56,57
 516 84 516 84 443.5 42 c 128,-1,58
 371 0 371 0 270 0 c 0,59,60
 193 0 193 0 138.5 24.5 c 128,-1,61
 84 49 84 49 84 82 c 2,62,-1
 84 391 l 2,63,64
 84 561 84 561 222.5 682 c 128,-1,65
 361 803 361 803 557 803 c 0,0,1
186 281 m 1,66,-1
 186 205 l 2,67,68
 186 162 186 162 216 133 c 128,-1,69
 246 104 246 104 289 104 c 0,70,71
 330 104 330 104 371 131 c 128,-1,72
 412 158 412 158 412 186 c 2,73,-1
 412 287 l 2,74,75
 412 320 412 320 387.5 344.5 c 128,-1,76
 363 369 363 369 330 369 c 0,77,78
 279 369 279 369 239 344.5 c 128,-1,79
 199 320 199 320 186 281 c 1,66,-1
EndSplineSet
EndChar

StartChar: tm_ha
Encoding: 3001 3001 83
Width: 2020
GlyphClass: 2
Flags: W
LayerCount: 2
Fore
SplineSet
80 123 m 2,0,-1
 80 350 l 2,1,2
 80 537 80 537 212 670 c 128,-1,3
 344 803 344 803 531 803 c 0,4,5
 639 803 639 803 729.5 764 c 128,-1,6
 820 725 820 725 820 678 c 2,7,-1
 820 205 l 2,8,9
 820 180 820 180 805.5 153.5 c 128,-1,10
 791 127 791 127 764 104 c 1,11,-1
 982 104 l 1,12,-1
 1025 551 l 2,13,14
 1037 666 1037 666 1132 744 c 128,-1,15
 1227 822 1227 822 1354 822 c 2,16,-1
 1424 822 l 1,17,-1
 1492 711 l 1,18,19
 1533 744 1533 744 1587 762.5 c 128,-1,20
 1641 781 1641 781 1703 781 c 0,21,22
 1797 781 1797 781 1863.5 685.5 c 128,-1,23
 1930 590 1930 590 1930 453 c 0,24,25
 1930 146 1930 146 1846 -70.5 c 128,-1,26
 1762 -287 1762 -287 1643 -287 c 2,27,-1
 285 -287 l 2,28,29
 236 -287 236 -287 201 -317.5 c 128,-1,30
 166 -348 166 -348 166 -391 c 1,31,-1
 43 -391 l 1,32,33
 43 -307 43 -307 95.5 -246.5 c 128,-1,34
 148 -186 148 -186 223 -186 c 2,35,-1
 1621 -186 l 2,36,37
 1707 -186 1707 -186 1767.5 -17 c 128,-1,38
 1828 152 1828 152 1828 391 c 0,39,40
 1828 510 1828 510 1779 594 c 128,-1,41
 1730 678 1730 678 1662 678 c 256,42,43
 1594 678 1594 678 1546 636 c 128,-1,44
 1498 594 1498 594 1498 535 c 2,45,-1
 1498 0 l 1,46,-1
 1395 0 l 1,47,-1
 1395 576 l 2,48,49
 1395 611 1395 611 1410.5 643.5 c 128,-1,50
 1426 676 1426 676 1453 699 c 1,51,52
 1426 709 1426 709 1401.5 714 c 128,-1,53
 1377 719 1377 719 1354 719 c 0,54,55
 1264 719 1264 719 1199.5 667 c 128,-1,56
 1135 615 1135 615 1129 539 c 2,57,-1
 1090 0 l 1,58,-1
 635 0 l 1,59,-1
 635 104 l 1,60,-1
 656 104 l 2,61,62
 682 104 682 104 699.5 128 c 128,-1,63
 717 152 717 152 717 186 c 2,64,-1
 717 596 l 2,65,66
 717 639 717 639 662 669 c 128,-1,67
 607 699 607 699 531 699 c 0,68,69
 385 699 385 699 278.5 614 c 128,-1,70
 172 529 172 529 164 404 c 1,71,72
 203 437 203 437 256 455 c 128,-1,73
 309 473 309 473 367 473 c 0,74,75
 428 473 428 473 470 442.5 c 128,-1,76
 512 412 512 412 512 369 c 2,77,-1
 512 145 l 2,78,79
 512 84 512 84 427 42 c 128,-1,80
 342 0 342 0 223 0 c 0,81,82
 164 0 164 0 122 36 c 128,-1,83
 80 72 80 72 80 123 c 2,0,-1
182 283 m 1,84,-1
 182 205 l 2,85,86
 182 162 182 162 212 133 c 128,-1,87
 242 104 242 104 285 104 c 0,88,89
 326 104 326 104 367 131 c 128,-1,90
 408 158 408 158 408 186 c 2,91,-1
 408 287 l 2,92,93
 408 320 408 320 383.5 344.5 c 128,-1,94
 359 369 359 369 326 369 c 0,95,96
 281 369 281 369 243 345.5 c 128,-1,97
 205 322 205 322 182 283 c 1,84,-1
EndSplineSet
EndChar

StartChar: tm_aakaar
Encoding: 3006 3006 84
Width: 828
GlyphClass: 2
Flags: W
LayerCount: 2
Fore
SplineSet
78 0 m 1,0,-1
 117 531 l 1,1,2
 131 656 131 656 261 739 c 128,-1,3
 391 822 391 822 570 822 c 0,4,5
 654 822 654 822 716.5 815.5 c 128,-1,6
 779 809 779 809 816 795 c 1,7,-1
 816 689 l 1,8,9
 791 703 791 703 734.5 711 c 128,-1,10
 678 719 678 719 592 719 c 1,11,-1
 592 0 l 1,12,-1
 488 0 l 1,13,-1
 488 725 l 1,14,15
 381 725 381 725 304 671 c 128,-1,16
 227 617 227 617 221 539 c 2,17,-1
 182 0 l 1,18,-1
 78 0 l 1,0,-1
EndSplineSet
EndChar

StartChar: tm_ikaar
Encoding: 3007 3007 85
Width: 1016
GlyphClass: 2
Flags: W
LayerCount: 2
Fore
SplineSet
117 1154 m 2,0,1
 117 1256 117 1256 214 1327 c 128,-1,2
 311 1398 311 1398 447 1398 c 0,3,4
 635 1398 635 1398 766.5 1290 c 128,-1,5
 898 1182 898 1182 898 1027 c 2,6,-1
 898 0 l 1,7,-1
 797 0 l 1,8,-1
 797 1068 l 2,9,10
 797 1162 797 1162 694.5 1228.5 c 128,-1,11
 592 1295 592 1295 447 1295 c 0,12,13
 354 1295 354 1295 287.5 1253 c 128,-1,14
 221 1211 221 1211 221 1150 c 2,15,-1
 221 822 l 1,16,-1
 117 797 l 1,17,-1
 117 1154 l 2,0,1
EndSplineSet
EndChar

StartChar: tm_iikaar
Encoding: 3008 3008 86
Width: 748
GlyphClass: 4
Flags: W
LayerCount: 2
Fore
SplineSet
117 1195 m 2,0,1
 117 1262 117 1262 214.5 1330 c 128,-1,2
 312 1398 312 1398 408 1398 c 0,3,4
 500 1398 500 1398 565.5 1337.5 c 128,-1,5
 631 1277 631 1277 631 1193 c 2,6,-1
 631 1148 l 2,7,8
 631 1064 631 1064 553 1004.5 c 128,-1,9
 475 945 475 945 365 945 c 0,10,11
 320 945 320 945 284 953 c 128,-1,12
 248 961 248 961 221 977 c 1,13,-1
 221 773 l 1,14,-1
 117 826 l 1,15,-1
 117 1195 l 2,0,1
221 1064 m 1,16,17
 242 1057 242 1057 262.5 1053 c 128,-1,18
 283 1049 283 1049 303 1049 c 2,19,-1
 365 1049 l 2,20,21
 434 1049 434 1049 481.5 1078 c 128,-1,22
 529 1107 529 1107 529 1150 c 2,23,-1
 529 1193 l 2,24,25
 529 1236 529 1236 493 1265.5 c 128,-1,26
 457 1295 457 1295 406 1295 c 0,27,28
 330 1295 330 1295 275.5 1253 c 128,-1,29
 221 1211 221 1211 221 1150 c 2,30,-1
 221 1064 l 1,16,17
EndSplineSet
EndChar

StartChar: tm_ukaar
Encoding: 3009 3009 87
Width: 758
GlyphClass: 4
Flags: W
LayerCount: 2
Fore
SplineSet
-299 678 m 1,0,-1
 -299 781 l 1,1,-1
 615 781 l 2,2,3
 648 781 648 781 672.5 756.5 c 128,-1,4
 697 732 697 732 697 699 c 2,5,-1
 697 453 l 2,6,7
 697 393 697 393 631.5 351 c 128,-1,8
 566 309 566 309 473 309 c 0,9,10
 387 309 387 309 326.5 351 c 128,-1,11
 266 393 266 393 266 453 c 2,12,-1
 266 678 l 1,13,-1
 -299 678 l 1,0,-1
369 678 m 1,14,-1
 369 514 l 2,15,16
 369 471 369 471 396.5 441.5 c 128,-1,17
 424 412 424 412 461 412 c 0,18,19
 518 412 518 412 557 441.5 c 128,-1,20
 596 471 596 471 596 514 c 2,21,-1
 596 576 l 2,22,23
 596 619 596 619 571.5 648.5 c 128,-1,24
 547 678 547 678 514 678 c 2,25,-1
 369 678 l 1,14,-1
EndSplineSet
EndChar

StartChar: tm_uukaar
Encoding: 3010 3010 88
Width: 1107
GlyphClass: 4
Flags: W
LayerCount: 2
Fore
SplineSet
-299 678 m 1,0,-1
 -299 781 l 1,1,-1
 262 781 l 1,2,3
 277 922 277 922 373 1015.5 c 128,-1,4
 469 1109 469 1109 596 1109 c 2,5,-1
 820 1109 l 2,6,7
 896 1109 896 1109 951 1055.5 c 128,-1,8
 1006 1002 1006 1002 1006 926 c 2,9,-1
 1006 186 l 2,10,11
 1006 109 1006 109 880 54.5 c 128,-1,12
 754 0 754 0 574 0 c 0,13,14
 473 0 473 0 404.5 9 c 128,-1,15
 336 18 336 18 307 35 c 1,16,-1
 307 152 l 1,17,18
 348 129 348 129 416 116.5 c 128,-1,19
 484 104 484 104 574 104 c 0,20,21
 711 104 711 104 807.5 157.5 c 128,-1,22
 904 211 904 211 904 287 c 2,23,-1
 904 885 l 2,24,25
 904 936 904 936 868 972 c 128,-1,26
 832 1008 832 1008 779 1008 c 2,27,-1
 596 1008 l 2,28,29
 500 1008 500 1008 432.5 941.5 c 128,-1,30
 365 875 365 875 365 781 c 1,31,-1
 615 781 l 2,32,33
 648 781 648 781 672.5 756.5 c 128,-1,34
 697 732 697 732 697 699 c 2,35,-1
 697 453 l 2,36,37
 697 393 697 393 631.5 351 c 128,-1,38
 566 309 566 309 473 309 c 0,39,40
 387 309 387 309 326.5 351 c 128,-1,41
 266 393 266 393 266 453 c 2,42,-1
 266 678 l 1,43,-1
 -299 678 l 1,0,-1
369 678 m 1,44,-1
 369 514 l 2,45,46
 369 471 369 471 396.5 441.5 c 128,-1,47
 424 412 424 412 461 412 c 0,48,49
 518 412 518 412 557 441.5 c 128,-1,50
 596 471 596 471 596 514 c 2,51,-1
 596 576 l 2,52,53
 596 619 596 619 571.5 648.5 c 128,-1,54
 547 678 547 678 514 678 c 2,55,-1
 369 678 l 1,44,-1
EndSplineSet
EndChar

StartChar: tm_ekaar
Encoding: 3014 3014 89
Width: 1266
GlyphClass: 2
Flags: W
LayerCount: 2
Fore
SplineSet
59 699 m 256,0,1
 59 988 59 988 197.5 1193 c 128,-1,2
 336 1398 336 1398 531 1398 c 2,3,-1
 695 1398 l 2,4,5
 883 1398 883 1398 1015.5 1284 c 128,-1,6
 1148 1170 1148 1170 1148 1008 c 2,7,-1
 1148 0 l 1,8,-1
 1045 0 l 1,9,-1
 1045 1008 l 2,10,11
 1045 1127 1045 1127 942.5 1211 c 128,-1,12
 840 1295 840 1295 695 1295 c 2,13,-1
 531 1295 l 2,14,15
 377 1295 377 1295 268.5 1120 c 128,-1,16
 160 945 160 945 160 699 c 0,17,18
 160 562 160 562 182.5 459.5 c 128,-1,19
 205 357 205 357 246 299 c 1,20,21
 268 377 268 377 307 425 c 128,-1,22
 346 473 346 473 387 473 c 2,23,-1
 592 473 l 2,24,25
 635 473 635 473 665 442.5 c 128,-1,26
 695 412 695 412 695 369 c 2,27,-1
 695 145 l 2,28,29
 695 84 695 84 640.5 42 c 128,-1,30
 586 0 586 0 510 0 c 0,31,32
 322 0 322 0 190.5 205 c 128,-1,33
 59 410 59 410 59 699 c 256,0,1
367 180 m 1,34,35
 387 145 387 145 420 124.5 c 128,-1,36
 453 104 453 104 490 104 c 0,37,38
 533 104 533 104 562.5 145.5 c 128,-1,39
 592 187 592 187 592 246 c 0,40,41
 592 297 592 297 562.5 333 c 128,-1,42
 533 369 533 369 490 369 c 0,43,44
 430 369 430 369 392 311.5 c 128,-1,45
 354 254 354 254 367 180 c 1,34,35
EndSplineSet
EndChar

StartChar: tm_eekaar
Encoding: 3015 3015 90
Width: 883
GlyphClass: 2
Flags: W
LayerCount: 2
Fore
SplineSet
61 699 m 256,0,1
 61 988 61 988 186.5 1193 c 128,-1,2
 312 1398 312 1398 492 1398 c 2,3,-1
 719 1398 l 2,4,5
 762 1398 762 1398 791 1368 c 128,-1,6
 820 1338 820 1338 820 1295 c 2,7,-1
 820 1068 l 2,8,9
 820 1010 820 1010 784 968 c 128,-1,10
 748 926 748 926 697 926 c 2,11,-1
 512 926 l 2,12,13
 461 926 461 926 425 955 c 128,-1,14
 389 984 389 984 389 1027 c 2,15,-1
 389 1271 l 1,16,17
 291 1189 291 1189 237.5 1039 c 128,-1,18
 184 889 184 889 184 699 c 0,19,20
 184 537 184 537 231.5 394.5 c 128,-1,21
 279 252 279 252 369 145 c 1,22,-1
 369 369 l 2,23,24
 369 412 369 412 405 442.5 c 128,-1,25
 441 473 441 473 492 473 c 2,26,-1
 738 473 l 2,27,28
 771 473 771 473 795.5 442.5 c 128,-1,29
 820 412 820 412 820 369 c 2,30,-1
 820 164 l 2,31,32
 820 96 820 96 766.5 48 c 128,-1,33
 713 0 713 0 637 0 c 2,34,-1
 492 0 l 2,35,36
 312 0 312 0 186.5 205 c 128,-1,37
 61 410 61 410 61 699 c 256,0,1
492 246 m 0,38,39
 492 187 492 187 525.5 145.5 c 128,-1,40
 559 104 559 104 605 104 c 0,41,42
 662 104 662 104 690.5 140 c 128,-1,43
 719 176 719 176 719 246 c 0,44,45
 719 307 719 307 690.5 338 c 128,-1,46
 662 369 662 369 605 369 c 0,47,48
 549 369 549 369 520.5 338 c 128,-1,49
 492 307 492 307 492 246 c 0,38,39
492 1150 m 0,50,51
 492 1090 492 1090 520.5 1058.5 c 128,-1,52
 549 1027 549 1027 605 1027 c 0,53,54
 662 1027 662 1027 690.5 1058.5 c 128,-1,55
 719 1090 719 1090 719 1150 c 0,56,57
 719 1223 719 1223 690.5 1259 c 128,-1,58
 662 1295 662 1295 605 1295 c 0,59,60
 559 1295 559 1295 525.5 1253 c 128,-1,61
 492 1211 492 1211 492 1150 c 0,50,51
EndSplineSet
EndChar

StartChar: tm_aikaar
Encoding: 3016 3016 91
Width: 1705
GlyphClass: 2
Flags: W
LayerCount: 2
Fore
SplineSet
88 123 m 2,0,-1
 88 453 l 2,1,2
 88 598 88 598 220 700.5 c 128,-1,3
 352 803 352 803 539 803 c 0,4,5
 588 803 588 803 631 798 c 128,-1,6
 674 793 674 793 709 785 c 1,7,-1
 734 672 l 1,8,9
 764 723 764 723 800 752 c 128,-1,10
 836 781 836 781 869 781 c 2,11,-1
 1424 781 l 2,12,13
 1508 781 1508 781 1568.5 636.5 c 128,-1,14
 1629 492 1629 492 1629 287 c 0,15,16
 1629 170 1629 170 1562.5 88 c 128,-1,17
 1496 6 1496 6 1402 6 c 1,18,-1
 1402 107 l 1,19,20
 1455 107 1455 107 1491 160 c 128,-1,21
 1527 213 1527 213 1527 287 c 0,22,23
 1527 449 1527 449 1485 563.5 c 128,-1,24
 1443 678 1443 678 1383 678 c 2,25,-1
 1203 678 l 1,26,27
 1240 633 1240 633 1259.5 549 c 128,-1,28
 1279 465 1279 465 1279 350 c 0,29,30
 1279 205 1279 205 1176.5 102.5 c 128,-1,31
 1074 0 1074 0 930 0 c 0,32,33
 828 0 828 0 756 91 c 128,-1,34
 684 182 684 182 684 309 c 0,35,36
 684 426 684 426 695.5 505 c 128,-1,37
 707 584 707 584 729 623 c 1,38,39
 697 660 697 660 642.5 679.5 c 128,-1,40
 588 699 588 699 520 699 c 0,41,42
 383 699 383 699 282.5 609.5 c 128,-1,43
 182 520 182 520 172 387 c 1,44,45
 223 430 223 430 259 451.5 c 128,-1,46
 295 473 295 473 314 473 c 2,47,-1
 416 473 l 2,48,49
 459 473 459 473 489.5 436.5 c 128,-1,50
 520 400 520 400 520 350 c 2,51,-1
 520 164 l 2,52,53
 520 96 520 96 453.5 48 c 128,-1,54
 387 0 387 0 293 0 c 0,55,56
 209 0 209 0 148.5 36 c 128,-1,57
 88 72 88 72 88 123 c 2,0,-1
787 268 m 2,58,59
 787 199 787 199 841 151.5 c 128,-1,60
 895 104 895 104 971 104 c 0,61,62
 1057 104 1057 104 1117.5 176 c 128,-1,63
 1178 248 1178 248 1178 350 c 0,64,65
 1178 486 1178 486 1136 582 c 128,-1,66
 1094 678 1094 678 1033 678 c 2,67,-1
 924 678 l 1,68,69
 861 641 861 641 824 575.5 c 128,-1,70
 787 510 787 510 787 432 c 2,71,-1
 787 268 l 2,58,59
189 281 m 1,72,-1
 189 205 l 2,73,74
 189 162 189 162 219.5 133 c 128,-1,75
 250 104 250 104 293 104 c 0,76,77
 334 104 334 104 375 131 c 128,-1,78
 416 158 416 158 416 186 c 2,79,-1
 416 287 l 2,80,81
 416 320 416 320 386.5 344.5 c 128,-1,82
 357 369 357 369 314 369 c 0,83,84
 273 369 273 369 238 344.5 c 128,-1,85
 203 320 203 320 189 281 c 1,72,-1
EndSplineSet
EndChar

StartChar: tm_halant
Encoding: 3021 3021 95
Width: 430
GlyphClass: 4
Flags: W
LayerCount: 2
Fore
SplineSet
102 1023 m 2,0,-1
 102 1187 l 2,1,2
 102 1205 102 1205 127 1222.5 c 128,-1,3
 152 1240 152 1240 191 1250 c 0,4,5
 240 1262 240 1262 262.5 1266.5 c 128,-1,6
 285 1271 285 1271 297 1271 c 0,7,8
 311 1271 311 1271 319.5 1265.5 c 128,-1,9
 328 1260 328 1260 328 1250 c 2,10,-1
 328 1105 l 2,11,12
 328 1072 328 1072 312.5 1046.5 c 128,-1,13
 297 1021 297 1021 271 1014 c 0,14,15
 215 998 215 998 182.5 990 c 128,-1,16
 150 982 150 982 133 982 c 0,17,18
 119 982 119 982 110.5 994 c 128,-1,19
 102 1006 102 1006 102 1023 c 2,0,-1
EndSplineSet
EndChar

StartChar: tm_two
Encoding: 3048 3048 98
Width: 1425
GlyphClass: 2
Flags: W
LayerCount: 2
Fore
SplineSet
1244 70 m 1,0,-1
 1226 0 l 1,1,-1
 586 0 l 2,2,3
 429 0 429 0 429 106 c 0,4,5
 429 153 429 153 478 181.5 c 128,-1,6
 527 210 527 210 586 210 c 2,7,-1
 779 210 l 2,8,9
 867 210 867 210 928 271.5 c 128,-1,10
 989 333 989 333 989 420 c 0,11,12
 989 500 989 500 945 560.5 c 128,-1,13
 901 621 901 621 831 621 c 0,14,15
 793 621 793 621 744 595 c 1,16,17
 814 555 814 555 814 437 c 0,18,19
 814 382 814 382 772.5 344.5 c 128,-1,20
 731 307 731 307 675 307 c 0,21,22
 618 307 618 307 580 351 c 128,-1,23
 542 395 542 395 542 455 c 0,24,25
 542 565 542 565 646.5 632.5 c 128,-1,26
 751 700 751 700 884 700 c 0,27,28
 987 700 987 700 1058 629 c 128,-1,29
 1129 558 1129 558 1129 455 c 0,30,31
 1129 321 1129 321 1025.5 230.5 c 128,-1,32
 922 140 922 140 779 140 c 2,33,-1
 595 140 l 2,34,35
 551 140 551 140 551 106 c 0,36,37
 551 70 551 70 604 70 c 2,38,-1
 1244 70 l 1,0,-1
675 560 m 1,39,40
 621 516 621 516 621 473 c 0,41,42
 621 386 621 386 666 386 c 0,43,44
 709 386 709 386 709 473 c 0,45,46
 709 518 709 518 675 560 c 1,39,40
EndSplineSet
EndChar

StartChar: tm_three
Encoding: 3049 3049 99
Width: 1424
GlyphClass: 2
Flags: W
LayerCount: 2
Fore
SplineSet
1270 70 m 1,0,-1
 1252 0 l 1,1,-1
 640 0 l 1,2,-1
 657 70 l 1,3,-1
 780 70 l 2,4,5
 874 70 874 70 941 130.5 c 128,-1,6
 1008 191 1008 191 1008 280 c 0,7,8
 1008 317 1008 317 982.5 342.5 c 128,-1,9
 957 368 957 368 920 368 c 0,10,11
 890 368 890 368 865 341 c 128,-1,12
 840 314 840 314 833 280 c 2,13,-1
 815 193 l 1,14,-1
 675 193 l 1,15,-1
 764 630 l 1,16,-1
 571 630 l 1,17,-1
 444 0 l 1,18,-1
 378 0 l 1,19,-1
 517 700 l 1,20,-1
 1095 700 l 1,21,-1
 1077 630 l 1,22,-1
 902 630 l 1,23,-1
 859 403 l 1,24,25
 918 455 918 455 990 455 c 0,26,27
 1057 455 1057 455 1102.5 403.5 c 128,-1,28
 1148 352 1148 352 1148 280 c 0,29,30
 1148 209 1148 209 1090 151 c 128,-1,31
 1032 93 1032 93 947 70 c 1,32,-1
 1270 70 l 1,0,-1
EndSplineSet
EndChar

StartChar: tm_four
Encoding: 3050 3050 100
Width: 809
GlyphClass: 2
Flags: W
LayerCount: 2
Fore
SplineSet
51 186 m 0,0,1
 51 271 51 271 86 340.5 c 128,-1,2
 121 410 121 410 184 445 c 1,3,4
 174 463 174 463 169 491.5 c 128,-1,5
 164 520 164 520 164 557 c 0,6,7
 164 666 164 666 272.5 744 c 128,-1,8
 381 822 381 822 533 822 c 0,9,10
 625 822 625 822 686.5 818 c 128,-1,11
 748 814 748 814 779 807 c 1,12,-1
 779 705 l 1,13,14
 756 713 756 713 710 716 c 128,-1,15
 664 719 664 719 574 719 c 1,16,-1
 574 514 l 1,17,18
 658 514 658 514 707 510 c 128,-1,19
 756 506 756 506 779 498 c 1,20,-1
 779 373 l 1,21,22
 762 393 762 393 709 403.5 c 128,-1,23
 656 414 656 414 574 414 c 1,24,-1
 574 145 l 2,25,26
 574 76 574 76 460 27.5 c 128,-1,27
 346 -21 346 -21 184 -21 c 0,28,29
 129 -21 129 -21 90 39.5 c 128,-1,30
 51 100 51 100 51 186 c 0,0,1
164 246 m 2,31,-1
 164 186 l 2,32,33
 164 143 164 143 188.5 112.5 c 128,-1,34
 213 82 213 82 246 82 c 0,35,36
 340 82 340 82 406.5 118 c 128,-1,37
 473 154 473 154 473 205 c 2,38,-1
 473 412 l 1,39,-1
 389 412 l 2,40,41
 295 412 295 412 229.5 363 c 128,-1,42
 164 314 164 314 164 246 c 2,31,-1
266 555 m 0,43,44
 266 535 266 535 271.5 518.5 c 128,-1,45
 277 502 277 502 287 490 c 1,46,47
 318 502 318 502 365 508 c 128,-1,48
 412 514 412 514 473 514 c 1,49,-1
 473 727 l 1,50,51
 385 717 385 717 325.5 668 c 128,-1,52
 266 619 266 619 266 555 c 0,43,44
EndSplineSet
EndChar

StartChar: tm_five
Encoding: 3051 3051 101
Width: 1424
GlyphClass: 2
Flags: W
LayerCount: 2
Fore
SplineSet
1412 517 m 1,0,-1
 1359 526 l 1,1,2
 1369 563 1369 563 1369 598 c 0,3,4
 1369 723 1369 723 1253.5 825.5 c 128,-1,5
 1138 928 1138 928 965 928 c 0,6,7
 728 928 728 928 575.5 716 c 128,-1,8
 423 504 423 504 423 228 c 0,9,10
 423 -43 423 -43 515 -179.5 c 128,-1,11
 607 -316 607 -316 790 -316 c 0,12,13
 979 -316 979 -316 1103.5 -163.5 c 128,-1,14
 1228 -11 1228 -11 1228 193 c 0,15,16
 1228 257 1228 257 1200 304.5 c 128,-1,17
 1172 352 1172 352 1126 352 c 0,18,19
 1099 352 1099 352 1072.5 336.5 c 128,-1,20
 1046 321 1046 321 1039 298 c 2,21,-1
 980 0 l 1,22,-1
 840 0 l 1,23,-1
 965 630 l 1,24,-1
 759 630 l 1,25,-1
 634 0 l 1,26,-1
 566 0 l 1,27,-1
 706 700 l 1,28,-1
 1237 700 l 1,29,-1
 1219 630 l 1,30,-1
 1105 630 l 1,31,-1
 1057 386 l 1,32,33
 1101 437 1101 437 1171 437 c 0,34,35
 1261 437 1261 437 1314.5 368.5 c 128,-1,36
 1368 300 1368 300 1368 193 c 0,37,38
 1368 -47 1368 -47 1202.5 -216 c 128,-1,39
 1037 -385 1037 -385 799 -385 c 0,40,41
 589 -385 589 -385 471.5 -223 c 128,-1,42
 354 -61 354 -61 354 193 c 0,43,44
 354 513 354 513 519 764 c 128,-1,45
 684 1015 684 1015 948 1015 c 0,46,47
 1152 1015 1152 1015 1288.5 889.5 c 128,-1,48
 1425 764 1425 764 1425 613 c 0,49,50
 1425 566 1425 566 1412 517 c 1,0,-1
EndSplineSet
EndChar

StartChar: tm_six
Encoding: 3052 3052 102
Width: 1424
GlyphClass: 2
Flags: W
LayerCount: 2
Fore
SplineSet
784 316 m 1,0,-1
 513 316 l 2,1,2
 469 316 469 316 438 291 c 128,-1,3
 407 266 407 266 407 228 c 0,4,5
 407 158 407 158 477 114 c 128,-1,6
 547 70 547 70 635 70 c 0,7,8
 680 70 680 70 713 99.5 c 128,-1,9
 746 129 746 129 756 175 c 2,10,-1
 784 316 l 1,0,-1
846 630 m 1,11,-1
 653 630 l 1,12,-1
 603 386 l 1,13,-1
 798 386 l 1,14,-1
 846 630 l 1,11,-1
910 245 m 2,15,16
 884 125 884 125 808 62.5 c 128,-1,17
 732 0 732 0 635 0 c 0,18,19
 518 0 518 0 428 64 c 128,-1,20
 338 128 338 128 338 228 c 0,21,22
 338 294 338 294 389.5 340 c 128,-1,23
 441 386 441 386 513 386 c 2,24,-1
 537 386 l 1,25,-1
 600 700 l 1,26,-1
 1229 700 l 1,27,-1
 1213 630 l 1,28,-1
 988 630 l 1,29,-1
 938 386 l 1,30,-1
 1422 386 l 1,31,-1
 1410 316 l 1,32,-1
 1353 316 l 1,33,-1
 1291 0 l 1,34,-1
 1151 0 l 1,35,-1
 1213 316 l 1,36,-1
 1116 316 l 1,37,-1
 1055 0 l 1,38,-1
 967 0 l 1,39,-1
 1028 316 l 1,40,-1
 924 316 l 1,41,-1
 910 245 l 2,15,16
EndSplineSet
EndChar

StartChar: tm_seven
Encoding: 3053 3053 103
Width: 1425
GlyphClass: 2
Flags: W
LayerCount: 2
Fore
SplineSet
643 88 m 1,0,1
 706 88 706 88 753 128 c 128,-1,2
 800 168 800 168 800 228 c 0,3,4
 800 269 800 269 781 301 c 128,-1,5
 762 333 762 333 729 333 c 0,6,7
 684 333 684 333 654.5 296.5 c 128,-1,8
 625 260 625 260 625 210 c 0,9,10
 625 135 625 135 643 88 c 1,0,1
1042 0 m 1,11,-1
 1167 630 l 1,12,-1
 852 630 l 2,13,14
 704 630 704 630 594.5 540.5 c 128,-1,15
 485 451 485 451 485 316 c 0,16,17
 485 247 485 247 507 194.5 c 128,-1,18
 529 142 529 142 572 106 c 1,19,20
 555 135 555 135 555 228 c 256,21,22
 555 321 555 321 614.5 388 c 128,-1,23
 674 455 674 455 765 455 c 0,24,25
 837 455 837 455 884 398 c 128,-1,26
 931 341 931 341 931 263 c 0,27,28
 931 155 931 155 863 77.5 c 128,-1,29
 795 0 795 0 695 0 c 0,30,31
 576 0 576 0 495.5 94 c 128,-1,32
 415 188 415 188 415 316 c 0,33,34
 415 481 415 481 545.5 590.5 c 128,-1,35
 676 700 676 700 852 700 c 2,36,-1
 1430 700 l 1,37,-1
 1412 630 l 1,38,-1
 1307 630 l 1,39,-1
 1181 0 l 1,40,-1
 1042 0 l 1,11,-1
EndSplineSet
EndChar

StartChar: tm_eight
Encoding: 3054 3054 104
Width: 1427
GlyphClass: 2
Flags: W
LayerCount: 2
Fore
SplineSet
849 629 m 1,0,1
 745 611 745 611 670 548.5 c 128,-1,2
 595 486 595 486 595 402 c 0,3,4
 595 338 595 338 638.5 291 c 128,-1,5
 682 244 682 244 744 244 c 0,6,7
 817 244 817 244 864 307.5 c 128,-1,8
 911 371 911 371 911 454 c 0,9,10
 911 580 911 580 849 629 c 1,0,1
1024 140 m 1,11,-1
 411 140 l 2,12,13
 381 140 381 140 357 125 c 128,-1,14
 333 110 333 110 333 87 c 0,15,16
 333 43 333 43 412 -13.5 c 128,-1,17
 491 -70 491 -70 639 -70 c 0,18,19
 743 -70 743 -70 839.5 -18 c 128,-1,20
 936 34 936 34 1024 140 c 1,11,-1
1414 -245 m 1,21,-1
 1269 -245 l 1,22,-1
 1348 140 l 1,23,-1
 1164 140 l 1,24,25
 1051 4 1051 4 915 -63.5 c 128,-1,26
 779 -131 779 -131 621 -131 c 0,27,28
 421 -131 421 -131 311.5 -52.5 c 128,-1,29
 202 26 202 26 202 123 c 0,30,31
 202 160 202 160 233 184.5 c 128,-1,32
 264 209 264 209 307 209 c 2,33,-1
 666 209 l 1,34,35
 604 231 604 231 565 284.5 c 128,-1,36
 526 338 526 338 526 402 c 0,37,38
 526 534 526 534 652 617 c 128,-1,39
 778 700 778 700 937 700 c 0,40,41
 1069 700 1069 700 1169 620.5 c 128,-1,42
 1269 541 1269 541 1269 420 c 0,43,44
 1269 306 1269 306 1213 209 c 1,45,-1
 1364 209 l 1,46,-1
 1463 700 l 1,47,-1
 1603 700 l 1,48,-1
 1414 -245 l 1,21,-1
989 620 m 1,49,50
 1042 530 1042 530 1042 411 c 0,51,52
 1042 267 1042 267 919 209 c 1,53,-1
 1077 209 l 1,54,55
 1146 308 1146 308 1146 402 c 0,56,57
 1146 486 1146 486 1103 553 c 128,-1,58
 1060 620 1060 620 989 620 c 1,49,50
EndSplineSet
EndChar

StartChar: tm_nine
Encoding: 3055 3055 105
Width: 1427
GlyphClass: 2
Flags: W
LayerCount: 2
Fore
SplineSet
692 316 m 1,0,-1
 422 316 l 2,1,2
 379 316 379 316 348 291 c 128,-1,3
 317 266 317 266 317 228 c 0,4,5
 317 158 317 158 387 114 c 128,-1,6
 457 70 457 70 544 70 c 0,7,8
 589 70 589 70 622 99.5 c 128,-1,9
 655 129 655 129 665 175 c 2,10,-1
 692 316 l 1,0,-1
756 630 m 1,11,-1
 562 630 l 1,12,-1
 513 386 l 1,13,-1
 707 386 l 1,14,-1
 756 630 l 1,11,-1
1157 175 m 0,15,16
 1157 259 1157 259 1052 298 c 1,17,18
 982 240 982 240 982 158 c 0,19,20
 982 121 982 121 1007.5 95.5 c 128,-1,21
 1033 70 1033 70 1068 70 c 0,22,23
 1107 70 1107 70 1132 101.5 c 128,-1,24
 1157 133 1157 133 1157 175 c 0,15,16
1297 0 m 1,25,26
 1375 93 1375 93 1375 193 c 0,27,28
 1375 263 1375 263 1332.5 315.5 c 128,-1,29
 1290 368 1290 368 1226 368 c 0,30,31
 1163 368 1163 368 1113 342 c 1,32,33
 1167 322 1167 322 1201 276.5 c 128,-1,34
 1235 231 1235 231 1235 175 c 0,35,36
 1235 104 1235 104 1187 52 c 128,-1,37
 1139 0 1139 0 1068 0 c 0,38,39
 1005 0 1005 0 958.5 46.5 c 128,-1,40
 912 93 912 93 912 158 c 0,41,42
 912 257 912 257 982 316 c 1,43,-1
 833 316 l 1,44,-1
 819 245 l 2,45,46
 795 125 795 125 718.5 62.5 c 128,-1,47
 642 0 642 0 544 0 c 0,48,49
 428 0 428 0 337 64 c 128,-1,50
 246 128 246 128 246 228 c 0,51,52
 246 294 246 294 299 340 c 128,-1,53
 352 386 352 386 422 386 c 2,54,-1
 446 386 l 1,55,-1
 508 700 l 1,56,-1
 1122 700 l 1,57,-1
 1104 630 l 1,58,-1
 896 630 l 1,59,-1
 847 386 l 1,60,-1
 947 386 l 2,61,62
 1014 386 1014 386 1052 368 c 1,63,64
 1111 420 1111 420 1226 420 c 0,65,66
 1327 420 1327 420 1399.5 354.5 c 128,-1,67
 1472 289 1472 289 1472 193 c 0,68,69
 1472 109 1472 109 1410 0 c 1,70,-1
 1297 0 l 1,25,26
EndSplineSet
EndChar

StartChar: tm_ten
Encoding: 3056 3056 106
Width: 1219
GlyphClass: 2
Flags: W
LayerCount: 2
Fore
SplineSet
86 105 m 2,0,-1
 125 670 l 1,1,-1
 229 670 l 1,2,-1
 189 176 l 2,3,4
 187 141 187 141 211.5 114.5 c 128,-1,5
 236 88 236 88 271 88 c 0,6,7
 342 88 342 88 413 134 c 128,-1,8
 484 180 484 180 539 260 c 1,9,-1
 549 670 l 1,10,-1
 652 670 l 1,11,-1
 643 176 l 2,12,13
 643 135 643 135 681 106.5 c 128,-1,14
 719 78 719 78 773 78 c 2,15,-1
 881 78 l 2,16,17
 953 78 953 78 999 163 c 128,-1,18
 1045 248 1045 248 1037 363 c 1,19,20
 1037 537 1037 537 939.5 659 c 128,-1,21
 842 781 842 781 703 781 c 2,22,-1
 414 781 l 1,23,-1
 447 879 l 1,24,-1
 725 879 l 2,25,26
 896 879 896 879 1018.5 728.5 c 128,-1,27
 1141 578 1141 578 1141 365 c 1,28,29
 1156 219 1156 219 1095.5 109.5 c 128,-1,30
 1035 0 1035 0 939 0 c 2,31,-1
 662 0 l 2,32,33
 619 0 619 0 582 33 c 128,-1,34
 545 66 545 66 527 119 c 1,35,36
 477 62 477 62 394 31 c 128,-1,37
 311 0 311 0 209 0 c 0,38,39
 158 0 158 0 122 31 c 128,-1,40
 86 62 86 62 86 105 c 2,0,-1
EndSplineSet
EndChar

StartChar: tm_hundred
Encoding: 3057 3057 107
Width: 1236
GlyphClass: 2
Flags: W
LayerCount: 2
Fore
SplineSet
82 0 m 1,0,-1
 121 551 l 2,1,2
 133 666 133 666 227.5 744 c 128,-1,3
 322 822 322 822 449 822 c 2,4,-1
 520 822 l 1,5,-1
 588 711 l 1,6,7
 633 764 633 764 735.5 793 c 128,-1,8
 838 822 838 822 979 822 c 0,9,10
 1062 822 1062 822 1124.5 815.5 c 128,-1,11
 1187 809 1187 809 1225 795 c 1,12,-1
 1225 689 l 1,13,14
 1199 703 1199 703 1142.5 711 c 128,-1,15
 1086 719 1086 719 1000 719 c 1,16,-1
 1000 0 l 1,17,-1
 896 0 l 1,18,-1
 896 725 l 1,19,20
 771 725 771 725 682.5 669 c 128,-1,21
 594 613 594 613 594 535 c 2,22,-1
 594 0 l 1,23,-1
 490 0 l 1,24,-1
 490 576 l 2,25,26
 490 611 490 611 505.5 643.5 c 128,-1,27
 521 676 521 676 549 699 c 1,28,29
 521 709 521 709 497 714 c 128,-1,30
 473 719 473 719 449 719 c 0,31,32
 359 719 359 719 294 667 c 128,-1,33
 229 615 229 615 223 539 c 2,34,-1
 184 0 l 1,35,-1
 82 0 l 1,0,-1
EndSplineSet
EndChar

StartChar: tm_thousand
Encoding: 3058 3058 108
Width: 1191
GlyphClass: 2
Flags: W
LayerCount: 2
Fore
SplineSet
57 184 m 2,0,-1
 57 258 l 2,1,2
 57 312 57 312 92 365 c 128,-1,3
 127 418 127 418 189 453 c 1,4,5
 176 477 176 477 168 503 c 128,-1,6
 160 529 160 529 160 557 c 0,7,8
 160 666 160 666 268.5 744 c 128,-1,9
 377 822 377 822 529 822 c 0,10,11
 621 822 621 822 683.5 818 c 128,-1,12
 746 814 746 814 777 807 c 1,13,-1
 777 705 l 1,14,15
 754 713 754 713 708 716 c 128,-1,16
 662 719 662 719 570 719 c 1,17,-1
 570 514 l 1,18,19
 699 514 699 514 798.5 495.5 c 128,-1,20
 898 477 898 477 961 439 c 1,21,-1
 961 334 l 1,22,23
 945 344 945 344 919 351.5 c 128,-1,24
 893 359 893 359 859 365 c 1,25,-1
 859 152 l 1,26,27
 887 168 887 168 908.5 177 c 128,-1,28
 930 186 930 186 941 186 c 2,29,-1
 1045 186 l 2,30,31
 1096 186 1096 186 1132 135 c 128,-1,32
 1168 84 1168 84 1168 12 c 0,33,34
 1168 -111 1168 -111 1087 -199 c 128,-1,35
 1006 -287 1006 -287 893 -287 c 2,36,-1
 293 -287 l 2,37,38
 244 -287 244 -287 209 -317.5 c 128,-1,39
 174 -348 174 -348 174 -391 c 1,40,-1
 62 -391 l 1,41,42
 72 -303 72 -303 126 -244.5 c 128,-1,43
 180 -186 180 -186 252 -186 c 2,44,-1
 891 -186 l 2,45,46
 963 -186 963 -186 1013.5 -131 c 128,-1,47
 1064 -76 1064 -76 1064 0 c 0,48,49
 1064 33 1064 33 1040 57.5 c 128,-1,50
 1016 82 1016 82 982 82 c 2,51,-1
 920 82 l 2,52,53
 895 82 895 82 877 76 c 128,-1,54
 859 70 859 70 859 62 c 2,55,-1
 859 0 l 1,56,-1
 756 0 l 1,57,-1
 756 406 l 1,58,59
 734 414 734 414 687.5 418 c 128,-1,60
 641 422 641 422 570 422 c 1,61,-1
 570 145 l 2,62,63
 570 76 570 76 456 27.5 c 128,-1,64
 342 -21 342 -21 180 -21 c 0,65,66
 129 -21 129 -21 93 39.5 c 128,-1,67
 57 100 57 100 57 184 c 2,0,-1
160 246 m 2,68,-1
 160 186 l 2,69,70
 160 143 160 143 184.5 112.5 c 128,-1,71
 209 82 209 82 242 82 c 0,72,73
 336 82 336 82 402.5 118 c 128,-1,74
 469 154 469 154 469 205 c 2,75,-1
 469 412 l 1,76,-1
 387 412 l 2,77,78
 293 412 293 412 226.5 363 c 128,-1,79
 160 314 160 314 160 246 c 2,68,-1
264 555 m 0,80,81
 264 535 264 535 268.5 518.5 c 128,-1,82
 273 502 273 502 283 490 c 1,83,84
 314 502 314 502 361 508 c 128,-1,85
 408 514 408 514 469 514 c 1,86,-1
 469 727 l 1,87,88
 381 717 381 717 322.5 668 c 128,-1,89
 264 619 264 619 264 555 c 0,80,81
EndSplineSet
EndChar

StartChar: zerowidthnonjoiner
Encoding: 8204 8204 109
Width: 0
GlyphClass: 2
Flags: W
LayerCount: 2
Fore
SplineSet
315 1225 m 1,0,-1
 -34 -516 l 1,1,-1
 -103 -516 l 1,2,-1
 244 1225 l 1,3,-1
 315 1225 l 1,0,-1
EndSplineSet
EndChar

StartChar: zerowidthjoiner
Encoding: 8205 8205 110
Width: 0
GlyphClass: 2
Flags: W
LayerCount: 2
Fore
SplineSet
415 997 m 1,0,-1
 363 953 l 1,1,-1
 270 1073 l 1,2,-1
 -24 -441 l 1,3,-1
 -87 -441 l 1,4,-1
 206 1073 l 1,5,-1
 65 953 l 1,6,-1
 32 997 l 1,7,-1
 210 1145 l 1,8,-1
 89 1292 l 1,9,-1
 140 1334 l 1,10,-1
 260 1185 l 1,11,-1
 437 1334 l 1,12,-1
 472 1292 l 1,13,-1
 294 1145 l 1,14,-1
 415 997 l 1,0,-1
EndSplineSet
EndChar

StartChar: u2013
Encoding: 8211 8211 111
Width: 722
GlyphClass: 2
Flags: W
LayerCount: 2
Fore
SplineSet
733 319 m 1,0,-1
 -12 319 l 1,1,-1
 -12 370 l 1,2,-1
 733 370 l 1,3,-1
 733 319 l 1,0,-1
EndSplineSet
EndChar

StartChar: u2014
Encoding: 8212 8212 112
Width: 1284
GlyphClass: 2
Flags: W
LayerCount: 2
Fore
SplineSet
1296 318 m 1,0,-1
 -13 319 l 1,1,-1
 -13 371 l 1,2,-1
 1296 370 l 1,3,-1
 1296 318 l 1,0,-1
EndSplineSet
EndChar

StartChar: u2018
Encoding: 65539 -1 113
Width: 527
GlyphClass: 2
Flags: W
LayerCount: 2
Fore
SplineSet
117 514 m 2,0,-1
 117 740 l 2,1,2
 117 844 117 844 187.5 933.5 c 128,-1,3
 258 1023 258 1023 373 1064 c 1,4,-1
 410 1031 l 1,5,6
 314 996 314 996 250 921 c 128,-1,7
 186 846 186 846 168 748 c 1,8,9
 213 764 213 764 249 772.5 c 128,-1,10
 285 781 285 781 312 781 c 0,11,12
 326 781 326 781 335 769.5 c 128,-1,13
 344 758 344 758 344 740 c 2,14,-1
 344 576 l 2,15,16
 344 561 344 561 319.5 543 c 128,-1,17
 295 525 295 525 256 514 c 0,18,19
 223 504 223 504 195.5 499 c 128,-1,20
 168 494 168 494 148 494 c 0,21,22
 135 494 135 494 126 500 c 128,-1,23
 117 506 117 506 117 514 c 2,0,-1
EndSplineSet
EndChar

StartChar: u2019
Encoding: 65540 -1 114
Width: 527
GlyphClass: 2
Flags: W
LayerCount: 2
Fore
SplineSet
410 1090 m 2,0,-1
 410 863 l 2,1,2
 410 760 410 760 340 670 c 128,-1,3
 270 580 270 580 154 539 c 1,4,-1
 117 572 l 1,5,6
 213 607 213 607 277.5 682.5 c 128,-1,7
 342 758 342 758 359 855 c 1,8,9
 314 840 314 840 278 831 c 128,-1,10
 242 822 242 822 215 822 c 0,11,12
 201 822 201 822 192.5 834 c 128,-1,13
 184 846 184 846 184 863 c 2,14,-1
 184 1027 l 2,15,16
 184 1045 184 1045 208 1062.5 c 128,-1,17
 232 1080 232 1080 271 1090 c 0,18,19
 311 1100 311 1100 338 1104.5 c 128,-1,20
 365 1109 365 1109 379 1109 c 256,21,22
 393 1109 393 1109 401.5 1103.5 c 128,-1,23
 410 1098 410 1098 410 1090 c 2,0,-1
EndSplineSet
EndChar

StartChar: u201C
Encoding: 65541 -1 115
Width: 680
GlyphClass: 2
Flags: W
LayerCount: 2
Fore
SplineSet
8 968 m 1,0,1
 38 1064 38 1064 118 1150 c 128,-1,2
 198 1236 198 1236 290 1266 c 1,3,-1
 286 1234 l 1,4,5
 200 1172 200 1172 166 1136 c 1,6,7
 106 1060 106 1060 106 1000 c 1,8,-1
 110 968 l 1,9,-1
 144 966 l 1,10,-1
 198 956 l 1,11,12
 230 942 230 942 230 910 c 1,13,-1
 226 882 l 1,14,15
 202 786 202 786 122 786 c 0,16,17
 4 786 4 786 4 926 c 1,18,-1
 8 968 l 1,0,1
328 968 m 1,19,20
 358 1064 358 1064 438 1150 c 128,-1,21
 518 1236 518 1236 610 1266 c 1,22,-1
 606 1234 l 1,23,24
 520 1172 520 1172 486 1136 c 1,25,26
 426 1060 426 1060 426 1000 c 1,27,-1
 430 968 l 1,28,-1
 464 966 l 1,29,-1
 518 956 l 1,30,31
 550 942 550 942 550 910 c 1,32,-1
 546 882 l 1,33,34
 522 786 522 786 442 786 c 0,35,36
 324 786 324 786 324 926 c 1,37,-1
 328 968 l 1,19,20
EndSplineSet
EndChar

StartChar: u201D
Encoding: 65542 -1 116
Width: 696
GlyphClass: 2
Flags: W
LayerCount: 2
Fore
SplineSet
304 1074 m 1,0,1
 276 972 276 972 198 888 c 128,-1,2
 120 804 120 804 20 778 c 1,3,-1
 28 808 l 1,4,5
 120 880 120 880 142 904 c 0,6,7
 208 978 208 978 208 1034 c 1,8,-1
 206 1054 l 1,9,-1
 200 1074 l 1,10,-1
 108 1082 l 1,11,12
 82 1096 82 1096 82 1126 c 2,13,-1
 86 1156 l 1,14,15
 122 1258 122 1258 192 1258 c 0,16,17
 308 1258 308 1258 308 1114 c 1,18,-1
 304 1074 l 1,0,1
624 1074 m 1,19,20
 596 972 596 972 518 888 c 128,-1,21
 440 804 440 804 340 778 c 1,22,-1
 348 808 l 1,23,24
 440 880 440 880 462 904 c 0,25,26
 528 978 528 978 528 1034 c 1,27,-1
 526 1054 l 1,28,-1
 520 1074 l 1,29,-1
 428 1082 l 1,30,31
 402 1096 402 1096 402 1126 c 2,32,-1
 406 1156 l 1,33,34
 442 1258 442 1258 512 1258 c 0,35,36
 628 1258 628 1258 628 1114 c 1,37,-1
 624 1074 l 1,19,20
EndSplineSet
EndChar

StartChar: u2026
Encoding: 8230 8230 117
Width: 1283
GlyphClass: 2
Flags: W
LayerCount: 2
Fore
SplineSet
265 136 m 0,0,1
 298 136 298 136 320.5 114 c 128,-1,2
 343 92 343 92 343 58 c 0,3,4
 343 26 343 26 320.5 3 c 128,-1,5
 298 -20 298 -20 265 -20 c 0,6,7
 233 -20 233 -20 210 3 c 128,-1,8
 187 26 187 26 187 58 c 0,9,10
 187 92 187 92 210 114 c 128,-1,11
 233 136 233 136 265 136 c 0,0,1
638 136 m 256,12,13
 670 136 670 136 693 114 c 128,-1,14
 716 92 716 92 716 58 c 0,15,16
 716 26 716 26 692.5 3 c 128,-1,17
 669 -20 669 -20 638 -20 c 0,18,19
 606 -20 606 -20 583 3 c 128,-1,20
 560 26 560 26 560 58 c 0,21,22
 560 92 560 92 583 114 c 128,-1,23
 606 136 606 136 638 136 c 256,12,13
1010 136 m 0,24,25
 1043 136 1043 136 1066 114 c 128,-1,26
 1089 92 1089 92 1089 58 c 0,27,28
 1089 26 1089 26 1065.5 3 c 128,-1,29
 1042 -20 1042 -20 1010 -20 c 256,30,31
 978 -20 978 -20 955.5 3 c 128,-1,32
 933 26 933 26 933 58 c 0,33,34
 933 92 933 92 955.5 114 c 128,-1,35
 978 136 978 136 1010 136 c 0,24,25
EndSplineSet
EndChar

StartChar: u2212
Encoding: 8722 8722 118
Width: 974
GlyphClass: 2
Flags: W
LayerCount: 2
Fore
SplineSet
133 450 m 1,0,-1
 133 508 l 1,1,-1
 894 508 l 1,2,-1
 894 450 l 1,3,-1
 133 450 l 1,0,-1
EndSplineSet
EndChar

StartChar: u25CC
Encoding: 9676 9676 119
Width: 1167
GlyphClass: 2
Flags: W
LayerCount: 2
Fore
SplineSet
654 665 m 0,0,1
 626 665 626 665 612 679 c 128,-1,2
 598 693 598 693 598 724 c 0,3,4
 598 746 598 746 615 762.5 c 128,-1,5
 632 779 632 779 654 779 c 0,6,7
 683 779 683 779 697.5 765 c 128,-1,8
 712 751 712 751 712 724 c 0,9,10
 712 693 712 693 697.5 679 c 128,-1,11
 683 665 683 665 654 665 c 0,0,1
840 616 m 0,12,13
 811 616 811 616 796.5 630.5 c 128,-1,14
 782 645 782 645 782 674 c 0,15,16
 782 701 782 701 796.5 715 c 128,-1,17
 811 729 811 729 840 729 c 0,18,19
 862 729 862 729 879 713 c 128,-1,20
 896 697 896 697 896 674 c 0,21,22
 896 645 896 645 882 630.5 c 128,-1,23
 868 616 868 616 840 616 c 0,12,13
470 616 m 0,24,25
 442 616 442 616 428 630.5 c 128,-1,26
 414 645 414 645 414 674 c 0,27,28
 414 697 414 697 431 713 c 128,-1,29
 448 729 448 729 470 729 c 0,30,31
 494 729 494 729 510 713 c 128,-1,32
 526 697 526 697 526 674 c 0,33,34
 526 645 526 645 512.5 630.5 c 128,-1,35
 499 616 499 616 470 616 c 0,24,25
973 482 m 0,36,37
 951 482 951 482 933.5 498 c 128,-1,38
 916 514 916 514 916 538 c 0,39,40
 916 567 916 567 930.5 581 c 128,-1,41
 945 595 945 595 973 595 c 256,42,43
 1001 595 1001 595 1014.5 581 c 128,-1,44
 1028 567 1028 567 1028 538 c 0,45,46
 1028 514 1028 514 1012 498 c 128,-1,47
 996 482 996 482 973 482 c 0,36,37
336 482 m 0,48,49
 307 482 307 482 293 495.5 c 128,-1,50
 279 509 279 509 279 538 c 256,51,52
 279 567 279 567 293 581 c 128,-1,53
 307 595 307 595 336 595 c 0,54,55
 364 595 364 595 378 581 c 128,-1,56
 392 567 392 567 392 538 c 0,57,58
 392 514 392 514 375 498 c 128,-1,59
 358 482 358 482 336 482 c 0,48,49
1024 298 m 0,60,61
 994 298 994 298 979.5 311.5 c 128,-1,62
 965 325 965 325 965 354 c 0,63,64
 965 382 965 382 979.5 396 c 128,-1,65
 994 410 994 410 1024 410 c 0,66,67
 1046 410 1046 410 1063 393 c 128,-1,68
 1080 376 1080 376 1080 354 c 0,69,70
 1080 331 1080 331 1063 314.5 c 128,-1,71
 1046 298 1046 298 1024 298 c 0,60,61
287 298 m 0,72,73
 257 298 257 298 243 311.5 c 128,-1,74
 229 325 229 325 229 354 c 0,75,76
 229 382 229 382 243 396 c 128,-1,77
 257 410 257 410 287 410 c 0,78,79
 310 410 310 410 326.5 393 c 128,-1,80
 343 376 343 376 343 354 c 0,81,82
 343 331 343 331 326.5 314.5 c 128,-1,83
 310 298 310 298 287 298 c 0,72,73
973 112 m 256,84,85
 945 112 945 112 930.5 126.5 c 128,-1,86
 916 141 916 141 916 169 c 0,87,88
 916 193 916 193 933.5 209.5 c 128,-1,89
 951 226 951 226 973 226 c 0,90,91
 996 226 996 226 1012 209.5 c 128,-1,92
 1028 193 1028 193 1028 169 c 0,93,94
 1028 141 1028 141 1014.5 126.5 c 128,-1,95
 1001 112 1001 112 973 112 c 256,84,85
336 112 m 0,96,97
 307 112 307 112 293 126.5 c 128,-1,98
 279 141 279 141 279 169 c 0,99,100
 279 198 279 198 293 212 c 128,-1,101
 307 226 307 226 336 226 c 0,102,103
 358 226 358 226 375 209.5 c 128,-1,104
 392 193 392 193 392 169 c 0,105,106
 392 141 392 141 378 126.5 c 128,-1,107
 364 112 364 112 336 112 c 0,96,97
840 -22 m 0,108,109
 811 -22 811 -22 796.5 -8 c 128,-1,110
 782 6 782 6 782 34 c 0,111,112
 782 63 782 63 796.5 78 c 128,-1,113
 811 93 811 93 840 93 c 0,114,115
 863 93 863 93 879.5 75 c 128,-1,116
 896 57 896 57 896 34 c 256,117,118
 896 11 896 11 879 -5.5 c 128,-1,119
 862 -22 862 -22 840 -22 c 0,108,109
470 -22 m 0,120,121
 448 -22 448 -22 431 -5.5 c 128,-1,122
 414 11 414 11 414 34 c 256,123,124
 414 57 414 57 430.5 75 c 128,-1,125
 447 93 447 93 470 93 c 0,126,127
 495 93 495 93 510.5 75 c 128,-1,128
 526 57 526 57 526 34 c 256,129,130
 526 11 526 11 510 -5.5 c 128,-1,131
 494 -22 494 -22 470 -22 c 0,120,121
654 -72 m 0,132,133
 632 -72 632 -72 615 -55 c 128,-1,134
 598 -38 598 -38 598 -16 c 0,135,136
 598 14 598 14 612 28.5 c 128,-1,137
 626 43 626 43 654 43 c 0,138,139
 683 43 683 43 697.5 28.5 c 128,-1,140
 712 14 712 14 712 -16 c 0,141,142
 712 -44 712 -44 697.5 -58 c 128,-1,143
 683 -72 683 -72 654 -72 c 0,132,133
EndSplineSet
EndChar

StartChar: tm_k_ikaar
Encoding: 65543 -1 120
Width: 1281
GlyphClass: 2
Flags: W
LayerCount: 2
Fore
SplineSet
49 215 m 0,0,1
 49 291 49 291 84 355.5 c 128,-1,2
 119 420 119 420 182 455 c 1,3,4
 172 482 172 482 167 507.5 c 128,-1,5
 162 533 162 533 162 557 c 0,6,7
 162 668 162 668 253 746 c 128,-1,8
 344 824 344 824 471 824 c 1,9,-1
 471 1154 l 2,10,11
 471 1256 471 1256 566.5 1327 c 128,-1,12
 662 1398 662 1398 799 1398 c 0,13,14
 949 1398 949 1398 1056.5 1300.5 c 128,-1,15
 1164 1203 1164 1203 1164 1066 c 2,16,-1
 1164 0 l 1,17,-1
 1061 0 l 1,18,-1
 1061 1068 l 2,19,20
 1061 1162 1061 1162 984.5 1228.5 c 128,-1,21
 908 1295 908 1295 799 1295 c 0,22,23
 705 1295 705 1295 638.5 1253 c 128,-1,24
 572 1211 572 1211 572 1150 c 2,25,-1
 572 822 l 1,26,27
 643 822 643 822 694.5 818 c 128,-1,28
 746 814 746 814 777 807 c 1,29,-1
 777 705 l 1,30,31
 754 713 754 713 708 716 c 128,-1,32
 662 719 662 719 572 719 c 1,33,-1
 572 518 l 1,34,35
 717 518 717 518 819.5 433 c 128,-1,36
 922 348 922 348 922 227 c 0,37,38
 922 133 922 133 874 66.5 c 128,-1,39
 826 0 826 0 758 0 c 2,40,-1
 695 0 l 1,41,-1
 695 104 l 1,42,-1
 756 104 l 2,43,44
 783 104 783 104 801.5 140 c 128,-1,45
 820 176 820 176 820 227 c 0,46,47
 820 305 820 305 748 360.5 c 128,-1,48
 676 416 676 416 572 416 c 1,49,-1
 572 203 l 2,50,51
 572 109 572 109 477.5 44 c 128,-1,52
 383 -21 383 -21 250 -21 c 0,53,54
 166 -21 166 -21 107.5 48 c 128,-1,55
 49 117 49 117 49 215 c 0,0,1
162 246 m 2,56,-1
 162 186 l 2,57,58
 162 143 162 143 186.5 112.5 c 128,-1,59
 211 82 211 82 244 82 c 0,60,61
 338 82 338 82 404.5 118 c 128,-1,62
 471 154 471 154 471 205 c 2,63,-1
 471 412 l 1,64,-1
 387 412 l 2,65,66
 293 412 293 412 227.5 363 c 128,-1,67
 162 314 162 314 162 246 c 2,56,-1
264 555 m 0,68,69
 264 535 264 535 269.5 518.5 c 128,-1,70
 275 502 275 502 285 490 c 1,71,72
 316 502 316 502 363 508 c 128,-1,73
 410 514 410 514 471 514 c 1,74,-1
 471 727 l 1,75,76
 383 717 383 717 323.5 668 c 128,-1,77
 264 619 264 619 264 555 c 0,68,69
EndSplineSet
Ligature2: "'psts' Post Base Substitutions lookup 8 subtable" tm_ka tm_ikaar
EndChar

StartChar: tm_ng_ikaar
Encoding: 65544 -1 121
Width: 1820
GlyphClass: 2
Flags: W
LayerCount: 2
Fore
SplineSet
78 0 m 1,0,-1
 117 531 l 1,1,2
 131 656 131 656 260 739 c 128,-1,3
 389 822 389 822 568 822 c 0,4,5
 654 822 654 822 716.5 815.5 c 128,-1,6
 779 809 779 809 816 795 c 1,7,-1
 816 689 l 1,8,9
 791 703 791 703 733.5 711 c 128,-1,10
 676 719 676 719 590 719 c 1,11,-1
 590 477 l 1,12,13
 623 506 623 506 671 520.5 c 128,-1,14
 719 535 719 535 775 535 c 0,15,16
 859 535 859 535 919.5 463 c 128,-1,17
 980 391 980 391 980 287 c 0,18,19
 980 232 980 232 965.5 184.5 c 128,-1,20
 951 137 951 137 922 104 c 1,21,-1
 1148 104 l 2,22,23
 1209 104 1209 104 1251 157.5 c 128,-1,24
 1293 211 1293 211 1293 287 c 0,25,26
 1293 385 1293 385 1286 451.5 c 128,-1,27
 1279 518 1279 518 1268 553 c 1,28,29
 1125 553 1125 553 1023.5 632 c 128,-1,30
 922 711 922 711 922 822 c 2,31,-1
 922 1090 l 2,32,33
 922 1217 922 1217 1059.5 1307.5 c 128,-1,34
 1197 1398 1197 1398 1391 1398 c 0,35,36
 1520 1398 1520 1398 1611.5 1307.5 c 128,-1,37
 1703 1217 1703 1217 1703 1090 c 2,38,-1
 1703 0 l 1,39,-1
 1602 0 l 1,40,-1
 1602 1068 l 2,41,42
 1602 1162 1602 1162 1517 1228.5 c 128,-1,43
 1432 1295 1432 1295 1312 1295 c 0,44,45
 1193 1295 1193 1295 1109 1234.5 c 128,-1,46
 1025 1174 1025 1174 1025 1090 c 2,47,-1
 1025 863 l 2,48,49
 1025 775 1025 775 1093.5 713.5 c 128,-1,50
 1162 652 1162 652 1258 652 c 1,51,52
 1248 705 1248 705 1238.5 736.5 c 128,-1,53
 1229 768 1229 768 1219 781 c 1,54,-1
 1320 781 l 1,55,56
 1357 717 1357 717 1376.5 591 c 128,-1,57
 1396 465 1396 465 1396 287 c 0,58,59
 1396 168 1396 168 1324 84 c 128,-1,60
 1252 0 1252 0 1148 0 c 2,61,-1
 486 0 l 1,62,-1
 486 104 l 1,63,-1
 775 104 l 2,64,65
 818 104 818 104 847.5 133 c 128,-1,66
 877 162 877 162 877 205 c 2,67,-1
 877 309 l 2,68,69
 877 359 877 359 835 395.5 c 128,-1,70
 793 432 793 432 734 432 c 0,71,72
 674 432 674 432 632 407.5 c 128,-1,73
 590 383 590 383 590 350 c 2,74,-1
 590 309 l 1,75,-1
 486 309 l 1,76,-1
 486 725 l 1,77,78
 379 725 379 725 302 671 c 128,-1,79
 225 617 225 617 219 539 c 2,80,-1
 180 0 l 1,81,-1
 78 0 l 1,0,-1
EndSplineSet
Ligature2: "'psts' Post Base Substitutions lookup 8 subtable" tm_nga tm_ikaar
EndChar

StartChar: tm_c_ikaar
Encoding: 65545 -1 122
Width: 1146
GlyphClass: 2
Flags: W
LayerCount: 2
Fore
SplineSet
51 186 m 0,0,1
 51 271 51 271 86 340.5 c 128,-1,2
 121 410 121 410 184 445 c 1,3,4
 174 467 174 467 169 495 c 128,-1,5
 164 523 164 523 164 557 c 0,6,7
 164 668 164 668 255 746 c 128,-1,8
 346 824 346 824 473 824 c 1,9,-1
 473 1213 l 2,10,11
 473 1289 473 1289 537.5 1343.5 c 128,-1,12
 602 1398 602 1398 693 1398 c 0,13,14
 832 1398 832 1398 930.5 1300.5 c 128,-1,15
 1029 1203 1029 1203 1029 1066 c 2,16,-1
 1029 0 l 1,17,-1
 926 0 l 1,18,-1
 926 1068 l 2,19,20
 926 1162 926 1162 857.5 1228.5 c 128,-1,21
 789 1295 789 1295 693 1295 c 0,22,23
 645 1295 645 1295 609.5 1253 c 128,-1,24
 574 1211 574 1211 574 1150 c 2,25,-1
 574 822 l 1,26,27
 645 822 645 822 696.5 818 c 128,-1,28
 748 814 748 814 779 807 c 1,29,-1
 779 705 l 1,30,31
 756 713 756 713 710 716 c 128,-1,32
 664 719 664 719 574 719 c 1,33,-1
 574 514 l 1,34,35
 658 514 658 514 707 510 c 128,-1,36
 756 506 756 506 779 498 c 1,37,-1
 779 373 l 1,38,39
 762 393 762 393 709 403.5 c 128,-1,40
 656 414 656 414 574 414 c 1,41,-1
 574 145 l 2,42,43
 574 76 574 76 460 27.5 c 128,-1,44
 346 -21 346 -21 184 -21 c 0,45,46
 129 -21 129 -21 90 39.5 c 128,-1,47
 51 100 51 100 51 186 c 0,0,1
164 246 m 2,48,-1
 164 186 l 2,49,50
 164 143 164 143 188.5 112.5 c 128,-1,51
 213 82 213 82 246 82 c 0,52,53
 340 82 340 82 406.5 118 c 128,-1,54
 473 154 473 154 473 205 c 2,55,-1
 473 412 l 1,56,-1
 389 412 l 2,57,58
 295 412 295 412 229.5 363 c 128,-1,59
 164 314 164 314 164 246 c 2,48,-1
266 555 m 0,60,61
 266 535 266 535 271.5 518.5 c 128,-1,62
 277 502 277 502 287 490 c 1,63,64
 318 502 318 502 365 508 c 128,-1,65
 412 514 412 514 473 514 c 1,66,-1
 473 727 l 1,67,68
 385 717 385 717 325.5 668 c 128,-1,69
 266 619 266 619 266 555 c 0,60,61
EndSplineSet
Ligature2: "'psts' Post Base Substitutions lookup 8 subtable" tm_ca tm_ikaar
EndChar

StartChar: tm_j_ikaar
Encoding: 65546 -1 123
Width: 1758
GlyphClass: 2
Flags: W
LayerCount: 2
Fore
SplineSet
90 227 m 2,0,-1
 90 637 l 2,1,2
 90 705 90 705 216 754 c 128,-1,3
 342 803 342 803 521 803 c 0,4,5
 627 803 627 803 706 783.5 c 128,-1,6
 785 764 785 764 830 727 c 1,7,8
 863 754 863 754 915 774.5 c 128,-1,9
 967 795 967 795 1035 807 c 1,10,-1
 1035 1145 l 2,11,12
 1035 1250 1035 1250 1105.5 1324 c 128,-1,13
 1176 1398 1176 1398 1275 1398 c 0,14,15
 1426 1398 1426 1398 1533.5 1300.5 c 128,-1,16
 1641 1203 1641 1203 1641 1066 c 2,17,-1
 1641 0 l 1,18,-1
 1537 0 l 1,19,-1
 1537 1068 l 2,20,21
 1537 1162 1537 1162 1461 1228.5 c 128,-1,22
 1385 1295 1385 1295 1275 1295 c 0,23,24
 1219 1295 1219 1295 1179 1253 c 128,-1,25
 1139 1211 1139 1211 1139 1150 c 2,26,-1
 1139 809 l 1,27,28
 1232 809 1232 809 1297.5 710 c 128,-1,29
 1363 611 1363 611 1363 473 c 0,30,31
 1363 227 1363 227 1267.5 52 c 128,-1,32
 1172 -123 1172 -123 1035 -123 c 2,33,-1
 316 -123 l 2,34,35
 275 -123 275 -123 246 -151.5 c 128,-1,36
 217 -180 217 -180 213 -223 c 2,37,-1
 203 -412 l 2,38,39
 201 -453 201 -453 227.5 -483.5 c 128,-1,40
 254 -514 254 -514 295 -514 c 0,41,42
 342 -514 342 -514 388 -496.5 c 128,-1,43
 434 -479 434 -479 473 -447 c 2,44,-1
 668 -283 l 2,45,46
 689 -266 689 -266 714.5 -256 c 128,-1,47
 740 -246 740 -246 768 -246 c 2,48,-1
 1199 -246 l 2,49,50
 1242 -246 1242 -246 1272.5 -282 c 128,-1,51
 1303 -318 1303 -318 1303 -369 c 0,52,53
 1303 -473 1303 -473 1261 -545 c 128,-1,54
 1219 -617 1219 -617 1158 -617 c 2,55,-1
 953 -617 l 2,56,57
 910 -617 910 -617 880 -587 c 128,-1,58
 850 -557 850 -557 850 -514 c 2,59,-1
 850 -348 l 1,60,61
 809 -348 809 -348 766 -365.5 c 128,-1,62
 723 -383 723 -383 684 -416 c 2,63,-1
 520 -559 l 2,64,65
 486 -588 486 -588 433.5 -602.5 c 128,-1,66
 381 -617 381 -617 316 -617 c 0,67,68
 211 -617 211 -617 136.5 -576 c 128,-1,69
 62 -535 62 -535 68 -480 c 2,70,-1
 90 -180 l 2,71,72
 98 -111 98 -111 139 -66 c 128,-1,73
 180 -21 180 -21 232 -21 c 2,74,-1
 994 -21 l 2,75,76
 1105 -21 1105 -21 1183.5 130 c 128,-1,77
 1262 281 1262 281 1262 494 c 0,78,79
 1262 588 1262 588 1207 653.5 c 128,-1,80
 1152 719 1152 719 1076 719 c 0,81,82
 986 719 986 719 920.5 664 c 128,-1,83
 855 609 855 609 850 529 c 2,84,-1
 811 123 l 1,85,-1
 709 123 l 1,86,-1
 748 578 l 2,87,88
 754 627 754 627 685.5 663 c 128,-1,89
 617 699 617 699 521 699 c 0,90,91
 436 699 436 699 356.5 679.5 c 128,-1,92
 277 660 277 660 213 623 c 1,93,-1
 213 535 l 1,94,95
 264 564 264 564 306 580 c 128,-1,96
 348 596 348 596 377 596 c 0,97,98
 437 596 437 596 479 566.5 c 128,-1,99
 521 537 521 537 521 494 c 2,100,-1
 521 268 l 2,101,102
 521 207 521 207 485 165 c 128,-1,103
 449 123 449 123 398 123 c 2,104,-1
 150 123 l 2,105,106
 125 123 125 123 107.5 153.5 c 128,-1,107
 90 184 90 184 90 227 c 2,0,-1
953 -350 m 1,108,-1
 953 -422 l 2,109,110
 953 -469 953 -469 983.5 -502 c 128,-1,111
 1014 -535 1014 -535 1057 -535 c 0,112,113
 1107 -535 1107 -535 1143.5 -505 c 128,-1,114
 1180 -475 1180 -475 1180 -432 c 0,115,116
 1180 -398 1180 -398 1161.5 -374 c 128,-1,117
 1143 -350 1143 -350 1117 -350 c 2,118,-1
 953 -350 l 1,108,-1
191 328 m 0,119,120
 191 285 191 285 221.5 256 c 128,-1,121
 252 227 252 227 295 227 c 0,122,123
 336 227 336 227 377 268 c 128,-1,124
 418 309 418 309 418 350 c 2,125,-1
 418 432 l 2,126,127
 418 465 418 465 393.5 489.5 c 128,-1,128
 369 514 369 514 336 514 c 0,129,130
 289 514 289 514 240 451.5 c 128,-1,131
 191 389 191 389 191 328 c 0,119,120
EndSplineSet
Ligature2: "'psts' Post Base Substitutions lookup 8 subtable" tm_ja tm_ikaar
EndChar

StartChar: tm_ny_ikaar
Encoding: 65547 -1 124
Width: 1986
GlyphClass: 2
Flags: W
LayerCount: 2
Fore
SplineSet
449 180 m 2,0,-1
 449 432 l 2,1,2
 449 576 449 576 546 678.5 c 128,-1,3
 643 781 643 781 779 781 c 2,4,-1
 1088 781 l 1,5,-1
 1088 1213 l 2,6,7
 1088 1289 1088 1289 1183.5 1343.5 c 128,-1,8
 1279 1398 1279 1398 1416 1398 c 0,9,10
 1604 1398 1604 1398 1736.5 1303.5 c 128,-1,11
 1869 1209 1869 1209 1869 1076 c 2,12,-1
 1869 0 l 1,13,-1
 1766 0 l 1,14,-1
 1766 1068 l 2,15,16
 1766 1162 1766 1162 1663.5 1228.5 c 128,-1,17
 1561 1295 1561 1295 1416 1295 c 0,18,19
 1322 1295 1322 1295 1255.5 1253 c 128,-1,20
 1189 1211 1189 1211 1189 1150 c 2,21,-1
 1189 781 l 1,22,23
 1268 781 1268 781 1324.5 774.5 c 128,-1,24
 1381 768 1381 768 1416 756 c 1,25,-1
 1416 639 l 1,26,27
 1381 658 1381 658 1323.5 669 c 128,-1,28
 1266 680 1266 680 1189 680 c 1,29,-1
 1189 432 l 1,30,31
 1225 451 1225 451 1271.5 462 c 128,-1,32
 1318 473 1318 473 1375 473 c 0,33,34
 1477 473 1477 473 1549 401.5 c 128,-1,35
 1621 330 1621 330 1621 229 c 0,36,37
 1621 -121 1621 -121 1453 -369 c 128,-1,38
 1285 -617 1285 -617 1047 -617 c 2,39,-1
 738 -617 l 2,40,41
 465 -617 465 -617 272.5 -345.5 c 128,-1,42
 80 -74 80 -74 80 309 c 0,43,44
 80 502 80 502 175.5 638.5 c 128,-1,45
 271 775 271 775 408 775 c 1,46,-1
 408 672 l 1,47,48
 314 672 314 672 248 565.5 c 128,-1,49
 182 459 182 459 182 309 c 0,50,51
 182 -31 182 -31 351 -272.5 c 128,-1,52
 520 -514 520 -514 758 -514 c 2,53,-1
 1047 -514 l 2,54,55
 1242 -514 1242 -514 1381 -297 c 128,-1,56
 1520 -80 1520 -80 1520 227 c 0,57,58
 1520 285 1520 285 1471 327 c 128,-1,59
 1422 369 1422 369 1354 369 c 0,60,61
 1303 369 1303 369 1261 356.5 c 128,-1,62
 1219 344 1219 344 1189 318 c 1,63,-1
 1189 0 l 1,64,-1
 1088 0 l 1,65,-1
 1088 678 l 1,66,-1
 779 678 l 2,67,68
 684 678 684 678 615.5 598 c 128,-1,69
 547 518 547 518 547 404 c 1,70,71
 586 437 586 437 636 455 c 128,-1,72
 686 473 686 473 738 473 c 0,73,74
 797 473 797 473 839 442.5 c 128,-1,75
 881 412 881 412 881 369 c 2,76,-1
 881 145 l 2,77,78
 881 84 881 84 808.5 42 c 128,-1,79
 736 0 736 0 635 0 c 0,80,81
 559 0 559 0 504 52.5 c 128,-1,82
 449 105 449 105 449 180 c 2,0,-1
553 281 m 1,83,-1
 553 205 l 2,84,85
 553 162 553 162 583 133 c 128,-1,86
 613 104 613 104 656 104 c 0,87,88
 697 104 697 104 738 131 c 128,-1,89
 779 158 779 158 779 186 c 2,90,-1
 779 287 l 2,91,92
 779 320 779 320 752 344.5 c 128,-1,93
 725 369 725 369 686 369 c 0,94,95
 641 369 641 369 603.5 344.5 c 128,-1,96
 566 320 566 320 553 281 c 1,83,-1
EndSplineSet
Ligature2: "'psts' Post Base Substitutions lookup 8 subtable" tm_nya tm_ikaar
EndChar

StartChar: tm_tt_ikaar
Encoding: 65548 -1 125
Width: 1182
GlyphClass: 2
Flags: W
LayerCount: 2
Fore
SplineSet
96 123 m 2,0,-1
 135 781 l 1,1,-1
 238 781 l 1,2,-1
 199 205 l 2,3,4
 197 164 197 164 227.5 134 c 128,-1,5
 258 104 258 104 303 104 c 2,6,-1
 639 104 l 1,7,8
 518 205 518 205 451.5 302.5 c 128,-1,9
 385 400 385 400 385 475 c 0,10,11
 385 551 385 551 440.5 604.5 c 128,-1,12
 496 658 496 658 576 658 c 2,13,-1
 758 658 l 2,14,15
 824 658 824 658 871 610 c 128,-1,16
 918 562 918 562 918 496 c 2,17,-1
 918 104 l 1,18,-1
 1166 104 l 1,19,-1
 1166 0 l 1,20,-1
 918 0 l 1,21,-1
 918 -205 l 1,22,-1
 816 -205 l 1,23,-1
 816 0 l 1,24,-1
 240 0 l 2,25,26
 180 0 180 0 138 36 c 128,-1,27
 96 72 96 72 96 123 c 2,0,-1
486 482 m 0,28,29
 486 396 486 396 575 294.5 c 128,-1,30
 664 193 664 193 816 105 c 1,31,-1
 816 453 l 2,32,33
 816 496 816 496 786 525.5 c 128,-1,34
 756 555 756 555 713 555 c 2,35,-1
 590 555 l 2,36,37
 547 555 547 555 516.5 533.5 c 128,-1,38
 486 512 486 512 486 482 c 0,28,29
EndSplineSet
Ligature2: "'psts' Post Base Substitutions lookup 8 subtable" tm_tta tm_ikaar
EndChar

StartChar: tm_nn_ikaar
Encoding: 65549 -1 126
Width: 2643
GlyphClass: 2
Flags: W
LayerCount: 2
Fore
SplineSet
90 123 m 2,0,-1
 90 453 l 2,1,2
 90 598 90 598 210 700.5 c 128,-1,3
 330 803 330 803 500 803 c 0,4,5
 566 803 566 803 619 798 c 128,-1,6
 672 793 672 793 711 783 c 1,7,-1
 777 699 l 1,8,9
 799 736 799 736 824.5 758.5 c 128,-1,10
 850 781 850 781 871 781 c 2,11,-1
 1154 781 l 1,12,-1
 1229 684 l 1,13,14
 1254 729 1254 729 1282.5 755 c 128,-1,15
 1311 781 1311 781 1334 781 c 2,16,-1
 1939 781 l 1,17,-1
 1939 1213 l 2,18,19
 1939 1289 1939 1289 2013.5 1343.5 c 128,-1,20
 2088 1398 2088 1398 2191 1398 c 0,21,22
 2330 1398 2330 1398 2427.5 1300.5 c 128,-1,23
 2525 1203 2525 1203 2525 1066 c 2,24,-1
 2525 0 l 1,25,-1
 2424 0 l 1,26,-1
 2424 1068 l 2,27,28
 2424 1162 2424 1162 2355.5 1228.5 c 128,-1,29
 2287 1295 2287 1295 2191 1295 c 0,30,31
 2131 1295 2131 1295 2087 1253 c 128,-1,32
 2043 1211 2043 1211 2043 1150 c 2,33,-1
 2043 781 l 1,34,35
 2121 781 2121 781 2177.5 774.5 c 128,-1,36
 2234 768 2234 768 2270 756 c 1,37,-1
 2270 664 l 1,38,39
 2244 674 2244 674 2197 676 c 128,-1,40
 2150 678 2150 678 2043 678 c 1,41,-1
 2043 0 l 1,42,-1
 1939 0 l 1,43,-1
 1939 678 l 1,44,-1
 1697 678 l 1,45,46
 1734 646 1734 646 1754.5 549.5 c 128,-1,47
 1775 453 1775 453 1775 309 c 0,48,49
 1775 182 1775 182 1697 91 c 128,-1,50
 1619 0 1619 0 1508 0 c 2,51,-1
 1404 0 l 2,52,53
 1359 0 1359 0 1312.5 19.5 c 128,-1,54
 1266 39 1266 39 1221 76 c 1,55,56
 1176 39 1176 39 1112.5 19.5 c 128,-1,57
 1049 0 1049 0 973 0 c 2,58,-1
 912 0 l 2,59,60
 818 0 818 0 752 84 c 128,-1,61
 686 168 686 168 686 287 c 0,62,63
 686 400 686 400 699.5 483 c 128,-1,64
 713 566 713 566 740 613 c 1,65,66
 705 654 705 654 632 676.5 c 128,-1,67
 559 699 559 699 459 699 c 0,68,69
 350 699 350 699 268.5 609.5 c 128,-1,70
 187 520 187 520 178 389 c 1,71,72
 227 430 227 430 262 451.5 c 128,-1,73
 297 473 297 473 316 473 c 2,74,-1
 418 473 l 2,75,76
 461 473 461 473 491 436.5 c 128,-1,77
 521 400 521 400 521 350 c 2,78,-1
 521 164 l 2,79,80
 521 96 521 96 455 48 c 128,-1,81
 389 0 389 0 295 0 c 0,82,83
 211 0 211 0 150.5 36 c 128,-1,84
 90 72 90 72 90 123 c 2,0,-1
789 350 m 0,85,86
 789 248 789 248 837 176 c 128,-1,87
 885 104 885 104 953 104 c 2,88,-1
 1014 104 l 2,89,90
 1082 104 1082 104 1131 176 c 128,-1,91
 1180 248 1180 248 1180 350 c 0,92,93
 1180 486 1180 486 1138 582 c 128,-1,94
 1096 678 1096 678 1035 678 c 2,95,-1
 924 678 l 1,96,97
 861 643 861 643 825 554 c 128,-1,98
 789 465 789 465 789 350 c 0,85,86
191 281 m 1,99,-1
 191 205 l 2,100,101
 191 162 191 162 221.5 133 c 128,-1,102
 252 104 252 104 295 104 c 0,103,104
 336 104 336 104 377 131 c 128,-1,105
 418 158 418 158 418 186 c 2,106,-1
 418 287 l 2,107,108
 418 320 418 320 388.5 344.5 c 128,-1,109
 359 369 359 369 316 369 c 0,110,111
 275 369 275 369 240 344.5 c 128,-1,112
 205 320 205 320 191 281 c 1,99,-1
1281 350 m 0,113,114
 1281 248 1281 248 1317.5 176 c 128,-1,115
 1354 104 1354 104 1404 104 c 2,116,-1
 1508 104 l 2,117,118
 1576 104 1576 104 1624 176 c 128,-1,119
 1672 248 1672 248 1672 350 c 0,120,121
 1672 486 1672 486 1630 582 c 128,-1,122
 1588 678 1588 678 1529 678 c 2,123,-1
 1373 678 l 1,124,125
 1328 625 1328 625 1304.5 540 c 128,-1,126
 1281 455 1281 455 1281 350 c 0,113,114
EndSplineSet
Ligature2: "'psts' Post Base Substitutions lookup 8 subtable" tm_nna tm_ikaar
EndChar

StartChar: tm_t_ikaar
Encoding: 65550 -1 127
Width: 1316
GlyphClass: 2
Flags: W
LayerCount: 2
Fore
SplineSet
55 186 m 2,0,-1
 55 244 l 2,1,2
 55 307 55 307 90 363.5 c 128,-1,3
 125 420 125 420 187 455 c 1,4,5
 178 479 178 479 173 505 c 128,-1,6
 168 531 168 531 168 557 c 0,7,8
 168 668 168 668 259 746 c 128,-1,9
 350 824 350 824 477 824 c 1,10,-1
 477 1213 l 2,11,12
 477 1289 477 1289 572.5 1343.5 c 128,-1,13
 668 1398 668 1398 805 1398 c 0,14,15
 969 1398 969 1398 1084 1303.5 c 128,-1,16
 1199 1209 1199 1209 1199 1076 c 2,17,-1
 1199 0 l 1,18,-1
 1096 0 l 1,19,-1
 1096 1068 l 2,20,21
 1096 1162 1096 1162 1011 1228.5 c 128,-1,22
 926 1295 926 1295 805 1295 c 0,23,24
 711 1295 711 1295 644.5 1253 c 128,-1,25
 578 1211 578 1211 578 1150 c 2,26,-1
 578 822 l 1,27,28
 648 822 648 822 700 818 c 128,-1,29
 752 814 752 814 783 807 c 1,30,-1
 783 703 l 1,31,32
 756 711 756 711 704 715 c 128,-1,33
 652 719 652 719 578 719 c 1,34,-1
 578 516 l 1,35,36
 732 516 732 516 840.5 436.5 c 128,-1,37
 949 357 949 357 949 246 c 0,38,39
 949 25 949 25 859.5 -131 c 128,-1,40
 770 -287 770 -287 643 -287 c 2,41,-1
 199 -287 l 2,42,43
 166 -287 166 -287 142.5 -317.5 c 128,-1,44
 119 -348 119 -348 119 -391 c 1,45,-1
 8 -391 l 1,46,47
 18 -303 18 -303 71.5 -244.5 c 128,-1,48
 125 -186 125 -186 197 -186 c 2,49,-1
 641 -186 l 2,50,51
 725 -186 725 -186 785.5 -60 c 128,-1,52
 846 66 846 66 846 246 c 0,53,54
 846 316 846 316 767.5 365 c 128,-1,55
 689 414 689 414 578 414 c 1,56,-1
 578 145 l 2,57,58
 578 76 578 76 464 27.5 c 128,-1,59
 350 -21 350 -21 187 -21 c 0,60,61
 133 -21 133 -21 94 39.5 c 128,-1,62
 55 100 55 100 55 186 c 2,0,-1
168 246 m 2,63,-1
 168 186 l 2,64,65
 168 143 168 143 192.5 112.5 c 128,-1,66
 217 82 217 82 250 82 c 0,67,68
 344 82 344 82 410.5 118 c 128,-1,69
 477 154 477 154 477 205 c 2,70,-1
 477 412 l 1,71,-1
 393 412 l 2,72,73
 299 412 299 412 233.5 363 c 128,-1,74
 168 314 168 314 168 246 c 2,63,-1
270 555 m 0,75,76
 270 535 270 535 275.5 518.5 c 128,-1,77
 281 502 281 502 291 490 c 1,78,79
 322 502 322 502 369 508 c 128,-1,80
 416 514 416 514 477 514 c 1,81,-1
 477 727 l 1,82,83
 389 717 389 717 329.5 668 c 128,-1,84
 270 619 270 619 270 555 c 0,75,76
EndSplineSet
Ligature2: "'psts' Post Base Substitutions lookup 8 subtable" tm_ta tm_ikaar
EndChar

StartChar: tm_n_ikaar
Encoding: 65551 -1 128
Width: 1387
GlyphClass: 2
Flags: W
LayerCount: 2
Fore
SplineSet
80 0 m 1,0,-1
 119 531 l 1,1,2
 119 654 119 654 227.5 740 c 128,-1,3
 336 826 336 826 488 826 c 1,4,-1
 488 1213 l 2,5,6
 488 1289 488 1289 585 1343.5 c 128,-1,7
 682 1398 682 1398 818 1398 c 0,8,9
 1006 1398 1006 1398 1138 1290 c 128,-1,10
 1270 1182 1270 1182 1270 1027 c 2,11,-1
 1270 0 l 1,12,-1
 1168 0 l 1,13,-1
 1168 1068 l 2,14,15
 1168 1162 1168 1162 1065.5 1228.5 c 128,-1,16
 963 1295 963 1295 818 1295 c 0,17,18
 725 1295 725 1295 658.5 1253 c 128,-1,19
 592 1211 592 1211 592 1150 c 2,20,-1
 592 822 l 1,21,22
 670 822 670 822 726.5 815.5 c 128,-1,23
 783 809 783 809 818 797 c 1,24,-1
 818 689 l 1,25,26
 793 703 793 703 735.5 711 c 128,-1,27
 678 719 678 719 592 719 c 1,28,-1
 592 434 l 1,29,30
 645 453 645 453 691.5 463 c 128,-1,31
 738 473 738 473 777 473 c 0,32,33
 879 473 879 473 951 406.5 c 128,-1,34
 1023 340 1023 340 1023 246 c 0,35,36
 1023 25 1023 25 933.5 -131 c 128,-1,37
 844 -287 844 -287 717 -287 c 2,38,-1
 234 -287 l 2,39,40
 186 -287 186 -287 150.5 -317.5 c 128,-1,41
 115 -348 115 -348 115 -391 c 1,42,-1
 4 -391 l 1,43,44
 14 -303 14 -303 76.5 -244.5 c 128,-1,45
 139 -186 139 -186 223 -186 c 2,46,-1
 715 -186 l 2,47,48
 799 -186 799 -186 859.5 -60 c 128,-1,49
 920 66 920 66 920 246 c 0,50,51
 920 297 920 297 878 333 c 128,-1,52
 836 369 836 369 777 369 c 0,53,54
 729 369 729 369 681 356.5 c 128,-1,55
 633 344 633 344 592 320 c 1,56,-1
 592 0 l 1,57,-1
 488 0 l 1,58,-1
 488 725 l 1,59,60
 381 725 381 725 304 671 c 128,-1,61
 227 617 227 617 221 539 c 2,62,-1
 182 0 l 1,63,-1
 80 0 l 1,0,-1
EndSplineSet
Ligature2: "'psts' Post Base Substitutions lookup 8 subtable" tm_na tm_ikaar
EndChar

StartChar: tm_nnn_ikaar
Encoding: 65552 -1 129
Width: 2125
GlyphClass: 2
Flags: W
LayerCount: 2
Fore
SplineSet
92 123 m 2,0,-1
 92 453 l 2,1,2
 92 598 92 598 194.5 700.5 c 128,-1,3
 297 803 297 803 441 803 c 2,4,-1
 648 803 l 2,5,6
 674 803 674 803 701.5 772.5 c 128,-1,7
 729 742 729 742 746 691 c 1,8,9
 770 732 770 732 804 756.5 c 128,-1,10
 838 781 838 781 873 781 c 2,11,-1
 1471 781 l 1,12,-1
 1471 1145 l 2,13,14
 1471 1250 1471 1250 1535.5 1324 c 128,-1,15
 1600 1398 1600 1398 1691 1398 c 0,16,17
 1822 1398 1822 1398 1915 1300.5 c 128,-1,18
 2008 1203 2008 1203 2008 1066 c 2,19,-1
 2008 0 l 1,20,-1
 1904 0 l 1,21,-1
 1904 1068 l 2,22,23
 1904 1162 1904 1162 1841.5 1228.5 c 128,-1,24
 1779 1295 1779 1295 1691 1295 c 0,25,26
 1643 1295 1643 1295 1607.5 1253 c 128,-1,27
 1572 1211 1572 1211 1572 1150 c 2,28,-1
 1572 781 l 1,29,30
 1650 781 1650 781 1707 774.5 c 128,-1,31
 1764 768 1764 768 1799 756 c 1,32,-1
 1799 664 l 1,33,34
 1773 674 1773 674 1726.5 676 c 128,-1,35
 1680 678 1680 678 1572 678 c 1,36,-1
 1572 0 l 1,37,-1
 1471 0 l 1,38,-1
 1471 678 l 1,39,-1
 1209 678 l 1,40,41
 1246 633 1246 633 1265.5 549 c 128,-1,42
 1285 465 1285 465 1285 350 c 0,43,44
 1285 205 1285 205 1182.5 102.5 c 128,-1,45
 1080 0 1080 0 936 0 c 0,46,47
 834 0 834 0 761.5 91 c 128,-1,48
 689 182 689 182 689 309 c 0,49,50
 689 426 689 426 701 505 c 128,-1,51
 713 584 713 584 734 623 c 1,52,53
 703 660 703 660 648.5 679.5 c 128,-1,54
 594 699 594 699 523 699 c 0,55,56
 387 699 387 699 287 609.5 c 128,-1,57
 187 520 187 520 178 387 c 1,58,59
 229 430 229 430 264 451.5 c 128,-1,60
 299 473 299 473 318 473 c 2,61,-1
 422 473 l 2,62,63
 465 473 465 473 494 436.5 c 128,-1,64
 523 400 523 400 523 350 c 2,65,-1
 523 164 l 2,66,67
 523 96 523 96 458 48 c 128,-1,68
 393 0 393 0 299 0 c 0,69,70
 213 0 213 0 152.5 36 c 128,-1,71
 92 72 92 72 92 123 c 2,0,-1
791 268 m 2,72,73
 791 199 791 199 845.5 151.5 c 128,-1,74
 900 104 900 104 977 104 c 0,75,76
 1061 104 1061 104 1121.5 176 c 128,-1,77
 1182 248 1182 248 1182 350 c 0,78,79
 1182 486 1182 486 1140 582 c 128,-1,80
 1098 678 1098 678 1039 678 c 2,81,-1
 930 678 l 1,82,83
 865 641 865 641 828 574.5 c 128,-1,84
 791 508 791 508 791 432 c 2,85,-1
 791 268 l 2,72,73
195 281 m 1,86,-1
 195 205 l 2,87,88
 195 162 195 162 225.5 133 c 128,-1,89
 256 104 256 104 299 104 c 0,90,91
 340 104 340 104 381 131 c 128,-1,92
 422 158 422 158 422 186 c 2,93,-1
 422 287 l 2,94,95
 422 320 422 320 391.5 344.5 c 128,-1,96
 361 369 361 369 318 369 c 0,97,98
 277 369 277 369 243 344.5 c 128,-1,99
 209 320 209 320 195 281 c 1,86,-1
EndSplineSet
Ligature2: "'psts' Post Base Substitutions lookup 8 subtable" tm_nnna tm_ikaar
EndChar

StartChar: tm_p_ikaar
Encoding: 65553 -1 130
Width: 1344
GlyphClass: 2
Flags: W
LayerCount: 2
Fore
SplineSet
96 123 m 2,0,-1
 135 781 l 1,1,-1
 238 781 l 1,2,-1
 199 205 l 2,3,4
 197 164 197 164 227.5 134 c 128,-1,5
 258 104 258 104 303 104 c 2,6,-1
 713 104 l 2,7,8
 756 104 756 104 786 128 c 128,-1,9
 816 152 816 152 816 186 c 0,10,11
 816 344 816 344 811.5 428 c 128,-1,12
 807 512 807 512 791 553 c 1,13,14
 648 553 648 553 546.5 632 c 128,-1,15
 445 711 445 711 445 822 c 2,16,-1
 445 1090 l 2,17,18
 445 1217 445 1217 559.5 1307.5 c 128,-1,19
 674 1398 674 1398 836 1398 c 256,20,21
 998 1398 998 1398 1112.5 1307.5 c 128,-1,22
 1227 1217 1227 1217 1227 1090 c 2,23,-1
 1227 0 l 1,24,-1
 1125 0 l 1,25,-1
 1125 1068 l 2,26,27
 1125 1162 1125 1162 1040 1228.5 c 128,-1,28
 955 1295 955 1295 836 1295 c 256,29,30
 717 1295 717 1295 633 1234.5 c 128,-1,31
 549 1174 549 1174 549 1090 c 2,32,-1
 549 863 l 2,33,34
 549 775 549 775 617.5 713.5 c 128,-1,35
 686 652 686 652 781 652 c 1,36,37
 771 705 771 705 761.5 736.5 c 128,-1,38
 752 768 752 768 742 781 c 1,39,-1
 842 781 l 1,40,41
 879 717 879 717 898.5 565.5 c 128,-1,42
 918 414 918 414 918 186 c 0,43,44
 918 109 918 109 882 54.5 c 128,-1,45
 846 0 846 0 795 0 c 2,46,-1
 240 0 l 2,47,48
 180 0 180 0 138 36 c 128,-1,49
 96 72 96 72 96 123 c 2,0,-1
EndSplineSet
Ligature2: "'psts' Post Base Substitutions lookup 8 subtable" tm_pa tm_ikaar
EndChar

StartChar: tm_m_ikaar
Encoding: 65554 -1 131
Width: 1342
GlyphClass: 2
Flags: W
LayerCount: 2
Fore
SplineSet
96 123 m 2,0,-1
 135 781 l 1,1,-1
 238 781 l 1,2,-1
 199 205 l 2,3,4
 197 164 197 164 227.5 134 c 128,-1,5
 258 104 258 104 303 104 c 2,6,-1
 445 104 l 1,7,-1
 445 658 l 2,8,9
 445 729 445 729 493 777.5 c 128,-1,10
 541 826 541 826 609 826 c 1,11,-1
 609 1213 l 2,12,13
 609 1289 609 1289 683.5 1343.5 c 128,-1,14
 758 1398 758 1398 861 1398 c 0,15,16
 1012 1398 1012 1398 1118.5 1300.5 c 128,-1,17
 1225 1203 1225 1203 1225 1066 c 2,18,-1
 1225 0 l 1,19,-1
 1123 0 l 1,20,-1
 1123 1068 l 2,21,22
 1123 1162 1123 1162 1047 1228.5 c 128,-1,23
 971 1295 971 1295 861 1295 c 0,24,25
 801 1295 801 1295 757 1253 c 128,-1,26
 713 1211 713 1211 713 1150 c 2,27,-1
 713 828 l 1,28,29
 766 828 766 828 816.5 761.5 c 128,-1,30
 867 695 867 695 898 590 c 0,31,32
 918 520 918 520 928.5 423 c 128,-1,33
 939 326 939 326 939 205 c 0,34,35
 939 121 939 121 867 60.5 c 128,-1,36
 795 0 795 0 693 0 c 2,37,-1
 240 0 l 2,38,39
 180 0 180 0 138 36 c 128,-1,40
 96 72 96 72 96 123 c 2,0,-1
549 104 m 1,41,-1
 672 104 l 2,42,43
 740 104 740 104 788 145.5 c 128,-1,44
 836 187 836 187 836 246 c 0,45,46
 836 311 836 311 825 385 c 128,-1,47
 814 459 814 459 795 541 c 0,48,49
 777 611 777 611 749 655 c 128,-1,50
 721 699 721 699 693 699 c 0,51,52
 633 699 633 699 591 669 c 128,-1,53
 549 639 549 639 549 596 c 2,54,-1
 549 104 l 1,41,-1
EndSplineSet
Ligature2: "'psts' Post Base Substitutions lookup 8 subtable" tm_ma tm_ikaar
EndChar

StartChar: tm_y_ikaar
Encoding: 65555 -1 132
Width: 1676
GlyphClass: 2
Flags: W
LayerCount: 2
Fore
SplineSet
98 123 m 2,0,-1
 137 781 l 1,1,-1
 240 781 l 1,2,-1
 201 205 l 2,3,4
 199 164 199 164 222.5 134 c 128,-1,5
 246 104 246 104 283 104 c 0,6,7
 354 104 354 104 426 157.5 c 128,-1,8
 498 211 498 211 551 303 c 1,9,-1
 551 781 l 1,10,-1
 654 781 l 1,11,-1
 654 205 l 2,12,13
 654 162 654 162 683.5 133 c 128,-1,14
 713 104 713 104 756 104 c 2,15,-1
 1064 104 l 2,16,17
 1102 104 1102 104 1125 134 c 128,-1,18
 1148 164 1148 164 1146 205 c 0,19,20
 1146 336 1146 336 1140.5 423 c 128,-1,21
 1135 510 1135 510 1125 553 c 1,22,23
 980 553 980 553 878.5 632 c 128,-1,24
 777 711 777 711 777 822 c 2,25,-1
 777 1090 l 2,26,27
 777 1217 777 1217 891.5 1307.5 c 128,-1,28
 1006 1398 1006 1398 1168 1398 c 256,29,30
 1330 1398 1330 1398 1444.5 1307.5 c 128,-1,31
 1559 1217 1559 1217 1559 1090 c 2,32,-1
 1559 0 l 1,33,-1
 1455 0 l 1,34,-1
 1455 1068 l 2,35,36
 1455 1162 1455 1162 1371 1228.5 c 128,-1,37
 1287 1295 1287 1295 1168 1295 c 256,38,39
 1049 1295 1049 1295 964 1234.5 c 128,-1,40
 879 1174 879 1174 879 1090 c 2,41,-1
 879 863 l 2,42,43
 879 775 879 775 946.5 713.5 c 128,-1,44
 1014 652 1014 652 1109 652 c 1,45,46
 1105 697 1105 697 1096.5 730.5 c 128,-1,47
 1088 764 1088 764 1072 781 c 1,48,-1
 1174 781 l 1,49,50
 1213 713 1213 713 1231.5 554.5 c 128,-1,51
 1250 396 1250 396 1250 145 c 0,52,53
 1250 84 1250 84 1214 42 c 128,-1,54
 1178 0 1178 0 1127 0 c 2,55,-1
 674 0 l 2,56,57
 629 0 629 0 592 39 c 128,-1,58
 555 78 555 78 539 139 c 1,59,60
 484 72 484 72 400 36 c 128,-1,61
 316 0 316 0 221 0 c 0,62,63
 170 0 170 0 134 36 c 128,-1,64
 98 72 98 72 98 123 c 2,0,-1
EndSplineSet
Ligature2: "'psts' Post Base Substitutions lookup 8 subtable" tm_ya tm_ikaar
EndChar

StartChar: tm_r_ikaar
Encoding: 65556 -1 133
Width: 1191
GlyphClass: 2
Flags: W
LayerCount: 2
Fore
SplineSet
80 0 m 1,0,-1
 119 531 l 1,1,2
 119 654 119 654 227.5 740 c 128,-1,3
 336 826 336 826 488 826 c 1,4,-1
 488 1213 l 2,5,6
 488 1289 488 1289 562.5 1343.5 c 128,-1,7
 637 1398 637 1398 740 1398 c 0,8,9
 879 1398 879 1398 976.5 1290 c 128,-1,10
 1074 1182 1074 1182 1074 1027 c 2,11,-1
 1074 0 l 1,12,-1
 973 0 l 1,13,-1
 973 1068 l 2,14,15
 973 1162 973 1162 904.5 1228.5 c 128,-1,16
 836 1295 836 1295 740 1295 c 0,17,18
 680 1295 680 1295 636 1253 c 128,-1,19
 592 1211 592 1211 592 1150 c 2,20,-1
 592 822 l 1,21,-1
 601 822 l 2,22,23
 673 821 673 821 726 815 c 0,24,25
 783 809 783 809 818 797 c 1,26,-1
 818 795 l 2,27,28
 819 795 819 795 820 795 c 2,29,-1
 820 689 l 1,30,-1
 818 690 l 1,31,-1
 818 689 l 1,32,33
 793 703 793 703 735 711 c 0,34,35
 686 718 686 718 617 719 c 2,36,-1
 594 719 l 1,37,-1
 594 21 l 2,38,39
 594 13 594 13 592 3 c 2,40,-1
 592 0 l 1,41,-1
 591 0 l 1,42,43
 584 -29 584 -29 559 -70 c 0,44,45
 525 -129 525 -129 461 -205 c 1,46,-1
 350 -205 l 1,47,48
 420 -121 420 -121 455 -65 c 0,49,50
 481 -24 481 -24 488 4 c 1,51,-1
 488 725 l 1,52,53
 378 712 378 712 303 660 c 0,54,55
 227 607 227 607 223 539 c 2,56,-1
 184 0 l 1,57,-1
 80 0 l 1,0,-1
EndSplineSet
Ligature2: "'psts' Post Base Substitutions lookup 8 subtable" tm_ra tm_ikaar
EndChar

StartChar: tm_rr_ikaar
Encoding: 65557 -1 134
Width: 1420
GlyphClass: 2
Flags: W
LayerCount: 2
Fore
SplineSet
82 0 m 1,0,-1
 121 551 l 2,1,2
 133 666 133 666 227.5 744 c 128,-1,3
 322 822 322 822 449 822 c 2,4,-1
 520 822 l 1,5,-1
 588 709 l 1,6,7
 629 742 629 742 655.5 762.5 c 128,-1,8
 682 783 682 783 697 789 c 1,9,-1
 697 1154 l 2,10,11
 697 1256 697 1256 770.5 1327 c 128,-1,12
 844 1398 844 1398 947 1398 c 0,13,14
 1094 1398 1094 1398 1198.5 1303.5 c 128,-1,15
 1303 1209 1303 1209 1303 1076 c 2,16,-1
 1303 0 l 1,17,-1
 1199 0 l 1,18,-1
 1199 1068 l 2,19,20
 1199 1162 1199 1162 1125 1228.5 c 128,-1,21
 1051 1295 1051 1295 947 1295 c 0,22,23
 887 1295 887 1295 843 1253 c 128,-1,24
 799 1211 799 1211 799 1150 c 2,25,-1
 799 787 l 1,26,27
 893 787 893 787 959 689.5 c 128,-1,28
 1025 592 1025 592 1025 453 c 0,29,30
 1025 146 1025 146 941 -70.5 c 128,-1,31
 857 -287 857 -287 738 -287 c 2,32,-1
 285 -287 l 2,33,34
 236 -287 236 -287 201 -317.5 c 128,-1,35
 166 -348 166 -348 166 -391 c 1,36,-1
 43 -391 l 1,37,38
 43 -307 43 -307 95.5 -246.5 c 128,-1,39
 148 -186 148 -186 223 -186 c 2,40,-1
 717 -186 l 2,41,42
 801 -186 801 -186 861.5 -17 c 128,-1,43
 922 152 922 152 922 391 c 0,44,45
 922 510 922 510 874 594 c 128,-1,46
 826 678 826 678 758 678 c 0,47,48
 689 678 689 678 641.5 636 c 128,-1,49
 594 594 594 594 594 535 c 2,50,-1
 594 0 l 1,51,-1
 490 0 l 1,52,-1
 490 576 l 2,53,54
 490 611 490 611 505.5 643.5 c 128,-1,55
 521 676 521 676 549 699 c 1,56,57
 521 709 521 709 497 714 c 128,-1,58
 473 719 473 719 449 719 c 0,59,60
 359 719 359 719 294 667 c 128,-1,61
 229 615 229 615 223 539 c 2,62,-1
 184 0 l 1,63,-1
 82 0 l 1,0,-1
EndSplineSet
Ligature2: "'psts' Post Base Substitutions lookup 8 subtable" tm_rra tm_ikaar
EndChar

StartChar: tm_l_ikaar
Encoding: 65558 -1 135
Width: 1660
GlyphClass: 2
Flags: W
LayerCount: 2
Fore
SplineSet
84 123 m 2,0,-1
 84 350 l 2,1,2
 84 537 84 537 198 670 c 128,-1,3
 312 803 312 803 475 803 c 0,4,5
 570 803 570 803 666 754 c 128,-1,6
 762 705 762 705 762 658 c 2,7,-1
 762 186 l 2,8,9
 762 152 762 152 798 128 c 128,-1,10
 834 104 834 104 885 104 c 0,11,12
 979 104 979 104 1045 157.5 c 128,-1,13
 1111 211 1111 211 1111 287 c 0,14,15
 1111 436 1111 436 1067 543 c 128,-1,16
 1023 650 1023 650 953 676 c 0,17,18
 867 707 867 707 814.5 781 c 128,-1,19
 762 855 762 855 762 945 c 2,20,-1
 762 1090 l 2,21,22
 762 1217 762 1217 876 1307.5 c 128,-1,23
 990 1398 990 1398 1152 1398 c 256,24,25
 1314 1398 1314 1398 1428.5 1307.5 c 128,-1,26
 1543 1217 1543 1217 1543 1090 c 2,27,-1
 1543 0 l 1,28,-1
 1441 0 l 1,29,-1
 1441 1068 l 2,30,31
 1441 1162 1441 1162 1356 1228.5 c 128,-1,32
 1271 1295 1271 1295 1152 1295 c 256,33,34
 1033 1295 1033 1295 949 1234.5 c 128,-1,35
 865 1174 865 1174 865 1090 c 2,36,-1
 865 945 l 2,37,38
 865 879 865 879 909 823.5 c 128,-1,39
 953 768 953 768 1023 742 c 0,40,41
 1119 707 1119 707 1176.5 582 c 128,-1,42
 1234 457 1234 457 1234 287 c 0,43,44
 1234 168 1234 168 1138.5 84 c 128,-1,45
 1043 0 1043 0 906 0 c 0,46,47
 805 0 805 0 732.5 54.5 c 128,-1,48
 660 109 660 109 660 186 c 2,49,-1
 660 596 l 2,50,51
 660 639 660 639 605.5 669 c 128,-1,52
 551 699 551 699 475 699 c 0,53,54
 355 699 355 699 267.5 614 c 128,-1,55
 180 529 180 529 172 406 c 1,56,57
 211 437 211 437 261.5 455 c 128,-1,58
 312 473 312 473 371 473 c 0,59,60
 432 473 432 473 474 442.5 c 128,-1,61
 516 412 516 412 516 369 c 2,62,-1
 516 145 l 2,63,64
 516 84 516 84 431 42 c 128,-1,65
 346 0 346 0 227 0 c 0,66,67
 168 0 168 0 126 36 c 128,-1,68
 84 72 84 72 84 123 c 2,0,-1
186 283 m 1,69,-1
 186 205 l 2,70,71
 186 162 186 162 210 133 c 128,-1,72
 234 104 234 104 270 104 c 0,73,74
 316 104 316 104 364 131 c 128,-1,75
 412 158 412 158 412 186 c 2,76,-1
 412 287 l 2,77,78
 412 320 412 320 387.5 344.5 c 128,-1,79
 363 369 363 369 330 369 c 0,80,81
 285 369 285 369 247 345.5 c 128,-1,82
 209 322 209 322 186 283 c 1,69,-1
EndSplineSet
Ligature2: "'psts' Post Base Substitutions lookup 8 subtable" tm_la tm_ikaar
EndChar

StartChar: tm_ll_ikaar
Encoding: 65559 -1 136
Width: 1771
GlyphClass: 2
Flags: W
LayerCount: 2
Fore
SplineSet
86 391 m 2,0,1
 86 561 86 561 218 682 c 128,-1,2
 350 803 350 803 537 803 c 0,3,4
 641 803 641 803 712 789 c 128,-1,5
 783 775 783 775 814 748 c 1,6,7
 869 785 869 785 945 804.5 c 128,-1,8
 1021 824 1021 824 1113 824 c 1,9,-1
 1113 1145 l 2,10,11
 1113 1250 1113 1250 1177.5 1324 c 128,-1,12
 1242 1398 1242 1398 1332 1398 c 0,13,14
 1465 1398 1465 1398 1559.5 1300.5 c 128,-1,15
 1654 1203 1654 1203 1654 1066 c 2,16,-1
 1654 0 l 1,17,-1
 1551 0 l 1,18,-1
 1551 1068 l 2,19,20
 1551 1162 1551 1162 1486.5 1228.5 c 128,-1,21
 1422 1295 1422 1295 1332 1295 c 0,22,23
 1285 1295 1285 1295 1251 1253 c 128,-1,24
 1217 1211 1217 1211 1217 1150 c 2,25,-1
 1217 822 l 1,26,27
 1289 822 1289 822 1346.5 813.5 c 128,-1,28
 1404 805 1404 805 1443 787 c 1,29,-1
 1443 689 l 1,30,31
 1420 703 1420 703 1339 710 c 128,-1,32
 1258 717 1258 717 1217 721 c 1,33,-1
 1217 0 l 1,34,-1
 1113 0 l 1,35,-1
 1113 725 l 1,36,37
 1000 725 1000 725 917 647.5 c 128,-1,38
 834 570 834 570 826 457 c 2,39,-1
 787 0 l 1,40,-1
 684 0 l 1,41,-1
 732 598 l 2,42,43
 736 639 736 639 677.5 669 c 128,-1,44
 619 699 619 699 537 699 c 0,45,46
 398 699 398 699 293.5 614 c 128,-1,47
 189 529 189 529 166 400 c 1,48,49
 207 436 207 436 260.5 454.5 c 128,-1,50
 314 473 314 473 373 473 c 0,51,52
 434 473 434 473 476 442.5 c 128,-1,53
 518 412 518 412 518 369 c 2,54,-1
 518 145 l 2,55,56
 518 84 518 84 445.5 42 c 128,-1,57
 373 0 373 0 271 0 c 0,58,59
 193 0 193 0 137.5 25.5 c 128,-1,60
 82 51 82 51 86 86 c 1,61,-1
 86 391 l 2,0,1
187 281 m 1,62,-1
 187 205 l 2,63,64
 187 162 187 162 217.5 133 c 128,-1,65
 248 104 248 104 291 104 c 0,66,67
 332 104 332 104 373 131 c 128,-1,68
 414 158 414 158 414 186 c 2,69,-1
 414 287 l 2,70,71
 414 320 414 320 384.5 344.5 c 128,-1,72
 355 369 355 369 312 369 c 0,73,74
 271 369 271 369 236 344.5 c 128,-1,75
 201 320 201 320 187 281 c 1,62,-1
EndSplineSet
Ligature2: "'psts' Post Base Substitutions lookup 8 subtable" tm_lla tm_ikaar
EndChar

StartChar: tm_lll_ikaar
Encoding: 65560 -1 137
Width: 1332
GlyphClass: 2
Flags: W
LayerCount: 2
Fore
SplineSet
96 123 m 2,0,-1
 135 781 l 1,1,-1
 238 781 l 1,2,-1
 199 205 l 2,3,4
 197 164 197 164 227.5 134 c 128,-1,5
 258 104 258 104 303 104 c 2,6,-1
 445 104 l 1,7,-1
 445 658 l 2,8,9
 445 729 445 729 493 777.5 c 128,-1,10
 541 826 541 826 609 826 c 1,11,-1
 609 1154 l 2,12,13
 609 1256 609 1256 683.5 1327 c 128,-1,14
 758 1398 758 1398 861 1398 c 0,15,16
 1008 1398 1008 1398 1111.5 1300.5 c 128,-1,17
 1215 1203 1215 1203 1215 1066 c 2,18,-1
 1215 0 l 1,19,-1
 1113 0 l 1,20,-1
 1113 1068 l 2,21,22
 1113 1162 1113 1162 1039 1228.5 c 128,-1,23
 965 1295 965 1295 861 1295 c 0,24,25
 801 1295 801 1295 757 1253 c 128,-1,26
 713 1211 713 1211 713 1150 c 2,27,-1
 713 828 l 1,28,29
 766 828 766 828 816.5 761.5 c 128,-1,30
 867 695 867 695 898 590 c 0,31,32
 918 520 918 520 928.5 423 c 128,-1,33
 939 326 939 326 939 205 c 0,34,35
 939 121 939 121 867 60.5 c 128,-1,36
 795 0 795 0 693 0 c 2,37,-1
 549 0 l 1,38,-1
 549 -82 l 2,39,40
 549 -125 549 -125 573.5 -155.5 c 128,-1,41
 598 -186 598 -186 631 -186 c 2,42,-1
 857 -186 l 1,43,-1
 857 -287 l 1,44,-1
 816 -287 l 2,45,46
 787 -287 787 -287 748 -323 c 128,-1,47
 709 -359 709 -359 674 -422 c 0,48,49
 621 -512 621 -512 554.5 -564.5 c 128,-1,50
 488 -617 488 -617 426 -617 c 0,51,52
 281 -617 281 -617 178.5 -556.5 c 128,-1,53
 76 -496 76 -496 76 -412 c 2,54,-1
 76 -268 l 2,55,56
 76 -211 76 -211 124 -172 c 128,-1,57
 172 -133 172 -133 240 -133 c 0,58,59
 246 -133 246 -133 256 -135 c 128,-1,60
 266 -137 266 -137 281 -141 c 1,61,-1
 281 -268 l 1,62,63
 240 -260 240 -260 209 -288 c 128,-1,64
 178 -316 178 -316 178 -359 c 0,65,66
 178 -424 178 -424 232.5 -469 c 128,-1,67
 287 -514 287 -514 363 -514 c 0,68,69
 424 -514 424 -514 472.5 -489.5 c 128,-1,70
 521 -465 521 -465 547 -422 c 0,71,72
 576 -371 576 -371 600.5 -340 c 128,-1,73
 625 -309 625 -309 645 -297 c 1,74,75
 562 -297 562 -297 503.5 -246 c 128,-1,76
 445 -195 445 -195 445 -123 c 2,77,-1
 445 0 l 1,78,-1
 240 0 l 2,79,80
 180 0 180 0 138 36 c 128,-1,81
 96 72 96 72 96 123 c 2,0,-1
549 104 m 1,82,-1
 672 104 l 2,83,84
 740 104 740 104 788 145.5 c 128,-1,85
 836 187 836 187 836 246 c 0,86,87
 836 311 836 311 825 385 c 128,-1,88
 814 459 814 459 795 541 c 0,89,90
 777 611 777 611 749 655 c 128,-1,91
 721 699 721 699 693 699 c 0,92,93
 633 699 633 699 591 669 c 128,-1,94
 549 639 549 639 549 596 c 2,95,-1
 549 104 l 1,82,-1
EndSplineSet
Ligature2: "'psts' Post Base Substitutions lookup 8 subtable" tm_llla tm_ikaar
EndChar

StartChar: tm_v_ikaar
Encoding: 65561 -1 138
Width: 1719
GlyphClass: 2
Flags: W
LayerCount: 2
Fore
SplineSet
80 123 m 2,0,-1
 80 350 l 2,1,2
 80 537 80 537 212 670 c 128,-1,3
 344 803 344 803 531 803 c 0,4,5
 639 803 639 803 729.5 764 c 128,-1,6
 820 725 820 725 820 678 c 2,7,-1
 820 205 l 2,8,9
 820 180 820 180 805.5 153.5 c 128,-1,10
 791 127 791 127 764 104 c 1,11,-1
 1047 104 l 2,12,13
 1115 104 1115 104 1163 157.5 c 128,-1,14
 1211 211 1211 211 1211 287 c 0,15,16
 1211 449 1211 449 1163 563.5 c 128,-1,17
 1115 678 1115 678 1047 678 c 0,18,19
 953 678 953 678 886.5 750 c 128,-1,20
 820 822 820 822 820 926 c 2,21,-1
 820 1213 l 2,22,23
 820 1289 820 1289 916 1343.5 c 128,-1,24
 1012 1398 1012 1398 1148 1398 c 0,25,26
 1336 1398 1336 1398 1469 1290 c 128,-1,27
 1602 1182 1602 1182 1602 1027 c 2,28,-1
 1602 0 l 1,29,-1
 1498 0 l 1,30,-1
 1498 1068 l 2,31,32
 1498 1162 1498 1162 1395.5 1228.5 c 128,-1,33
 1293 1295 1293 1295 1148 1295 c 0,34,35
 1055 1295 1055 1295 988.5 1253 c 128,-1,36
 922 1211 922 1211 922 1150 c 2,37,-1
 922 926 l 2,38,39
 922 865 922 865 958 823 c 128,-1,40
 994 781 994 781 1047 781 c 2,41,-1
 1107 781 l 2,42,43
 1191 781 1191 781 1251.5 636.5 c 128,-1,44
 1312 492 1312 492 1312 287 c 0,45,46
 1312 168 1312 168 1234 84 c 128,-1,47
 1156 0 1156 0 1047 0 c 2,48,-1
 635 0 l 1,49,-1
 635 104 l 1,50,-1
 656 104 l 2,51,52
 682 104 682 104 699.5 128 c 128,-1,53
 717 152 717 152 717 186 c 2,54,-1
 717 596 l 2,55,56
 717 639 717 639 662 669 c 128,-1,57
 607 699 607 699 531 699 c 0,58,59
 385 699 385 699 278.5 614 c 128,-1,60
 172 529 172 529 164 404 c 1,61,62
 203 437 203 437 256 455 c 128,-1,63
 309 473 309 473 367 473 c 0,64,65
 428 473 428 473 470 442.5 c 128,-1,66
 512 412 512 412 512 369 c 2,67,-1
 512 145 l 2,68,69
 512 84 512 84 427 42 c 128,-1,70
 342 0 342 0 223 0 c 0,71,72
 164 0 164 0 122 36 c 128,-1,73
 80 72 80 72 80 123 c 2,0,-1
182 283 m 1,74,-1
 182 205 l 2,75,76
 182 162 182 162 212 133 c 128,-1,77
 242 104 242 104 285 104 c 0,78,79
 326 104 326 104 367 131 c 128,-1,80
 408 158 408 158 408 186 c 2,81,-1
 408 287 l 2,82,83
 408 320 408 320 383.5 344.5 c 128,-1,84
 359 369 359 369 326 369 c 0,85,86
 281 369 281 369 243 345.5 c 128,-1,87
 205 322 205 322 182 283 c 1,74,-1
EndSplineSet
Ligature2: "'psts' Post Base Substitutions lookup 8 subtable" tm_va tm_ikaar
EndChar

StartChar: tm_ss_ikaar
Encoding: 65562 -1 139
Width: 2170
GlyphClass: 2
Flags: W
LayerCount: 2
Fore
SplineSet
80 123 m 2,0,-1
 80 350 l 2,1,2
 80 537 80 537 212 670 c 128,-1,3
 344 803 344 803 531 803 c 0,4,5
 639 803 639 803 729.5 764 c 128,-1,6
 820 725 820 725 820 678 c 2,7,-1
 820 186 l 2,8,9
 820 170 820 170 804.5 148.5 c 128,-1,10
 789 127 789 127 760 104 c 1,11,-1
 1416 104 l 1,12,-1
 1416 287 l 1,13,-1
 1170 287 l 2,14,15
 1119 287 1119 287 1083 341.5 c 128,-1,16
 1047 396 1047 396 1047 473 c 0,17,18
 1047 578 1047 578 1108.5 665 c 128,-1,19
 1170 752 1170 752 1271 789 c 1,20,-1
 1271 1213 l 2,21,22
 1271 1289 1271 1289 1368 1343.5 c 128,-1,23
 1465 1398 1465 1398 1602 1398 c 0,24,25
 1789 1398 1789 1398 1921 1290 c 128,-1,26
 2053 1182 2053 1182 2053 1027 c 2,27,-1
 2053 0 l 1,28,-1
 1951 0 l 1,29,-1
 1951 1068 l 2,30,31
 1951 1162 1951 1162 1848.5 1228.5 c 128,-1,32
 1746 1295 1746 1295 1602 1295 c 0,33,34
 1508 1295 1508 1295 1441.5 1253 c 128,-1,35
 1375 1211 1375 1211 1375 1150 c 2,36,-1
 1375 785 l 1,37,38
 1436 785 1436 785 1478 741 c 128,-1,39
 1520 697 1520 697 1520 637 c 2,40,-1
 1520 391 l 1,41,-1
 1725 391 l 2,42,43
 1771 391 1771 391 1804.5 354.5 c 128,-1,44
 1838 318 1838 318 1838 268 c 0,45,46
 1838 156 1838 156 1793 78 c 128,-1,47
 1748 0 1748 0 1684 0 c 2,48,-1
 1520 0 l 1,49,-1
 1520 -205 l 1,50,-1
 1416 -205 l 1,51,-1
 1416 0 l 1,52,-1
 635 0 l 1,53,-1
 635 104 l 1,54,-1
 656 104 l 2,55,56
 682 104 682 104 699.5 128 c 128,-1,57
 717 152 717 152 717 186 c 2,58,-1
 717 596 l 2,59,60
 717 639 717 639 662 669 c 128,-1,61
 607 699 607 699 531 699 c 0,62,63
 385 699 385 699 278.5 614 c 128,-1,64
 172 529 172 529 164 404 c 1,65,66
 203 437 203 437 256 455 c 128,-1,67
 309 473 309 473 367 473 c 0,68,69
 428 473 428 473 470 442.5 c 128,-1,70
 512 412 512 412 512 369 c 2,71,-1
 512 145 l 2,72,73
 512 84 512 84 427 42 c 128,-1,74
 342 0 342 0 223 0 c 0,75,76
 164 0 164 0 122 36 c 128,-1,77
 80 72 80 72 80 123 c 2,0,-1
182 283 m 1,78,-1
 182 205 l 2,79,80
 182 162 182 162 212 133 c 128,-1,81
 242 104 242 104 285 104 c 0,82,83
 326 104 326 104 367 131 c 128,-1,84
 408 158 408 158 408 186 c 2,85,-1
 408 287 l 2,86,87
 408 320 408 320 383.5 344.5 c 128,-1,88
 359 369 359 369 326 369 c 0,89,90
 281 369 281 369 243 345.5 c 128,-1,91
 205 322 205 322 182 283 c 1,78,-1
1148 473 m 0,92,93
 1148 439 1148 439 1184.5 415 c 128,-1,94
 1221 391 1221 391 1271 391 c 2,95,-1
 1416 391 l 1,96,-1
 1416 617 l 2,97,98
 1416 643 1416 643 1391.5 660.5 c 128,-1,99
 1367 678 1367 678 1334 678 c 0,100,101
 1258 678 1258 678 1203 617.5 c 128,-1,102
 1148 557 1148 557 1148 473 c 0,92,93
1520 104 m 1,103,-1
 1643 104 l 2,104,105
 1676 104 1676 104 1700.5 133 c 128,-1,106
 1725 162 1725 162 1725 205 c 0,107,108
 1725 238 1725 238 1700.5 262.5 c 128,-1,109
 1676 287 1676 287 1643 287 c 2,110,-1
 1520 287 l 1,111,-1
 1520 104 l 1,103,-1
EndSplineSet
Ligature2: "'psts' Post Base Substitutions lookup 8 subtable" tm_ssa tm_ikaar
EndChar

StartChar: tm_s_ikaar
Encoding: 65563 -1 140
Width: 1943
GlyphClass: 2
Flags: W
LayerCount: 2
Fore
SplineSet
557 803 m 0,0,1
 623 803 623 803 677.5 785.5 c 128,-1,2
 732 768 732 768 771 736 c 1,3,4
 811 768 811 768 855.5 785.5 c 128,-1,5
 900 803 900 803 947 803 c 0,6,7
 1016 803 1016 803 1063.5 761 c 128,-1,8
 1111 719 1111 719 1111 658 c 2,9,-1
 1111 186 l 2,10,11
 1111 152 1111 152 1141.5 128 c 128,-1,12
 1172 104 1172 104 1215 104 c 2,13,-1
 1297 104 l 2,14,15
 1365 104 1365 104 1413 157.5 c 128,-1,16
 1461 211 1461 211 1461 287 c 0,17,18
 1461 410 1461 410 1421 511.5 c 128,-1,19
 1381 613 1381 613 1309 674 c 0,20,21
 1234 736 1234 736 1193 792 c 128,-1,22
 1152 848 1152 848 1152 885 c 2,23,-1
 1152 1213 l 2,24,25
 1152 1289 1152 1289 1249 1343.5 c 128,-1,26
 1346 1398 1346 1398 1482 1398 c 0,27,28
 1625 1398 1625 1398 1725.5 1290 c 128,-1,29
 1826 1182 1826 1182 1826 1027 c 2,30,-1
 1826 0 l 1,31,-1
 1725 0 l 1,32,-1
 1725 1068 l 2,33,34
 1725 1162 1725 1162 1653.5 1228.5 c 128,-1,35
 1582 1295 1582 1295 1482 1295 c 0,36,37
 1389 1295 1389 1295 1322.5 1253 c 128,-1,38
 1256 1211 1256 1211 1256 1150 c 2,39,-1
 1256 926 l 2,40,41
 1256 887 1256 887 1274.5 849.5 c 128,-1,42
 1293 812 1293 812 1326 785 c 0,43,44
 1439 689 1439 689 1501.5 559.5 c 128,-1,45
 1564 430 1564 430 1564 287 c 0,46,47
 1564 168 1564 168 1486 84 c 128,-1,48
 1408 0 1408 0 1297 0 c 2,49,-1
 1152 0 l 2,50,51
 1092 0 1092 0 1050 42 c 128,-1,52
 1008 84 1008 84 1008 145 c 2,53,-1
 1008 596 l 2,54,55
 1008 639 1008 639 972 669 c 128,-1,56
 936 699 936 699 885 699 c 256,57,58
 834 699 834 699 798 669 c 128,-1,59
 762 639 762 639 762 596 c 2,60,-1
 762 0 l 1,61,-1
 660 0 l 1,62,-1
 660 617 l 2,63,64
 660 650 660 650 624 674.5 c 128,-1,65
 588 699 588 699 535 699 c 2,66,-1
 453 699 l 2,67,68
 352 699 352 699 271.5 615 c 128,-1,69
 191 531 191 531 168 404 c 1,70,71
 207 437 207 437 259.5 455 c 128,-1,72
 312 473 312 473 371 473 c 0,73,74
 432 473 432 473 474 442.5 c 128,-1,75
 516 412 516 412 516 369 c 2,76,-1
 516 145 l 2,77,78
 516 84 516 84 443.5 42 c 128,-1,79
 371 0 371 0 270 0 c 0,80,81
 193 0 193 0 138.5 24.5 c 128,-1,82
 84 49 84 49 84 82 c 2,83,-1
 84 391 l 2,84,85
 84 561 84 561 222.5 682 c 128,-1,86
 361 803 361 803 557 803 c 0,0,1
186 281 m 1,87,-1
 186 205 l 2,88,89
 186 162 186 162 216 133 c 128,-1,90
 246 104 246 104 289 104 c 0,91,92
 330 104 330 104 371 131 c 128,-1,93
 412 158 412 158 412 186 c 2,94,-1
 412 287 l 2,95,96
 412 320 412 320 387.5 344.5 c 128,-1,97
 363 369 363 369 330 369 c 0,98,99
 279 369 279 369 239 344.5 c 128,-1,100
 199 320 199 320 186 281 c 1,87,-1
EndSplineSet
Ligature2: "'psts' Post Base Substitutions lookup 8 subtable" tm_sa tm_ikaar
EndChar

StartChar: tm_h_ikaar
Encoding: 65564 -1 141
Width: 2334
GlyphClass: 2
Flags: W
LayerCount: 2
Fore
SplineSet
80 123 m 2,0,-1
 80 350 l 2,1,2
 80 537 80 537 212 670 c 128,-1,3
 344 803 344 803 531 803 c 0,4,5
 639 803 639 803 729.5 764 c 128,-1,6
 820 725 820 725 820 678 c 2,7,-1
 820 205 l 2,8,9
 820 180 820 180 805.5 153.5 c 128,-1,10
 791 127 791 127 764 104 c 1,11,-1
 982 104 l 1,12,-1
 1025 551 l 2,13,14
 1037 666 1037 666 1132 744 c 128,-1,15
 1227 822 1227 822 1354 822 c 2,16,-1
 1424 822 l 1,17,-1
 1494 705 l 1,18,19
 1521 736 1521 736 1548.5 757.5 c 128,-1,20
 1576 779 1576 779 1602 789 c 1,21,-1
 1602 1174 l 2,22,23
 1602 1268 1602 1268 1678 1333 c 128,-1,24
 1754 1398 1754 1398 1861 1398 c 0,25,26
 2008 1398 2008 1398 2112.5 1290 c 128,-1,27
 2217 1182 2217 1182 2217 1027 c 2,28,-1
 2217 0 l 1,29,-1
 2113 0 l 1,30,-1
 2113 1068 l 2,31,32
 2113 1162 2113 1162 2039 1228.5 c 128,-1,33
 1965 1295 1965 1295 1861 1295 c 0,34,35
 1795 1295 1795 1295 1749 1253 c 128,-1,36
 1703 1211 1703 1211 1703 1150 c 2,37,-1
 1703 787 l 1,38,39
 1797 787 1797 787 1863.5 689.5 c 128,-1,40
 1930 592 1930 592 1930 453 c 0,41,42
 1930 146 1930 146 1846 -70.5 c 128,-1,43
 1762 -287 1762 -287 1643 -287 c 2,44,-1
 285 -287 l 2,45,46
 236 -287 236 -287 201 -317.5 c 128,-1,47
 166 -348 166 -348 166 -391 c 1,48,-1
 43 -391 l 1,49,50
 43 -307 43 -307 95.5 -246.5 c 128,-1,51
 148 -186 148 -186 223 -186 c 2,52,-1
 1621 -186 l 2,53,54
 1707 -186 1707 -186 1767.5 -17 c 128,-1,55
 1828 152 1828 152 1828 391 c 0,56,57
 1828 510 1828 510 1779 594 c 128,-1,58
 1730 678 1730 678 1662 678 c 256,59,60
 1594 678 1594 678 1546 636 c 128,-1,61
 1498 594 1498 594 1498 535 c 2,62,-1
 1498 0 l 1,63,-1
 1395 0 l 1,64,-1
 1395 576 l 2,65,66
 1395 611 1395 611 1410.5 643.5 c 128,-1,67
 1426 676 1426 676 1453 699 c 1,68,69
 1426 709 1426 709 1401.5 714 c 128,-1,70
 1377 719 1377 719 1354 719 c 0,71,72
 1264 719 1264 719 1199.5 667 c 128,-1,73
 1135 615 1135 615 1129 539 c 2,74,-1
 1090 0 l 1,75,-1
 635 0 l 1,76,-1
 635 104 l 1,77,-1
 656 104 l 2,78,79
 682 104 682 104 699.5 128 c 128,-1,80
 717 152 717 152 717 186 c 2,81,-1
 717 596 l 2,82,83
 717 639 717 639 662 669 c 128,-1,84
 607 699 607 699 531 699 c 0,85,86
 385 699 385 699 278.5 614 c 128,-1,87
 172 529 172 529 164 404 c 1,88,89
 203 437 203 437 256 455 c 128,-1,90
 309 473 309 473 367 473 c 0,91,92
 428 473 428 473 470 442.5 c 128,-1,93
 512 412 512 412 512 369 c 2,94,-1
 512 145 l 2,95,96
 512 84 512 84 427 42 c 128,-1,97
 342 0 342 0 223 0 c 0,98,99
 164 0 164 0 122 36 c 128,-1,100
 80 72 80 72 80 123 c 2,0,-1
182 283 m 1,101,-1
 182 205 l 2,102,103
 182 162 182 162 212 133 c 128,-1,104
 242 104 242 104 285 104 c 0,105,106
 326 104 326 104 367 131 c 128,-1,107
 408 158 408 158 408 186 c 2,108,-1
 408 287 l 2,109,110
 408 320 408 320 383.5 344.5 c 128,-1,111
 359 369 359 369 326 369 c 0,112,113
 281 369 281 369 243 345.5 c 128,-1,114
 205 322 205 322 182 283 c 1,101,-1
EndSplineSet
Ligature2: "'psts' Post Base Substitutions lookup 8 subtable" tm_ha tm_ikaar
EndChar

StartChar: tm_k_iikaar
Encoding: 65565 -1 142
Width: 969
GlyphClass: 2
Flags: W
LayerCount: 2
Fore
SplineSet
49 215 m 0,0,1
 49 285 49 285 84 348.5 c 128,-1,2
 119 412 119 412 182 455 c 1,3,4
 172 475 172 475 167 500 c 128,-1,5
 162 525 162 525 162 557 c 0,6,7
 162 662 162 662 251 739 c 128,-1,8
 340 816 340 816 471 826 c 1,9,-1
 471 1195 l 2,10,11
 471 1262 471 1262 567.5 1330 c 128,-1,12
 664 1398 664 1398 760 1398 c 0,13,14
 854 1398 854 1398 919 1343.5 c 128,-1,15
 984 1289 984 1289 984 1213 c 2,16,-1
 984 1090 l 2,17,18
 984 1029 984 1029 906 987 c 128,-1,19
 828 945 828 945 717 945 c 0,20,21
 672 945 672 945 636 953 c 128,-1,22
 600 961 600 961 572 977 c 1,23,-1
 572 822 l 1,24,25
 656 822 656 822 705 818 c 128,-1,26
 754 814 754 814 777 807 c 1,27,-1
 777 705 l 1,28,29
 754 713 754 713 708 716 c 128,-1,30
 662 719 662 719 572 719 c 1,31,-1
 572 518 l 1,32,33
 717 518 717 518 819.5 433 c 128,-1,34
 922 348 922 348 922 227 c 0,35,36
 922 133 922 133 868 66.5 c 128,-1,37
 814 0 814 0 738 0 c 2,38,-1
 695 0 l 1,39,-1
 695 104 l 1,40,-1
 736 104 l 2,41,42
 771 104 771 104 795.5 140 c 128,-1,43
 820 176 820 176 820 227 c 0,44,45
 820 305 820 305 748 360.5 c 128,-1,46
 676 416 676 416 572 416 c 1,47,-1
 572 203 l 2,48,49
 572 109 572 109 474.5 44 c 128,-1,50
 377 -21 377 -21 240 -21 c 0,51,52
 160 -21 160 -21 104.5 48 c 128,-1,53
 49 117 49 117 49 215 c 0,0,1
162 246 m 2,54,-1
 162 186 l 2,55,56
 162 143 162 143 186.5 112.5 c 128,-1,57
 211 82 211 82 244 82 c 0,58,59
 338 82 338 82 404.5 118 c 128,-1,60
 471 154 471 154 471 205 c 2,61,-1
 471 412 l 1,62,-1
 387 412 l 2,63,64
 293 412 293 412 227.5 363 c 128,-1,65
 162 314 162 314 162 246 c 2,54,-1
264 555 m 0,66,67
 264 537 264 537 269.5 520.5 c 128,-1,68
 275 504 275 504 285 492 c 1,69,70
 352 504 352 504 398.5 510 c 128,-1,71
 445 516 445 516 471 516 c 1,72,-1
 471 727 l 1,73,74
 383 717 383 717 323.5 668 c 128,-1,75
 264 619 264 619 264 555 c 0,66,67
572 1064 m 1,76,77
 594 1057 594 1057 614.5 1053 c 128,-1,78
 635 1049 635 1049 654 1049 c 2,79,-1
 717 1049 l 2,80,81
 785 1049 785 1049 833 1078 c 128,-1,82
 881 1107 881 1107 881 1150 c 2,83,-1
 881 1193 l 2,84,85
 881 1236 881 1236 845 1265.5 c 128,-1,86
 809 1295 809 1295 758 1295 c 0,87,88
 682 1295 682 1295 627 1253 c 128,-1,89
 572 1211 572 1211 572 1150 c 2,90,-1
 572 1064 l 1,76,77
EndSplineSet
Ligature2: "'abvs' Above Base Substitutions lookup 6 subtable" tm_ka tm_iikaar
EndChar

StartChar: tm_ng_iikaar
Encoding: 65566 -1 143
Width: 1486
GlyphClass: 2
Flags: W
LayerCount: 2
Fore
SplineSet
78 0 m 1,0,-1
 117 531 l 1,1,2
 131 656 131 656 260 739 c 128,-1,3
 389 822 389 822 568 822 c 0,4,5
 654 822 654 822 716.5 815.5 c 128,-1,6
 779 809 779 809 816 795 c 1,7,-1
 816 689 l 1,8,9
 791 703 791 703 733.5 711 c 128,-1,10
 676 719 676 719 590 719 c 1,11,-1
 590 477 l 1,12,13
 623 506 623 506 671 520.5 c 128,-1,14
 719 535 719 535 775 535 c 0,15,16
 859 535 859 535 919.5 463 c 128,-1,17
 980 391 980 391 980 287 c 0,18,19
 980 232 980 232 965.5 184.5 c 128,-1,20
 951 137 951 137 922 104 c 1,21,-1
 1148 104 l 2,22,23
 1209 104 1209 104 1251 145.5 c 128,-1,24
 1293 187 1293 187 1293 246 c 0,25,26
 1293 365 1293 365 1287 442.5 c 128,-1,27
 1281 520 1281 520 1268 555 c 1,28,-1
 1148 555 l 2,29,30
 1064 555 1064 555 1003.5 633 c 128,-1,31
 943 711 943 711 943 822 c 2,32,-1
 943 1234 l 2,33,34
 943 1289 943 1289 1053.5 1343.5 c 128,-1,35
 1164 1398 1164 1398 1271 1398 c 0,36,37
 1348 1398 1348 1398 1402.5 1343.5 c 128,-1,38
 1457 1289 1457 1289 1457 1213 c 2,39,-1
 1457 1090 l 2,40,41
 1457 1029 1457 1029 1379 987 c 128,-1,42
 1301 945 1301 945 1189 945 c 0,43,44
 1146 945 1146 945 1110 953 c 128,-1,45
 1074 961 1074 961 1047 977 c 1,46,-1
 1047 844 l 2,47,48
 1047 766 1047 766 1104.5 710 c 128,-1,49
 1162 654 1162 654 1242 654 c 1,50,51
 1250 693 1250 693 1243 726.5 c 128,-1,52
 1236 760 1236 760 1219 781 c 1,53,-1
 1322 781 l 1,54,55
 1361 734 1361 734 1378.5 612 c 128,-1,56
 1396 490 1396 490 1396 287 c 0,57,58
 1396 168 1396 168 1324 84 c 128,-1,59
 1252 0 1252 0 1148 0 c 2,60,-1
 486 0 l 1,61,-1
 486 104 l 1,62,-1
 775 104 l 2,63,64
 818 104 818 104 847.5 133 c 128,-1,65
 877 162 877 162 877 205 c 2,66,-1
 877 309 l 2,67,68
 877 359 877 359 835 395.5 c 128,-1,69
 793 432 793 432 734 432 c 0,70,71
 674 432 674 432 632 407.5 c 128,-1,72
 590 383 590 383 590 350 c 2,73,-1
 590 309 l 1,74,-1
 486 309 l 1,75,-1
 486 725 l 1,76,77
 379 725 379 725 302 671 c 128,-1,78
 225 617 225 617 219 539 c 2,79,-1
 180 0 l 1,80,-1
 78 0 l 1,0,-1
1047 1064 m 1,81,82
 1068 1057 1068 1057 1088.5 1053 c 128,-1,83
 1109 1049 1109 1049 1129 1049 c 2,84,-1
 1189 1049 l 2,85,86
 1258 1049 1258 1049 1306.5 1078 c 128,-1,87
 1355 1107 1355 1107 1355 1150 c 2,88,-1
 1355 1193 l 2,89,90
 1355 1236 1355 1236 1319 1265.5 c 128,-1,91
 1283 1295 1283 1295 1230 1295 c 0,92,93
 1154 1295 1154 1295 1100.5 1253 c 128,-1,94
 1047 1211 1047 1211 1047 1150 c 2,95,-1
 1047 1064 l 1,81,82
EndSplineSet
Ligature2: "'abvs' Above Base Substitutions lookup 6 subtable" tm_nga tm_iikaar
EndChar

StartChar: tm_c_iikaar
Encoding: 65567 -1 144
Width: 809
GlyphClass: 2
Flags: W
LayerCount: 2
Fore
SplineSet
51 186 m 0,0,1
 51 271 51 271 89 343.5 c 128,-1,2
 127 416 127 416 193 455 c 1,3,4
 180 479 180 479 172 504 c 128,-1,5
 164 529 164 529 164 557 c 0,6,7
 164 662 164 662 253 739 c 128,-1,8
 342 816 342 816 473 826 c 1,9,-1
 473 1234 l 2,10,11
 473 1289 473 1289 583 1343.5 c 128,-1,12
 693 1398 693 1398 801 1398 c 0,13,14
 877 1398 877 1398 931.5 1343.5 c 128,-1,15
 986 1289 986 1289 986 1213 c 2,16,-1
 986 1090 l 2,17,18
 986 1029 986 1029 908 987 c 128,-1,19
 830 945 830 945 719 945 c 0,20,21
 674 945 674 945 638 953 c 128,-1,22
 602 961 602 961 574 977 c 1,23,-1
 574 822 l 1,24,25
 645 822 645 822 696.5 818 c 128,-1,26
 748 814 748 814 779 807 c 1,27,-1
 779 705 l 1,28,29
 756 713 756 713 710 716 c 128,-1,30
 664 719 664 719 574 719 c 1,31,-1
 574 514 l 1,32,33
 658 514 658 514 707 510 c 128,-1,34
 756 506 756 506 779 498 c 1,35,-1
 779 373 l 1,36,37
 762 393 762 393 709 403.5 c 128,-1,38
 656 414 656 414 574 414 c 1,39,-1
 574 145 l 2,40,41
 574 76 574 76 460 27.5 c 128,-1,42
 346 -21 346 -21 184 -21 c 0,43,44
 129 -21 129 -21 90 39.5 c 128,-1,45
 51 100 51 100 51 186 c 0,0,1
164 246 m 2,46,-1
 164 186 l 2,47,48
 164 143 164 143 188.5 112.5 c 128,-1,49
 213 82 213 82 246 82 c 0,50,51
 340 82 340 82 406.5 118 c 128,-1,52
 473 154 473 154 473 205 c 2,53,-1
 473 412 l 1,54,-1
 389 412 l 2,55,56
 295 412 295 412 229.5 363 c 128,-1,57
 164 314 164 314 164 246 c 2,46,-1
266 555 m 0,58,59
 266 535 266 535 271.5 518.5 c 128,-1,60
 277 502 277 502 287 490 c 1,61,62
 318 502 318 502 365 508 c 128,-1,63
 412 514 412 514 473 514 c 1,64,-1
 473 727 l 1,65,66
 385 717 385 717 325.5 668 c 128,-1,67
 266 619 266 619 266 555 c 0,58,59
574 1064 m 1,68,69
 596 1057 596 1057 616.5 1053 c 128,-1,70
 637 1049 637 1049 656 1049 c 2,71,-1
 719 1049 l 2,72,73
 787 1049 787 1049 835 1078 c 128,-1,74
 883 1107 883 1107 883 1150 c 2,75,-1
 883 1193 l 2,76,77
 883 1236 883 1236 847 1265.5 c 128,-1,78
 811 1295 811 1295 760 1295 c 0,79,80
 684 1295 684 1295 629 1253 c 128,-1,81
 574 1211 574 1211 574 1150 c 2,82,-1
 574 1064 l 1,68,69
EndSplineSet
Ligature2: "'abvs' Above Base Substitutions lookup 6 subtable" tm_ca tm_iikaar
EndChar

StartChar: tm_j_iikaar
Encoding: 65568 -1 145
Width: 1443
GlyphClass: 2
Flags: W
LayerCount: 2
Fore
SplineSet
90 227 m 2,0,-1
 90 637 l 2,1,2
 90 705 90 705 216 754 c 128,-1,3
 342 803 342 803 521 803 c 0,4,5
 627 803 627 803 708 782.5 c 128,-1,6
 789 762 789 762 834 725 c 1,7,8
 867 764 867 764 908 790 c 128,-1,9
 949 816 949 816 994 828 c 1,10,-1
 994 1234 l 2,11,12
 994 1289 994 1289 1104.5 1343.5 c 128,-1,13
 1215 1398 1215 1398 1322 1398 c 0,14,15
 1398 1398 1398 1398 1453 1343.5 c 128,-1,16
 1508 1289 1508 1289 1508 1213 c 2,17,-1
 1508 1090 l 2,18,19
 1508 1029 1508 1029 1430 987 c 128,-1,20
 1352 945 1352 945 1240 945 c 0,21,22
 1197 945 1197 945 1161 953 c 128,-1,23
 1125 961 1125 961 1098 977 c 1,24,-1
 1098 826 l 1,25,26
 1207 826 1207 826 1285 722.5 c 128,-1,27
 1363 619 1363 619 1363 473 c 0,28,29
 1363 227 1363 227 1267.5 52 c 128,-1,30
 1172 -123 1172 -123 1035 -123 c 2,31,-1
 316 -123 l 2,32,33
 275 -123 275 -123 246 -151.5 c 128,-1,34
 217 -180 217 -180 213 -223 c 2,35,-1
 203 -412 l 2,36,37
 201 -453 201 -453 227.5 -483.5 c 128,-1,38
 254 -514 254 -514 295 -514 c 0,39,40
 342 -514 342 -514 388 -496.5 c 128,-1,41
 434 -479 434 -479 473 -447 c 2,42,-1
 668 -283 l 2,43,44
 689 -266 689 -266 714.5 -256 c 128,-1,45
 740 -246 740 -246 768 -246 c 2,46,-1
 1199 -246 l 2,47,48
 1242 -246 1242 -246 1272.5 -282 c 128,-1,49
 1303 -318 1303 -318 1303 -369 c 0,50,51
 1303 -473 1303 -473 1261 -545 c 128,-1,52
 1219 -617 1219 -617 1158 -617 c 2,53,-1
 953 -617 l 2,54,55
 910 -617 910 -617 880 -587 c 128,-1,56
 850 -557 850 -557 850 -514 c 2,57,-1
 850 -348 l 1,58,59
 809 -348 809 -348 766 -365.5 c 128,-1,60
 723 -383 723 -383 684 -416 c 2,61,-1
 520 -559 l 2,62,63
 486 -588 486 -588 433.5 -602.5 c 128,-1,64
 381 -617 381 -617 316 -617 c 0,65,66
 211 -617 211 -617 136.5 -576 c 128,-1,67
 62 -535 62 -535 68 -480 c 2,68,-1
 90 -180 l 2,69,70
 98 -111 98 -111 139 -66 c 128,-1,71
 180 -21 180 -21 232 -21 c 2,72,-1
 994 -21 l 2,73,74
 1105 -21 1105 -21 1183.5 130 c 128,-1,75
 1262 281 1262 281 1262 494 c 0,76,77
 1262 588 1262 588 1207 653.5 c 128,-1,78
 1152 719 1152 719 1076 719 c 0,79,80
 986 719 986 719 920.5 664 c 128,-1,81
 855 609 855 609 850 529 c 2,82,-1
 811 123 l 1,83,-1
 709 123 l 1,84,-1
 748 578 l 2,85,86
 754 627 754 627 682.5 663 c 128,-1,87
 611 699 611 699 512 699 c 0,88,89
 430 699 430 699 353.5 679.5 c 128,-1,90
 277 660 277 660 213 623 c 1,91,-1
 213 535 l 1,92,93
 264 564 264 564 306 580 c 128,-1,94
 348 596 348 596 377 596 c 0,95,96
 437 596 437 596 479 566.5 c 128,-1,97
 521 537 521 537 521 494 c 2,98,-1
 521 268 l 2,99,100
 521 207 521 207 485 165 c 128,-1,101
 449 123 449 123 398 123 c 2,102,-1
 150 123 l 2,103,104
 125 123 125 123 107.5 153.5 c 128,-1,105
 90 184 90 184 90 227 c 2,0,-1
953 -350 m 1,106,-1
 953 -422 l 2,107,108
 953 -469 953 -469 983.5 -502 c 128,-1,109
 1014 -535 1014 -535 1057 -535 c 0,110,111
 1107 -535 1107 -535 1143.5 -505 c 128,-1,112
 1180 -475 1180 -475 1180 -432 c 0,113,114
 1180 -398 1180 -398 1161.5 -374 c 128,-1,115
 1143 -350 1143 -350 1117 -350 c 2,116,-1
 953 -350 l 1,106,-1
191 328 m 0,117,118
 191 285 191 285 221.5 256 c 128,-1,119
 252 227 252 227 295 227 c 0,120,121
 336 227 336 227 377 268 c 128,-1,122
 418 309 418 309 418 350 c 2,123,-1
 418 432 l 2,124,125
 418 465 418 465 388.5 489.5 c 128,-1,126
 359 514 359 514 316 514 c 0,127,128
 275 514 275 514 233 451.5 c 128,-1,129
 191 389 191 389 191 328 c 0,117,118
1098 1064 m 1,130,131
 1119 1057 1119 1057 1139.5 1053 c 128,-1,132
 1160 1049 1160 1049 1180 1049 c 2,133,-1
 1240 1049 l 2,134,135
 1309 1049 1309 1049 1356.5 1078 c 128,-1,136
 1404 1107 1404 1107 1404 1150 c 2,137,-1
 1404 1193 l 2,138,139
 1404 1236 1404 1236 1368 1265.5 c 128,-1,140
 1332 1295 1332 1295 1281 1295 c 0,141,142
 1205 1295 1205 1295 1151.5 1253 c 128,-1,143
 1098 1211 1098 1211 1098 1150 c 2,144,-1
 1098 1064 l 1,130,131
EndSplineSet
Ligature2: "'abvs' Above Base Substitutions lookup 6 subtable" tm_ja tm_iikaar
EndChar

StartChar: tm_ny_iikaar
Encoding: 65569 -1 146
Width: 1676
GlyphClass: 2
Flags: W
LayerCount: 2
Fore
SplineSet
449 199 m 2,0,-1
 449 432 l 2,1,2
 449 576 449 576 546 678.5 c 128,-1,3
 643 781 643 781 779 781 c 2,4,-1
 1086 781 l 1,5,-1
 1086 1195 l 2,6,7
 1086 1262 1086 1262 1182.5 1330 c 128,-1,8
 1279 1398 1279 1398 1375 1398 c 0,9,10
 1469 1398 1469 1398 1534.5 1343.5 c 128,-1,11
 1600 1289 1600 1289 1600 1213 c 2,12,-1
 1600 1090 l 2,13,14
 1600 1029 1600 1029 1521.5 987 c 128,-1,15
 1443 945 1443 945 1332 945 c 0,16,17
 1287 945 1287 945 1251 953 c 128,-1,18
 1215 961 1215 961 1187 977 c 1,19,-1
 1187 781 l 1,20,-1
 1252 781 l 2,21,22
 1299 781 1299 781 1340 774.5 c 128,-1,23
 1381 768 1381 768 1416 756 c 1,24,-1
 1416 639 l 1,25,26
 1381 658 1381 658 1323.5 669 c 128,-1,27
 1266 680 1266 680 1189 680 c 1,28,-1
 1189 432 l 1,29,30
 1225 451 1225 451 1271.5 462 c 128,-1,31
 1318 473 1318 473 1375 473 c 0,32,33
 1477 473 1477 473 1549 399.5 c 128,-1,34
 1621 326 1621 326 1621 223 c 0,35,36
 1621 -125 1621 -125 1453 -371 c 128,-1,37
 1285 -617 1285 -617 1047 -617 c 2,38,-1
 758 -617 l 2,39,40
 477 -617 477 -617 278.5 -345.5 c 128,-1,41
 80 -74 80 -74 80 309 c 0,42,43
 80 502 80 502 175.5 638.5 c 128,-1,44
 271 775 271 775 408 775 c 1,45,-1
 408 672 l 1,46,47
 314 672 314 672 248 565.5 c 128,-1,48
 182 459 182 459 182 309 c 0,49,50
 182 -31 182 -31 351 -272.5 c 128,-1,51
 520 -514 520 -514 758 -514 c 2,52,-1
 1047 -514 l 2,53,54
 1242 -514 1242 -514 1381 -297 c 128,-1,55
 1520 -80 1520 -80 1520 227 c 0,56,57
 1520 285 1520 285 1471 327 c 128,-1,58
 1422 369 1422 369 1354 369 c 0,59,60
 1303 369 1303 369 1261 356.5 c 128,-1,61
 1219 344 1219 344 1189 318 c 1,62,-1
 1189 0 l 1,63,-1
 1088 0 l 1,64,-1
 1088 678 l 1,65,-1
 779 678 l 2,66,67
 699 678 699 678 633.5 600.5 c 128,-1,68
 568 523 568 523 547 404 c 1,69,70
 586 437 586 437 636 455 c 128,-1,71
 686 473 686 473 738 473 c 0,72,73
 797 473 797 473 839 442.5 c 128,-1,74
 881 412 881 412 881 369 c 2,75,-1
 881 145 l 2,76,77
 881 84 881 84 808.5 42 c 128,-1,78
 736 0 736 0 635 0 c 0,79,80
 559 0 559 0 504 58.5 c 128,-1,81
 449 117 449 117 449 199 c 2,0,-1
553 281 m 1,82,-1
 553 205 l 2,83,84
 553 162 553 162 583 133 c 128,-1,85
 613 104 613 104 656 104 c 0,86,87
 697 104 697 104 738 131 c 128,-1,88
 779 158 779 158 779 186 c 2,89,-1
 779 287 l 2,90,91
 779 320 779 320 752 344.5 c 128,-1,92
 725 369 725 369 686 369 c 0,93,94
 641 369 641 369 603.5 344.5 c 128,-1,95
 566 320 566 320 553 281 c 1,82,-1
1187 1064 m 1,96,97
 1209 1057 1209 1057 1229.5 1053 c 128,-1,98
 1250 1049 1250 1049 1270 1049 c 2,99,-1
 1332 1049 l 2,100,101
 1400 1049 1400 1049 1448 1078 c 128,-1,102
 1496 1107 1496 1107 1496 1150 c 2,103,-1
 1496 1193 l 2,104,105
 1496 1236 1496 1236 1460 1265.5 c 128,-1,106
 1424 1295 1424 1295 1373 1295 c 0,107,108
 1297 1295 1297 1295 1242 1253 c 128,-1,109
 1187 1211 1187 1211 1187 1150 c 2,110,-1
 1187 1064 l 1,96,97
EndSplineSet
Ligature2: "'abvs' Above Base Substitutions lookup 6 subtable" tm_nya tm_iikaar
EndChar

StartChar: tm_tt_iikaar
Encoding: 65570 -1 147
Width: 1125
GlyphClass: 2
Flags: W
LayerCount: 2
Fore
SplineSet
96 123 m 2,0,-1
 135 781 l 1,1,-1
 238 781 l 1,2,-1
 199 205 l 2,3,4
 197 164 197 164 227.5 134 c 128,-1,5
 258 104 258 104 303 104 c 2,6,-1
 549 104 l 1,7,-1
 549 426 l 2,8,9
 549 506 549 506 645.5 587 c 128,-1,10
 742 668 742 668 838 668 c 0,11,12
 932 668 932 668 997 605.5 c 128,-1,13
 1062 543 1062 543 1062 455 c 2,14,-1
 1062 408 l 2,15,16
 1062 324 1062 324 984 265.5 c 128,-1,17
 906 207 906 207 795 207 c 0,18,19
 742 207 742 207 706 213 c 128,-1,20
 670 219 670 219 652 229 c 1,21,-1
 652 104 l 1,22,-1
 1062 104 l 1,23,-1
 1062 0 l 1,24,-1
 240 0 l 2,25,26
 180 0 180 0 138 36 c 128,-1,27
 96 72 96 72 96 123 c 2,0,-1
652 324 m 1,28,29
 674 316 674 316 712 312.5 c 128,-1,30
 750 309 750 309 803 309 c 0,31,32
 867 309 867 309 913 339 c 128,-1,33
 959 369 959 369 959 412 c 2,34,-1
 959 453 l 2,35,36
 959 496 959 496 923 525.5 c 128,-1,37
 887 555 887 555 836 555 c 0,38,39
 760 555 760 555 706 510 c 128,-1,40
 652 465 652 465 652 402 c 2,41,-1
 652 324 l 1,28,29
EndSplineSet
Ligature2: "'abvs' Above Base Substitutions lookup 5 subtable" tm_tta tm_iikaar
EndChar

StartChar: tm_nn_iikaar
Encoding: 65571 -1 148
Width: 2285
GlyphClass: 2
Flags: W
LayerCount: 2
Fore
SplineSet
90 123 m 2,0,-1
 90 453 l 2,1,2
 90 598 90 598 210 700.5 c 128,-1,3
 330 803 330 803 500 803 c 0,4,5
 566 803 566 803 619 798 c 128,-1,6
 672 793 672 793 711 783 c 1,7,-1
 777 699 l 1,8,9
 799 736 799 736 824.5 758.5 c 128,-1,10
 850 781 850 781 871 781 c 2,11,-1
 1154 781 l 1,12,-1
 1229 684 l 1,13,14
 1254 729 1254 729 1290 755 c 128,-1,15
 1326 781 1326 781 1363 781 c 2,16,-1
 1939 781 l 1,17,-1
 1939 1234 l 2,18,19
 1939 1289 1939 1289 2049.5 1343.5 c 128,-1,20
 2160 1398 2160 1398 2270 1398 c 0,21,22
 2346 1398 2346 1398 2399.5 1343.5 c 128,-1,23
 2453 1289 2453 1289 2453 1213 c 2,24,-1
 2453 1090 l 2,25,26
 2453 1029 2453 1029 2375 987 c 128,-1,27
 2297 945 2297 945 2186 945 c 0,28,29
 2143 945 2143 945 2106.5 953 c 128,-1,30
 2070 961 2070 961 2043 977 c 1,31,-1
 2043 781 l 1,32,33
 2121 781 2121 781 2177.5 774.5 c 128,-1,34
 2234 768 2234 768 2270 756 c 1,35,-1
 2270 664 l 1,36,37
 2244 674 2244 674 2197 676 c 128,-1,38
 2150 678 2150 678 2043 678 c 1,39,-1
 2043 0 l 1,40,-1
 1939 0 l 1,41,-1
 1939 678 l 1,42,-1
 1697 678 l 1,43,44
 1734 646 1734 646 1754.5 549.5 c 128,-1,45
 1775 453 1775 453 1775 309 c 0,46,47
 1775 182 1775 182 1697 91 c 128,-1,48
 1619 0 1619 0 1508 0 c 2,49,-1
 1404 0 l 2,50,51
 1348 0 1348 0 1299 25.5 c 128,-1,52
 1250 51 1250 51 1221 96 c 1,53,54
 1191 51 1191 51 1137.5 25.5 c 128,-1,55
 1084 0 1084 0 1021 0 c 2,56,-1
 912 0 l 2,57,58
 818 0 818 0 752 84 c 128,-1,59
 686 168 686 168 686 287 c 0,60,61
 686 400 686 400 699.5 483 c 128,-1,62
 713 566 713 566 740 613 c 1,63,64
 705 654 705 654 632 676.5 c 128,-1,65
 559 699 559 699 459 699 c 0,66,67
 350 699 350 699 268.5 609.5 c 128,-1,68
 187 520 187 520 178 389 c 1,69,70
 227 430 227 430 262 451.5 c 128,-1,71
 297 473 297 473 316 473 c 2,72,-1
 418 473 l 2,73,74
 461 473 461 473 491 436.5 c 128,-1,75
 521 400 521 400 521 350 c 2,76,-1
 521 164 l 2,77,78
 521 96 521 96 455 48 c 128,-1,79
 389 0 389 0 295 0 c 0,80,81
 211 0 211 0 150.5 36 c 128,-1,82
 90 72 90 72 90 123 c 2,0,-1
789 350 m 0,83,84
 789 248 789 248 837 176 c 128,-1,85
 885 104 885 104 953 104 c 2,86,-1
 1014 104 l 2,87,88
 1082 104 1082 104 1131 176 c 128,-1,89
 1180 248 1180 248 1180 350 c 0,90,91
 1180 486 1180 486 1138 582 c 128,-1,92
 1096 678 1096 678 1035 678 c 2,93,-1
 924 678 l 1,94,95
 861 643 861 643 825 554 c 128,-1,96
 789 465 789 465 789 350 c 0,83,84
191 281 m 1,97,-1
 191 205 l 2,98,99
 191 162 191 162 221.5 133 c 128,-1,100
 252 104 252 104 295 104 c 0,101,102
 336 104 336 104 377 131 c 128,-1,103
 418 158 418 158 418 186 c 2,104,-1
 418 287 l 2,105,106
 418 320 418 320 388.5 344.5 c 128,-1,107
 359 369 359 369 316 369 c 0,108,109
 275 369 275 369 240 344.5 c 128,-1,110
 205 320 205 320 191 281 c 1,97,-1
1281 350 m 0,111,112
 1281 248 1281 248 1317.5 176 c 128,-1,113
 1354 104 1354 104 1404 104 c 2,114,-1
 1508 104 l 2,115,116
 1576 104 1576 104 1624 176 c 128,-1,117
 1672 248 1672 248 1672 350 c 0,118,119
 1672 486 1672 486 1630 582 c 128,-1,120
 1588 678 1588 678 1529 678 c 2,121,-1
 1373 678 l 1,122,123
 1328 625 1328 625 1304.5 540 c 128,-1,124
 1281 455 1281 455 1281 350 c 0,111,112
2043 1064 m 1,125,126
 2064 1057 2064 1057 2084.5 1053 c 128,-1,127
 2105 1049 2105 1049 2125 1049 c 2,128,-1
 2187 1049 l 2,129,130
 2256 1049 2256 1049 2304 1078 c 128,-1,131
 2352 1107 2352 1107 2352 1150 c 2,132,-1
 2352 1193 l 2,133,134
 2352 1236 2352 1236 2315.5 1265.5 c 128,-1,135
 2279 1295 2279 1295 2229 1295 c 0,136,137
 2152 1295 2152 1295 2097.5 1253 c 128,-1,138
 2043 1211 2043 1211 2043 1150 c 2,139,-1
 2043 1064 l 1,125,126
EndSplineSet
Ligature2: "'abvs' Above Base Substitutions lookup 6 subtable" tm_nna tm_iikaar
EndChar

